<?xml version="1.0" encoding="UTF-8" standalone="no"?>
<!DOCTYPE svg PUBLIC "-//W3C//DTD SVG 1.1//EN"
 "http://www.w3.org/Graphics/SVG/1.1/DTD/svg11.dtd">
<!-- Generated by graphviz version 2.43.0 (0)
 -->
<!-- Title: List Pages: 1 -->
<svg width="1241pt" height="831pt"
 viewBox="0.00 0.00 1241.00 831.00" xmlns="http://www.w3.org/2000/svg" xmlns:xlink="http://www.w3.org/1999/xlink">
<g id="graph0" class="graph" transform="scale(1 1) rotate(0) translate(4 827)">
<title>List</title>
<polygon fill="#696969" stroke="transparent" points="-4,4 -4,-827 1237,-827 1237,4 -4,4"/>
<text text-anchor="middle" x="616.5" y="-7.8" font-family="Times,serif" font-size="14.00">tree_dump from function main, Tree/./src/main.cpp:14</text>
<!-- node0 -->
<g id="node1" class="node">
<title>node0</title>
<path fill="#006400" stroke="black" d="M590,-786.5C590,-786.5 620,-786.5 620,-786.5 626,-786.5 632,-792.5 632,-798.5 632,-798.5 632,-810.5 632,-810.5 632,-816.5 626,-822.5 620,-822.5 620,-822.5 590,-822.5 590,-822.5 584,-822.5 578,-816.5 578,-810.5 578,-810.5 578,-798.5 578,-798.5 578,-792.5 584,-786.5 590,-786.5"/>
<text text-anchor="middle" x="605" y="-800.8" font-family="Times,serif" font-size="14.00">;</text>
</g>
<!-- node1 -->
<g id="node2" class="node">
<title>node1</title>
<path fill="#ff0000" stroke="black" d="M554,-713.5C554,-713.5 584,-713.5 584,-713.5 590,-713.5 596,-719.5 596,-725.5 596,-725.5 596,-737.5 596,-737.5 596,-743.5 590,-749.5 584,-749.5 584,-749.5 554,-749.5 554,-749.5 548,-749.5 542,-743.5 542,-737.5 542,-737.5 542,-725.5 542,-725.5 542,-719.5 548,-713.5 554,-713.5"/>
<text text-anchor="middle" x="569" y="-727.8" font-family="Times,serif" font-size="14.00">0</text>
</g>
<!-- node0&#45;&gt;node1 -->
<g id="edge1" class="edge">
<title>node0&#45;&gt;node1</title>
<path fill="none" stroke="#ff0000" d="M596.29,-786.31C592.08,-778.03 586.95,-767.91 582.28,-758.69"/>
<polygon fill="#ff0000" stroke="#ff0000" points="585.28,-756.87 577.63,-749.53 579.04,-760.03 585.28,-756.87"/>
</g>
<!-- node39 -->
<g id="node40" class="node">
<title>node39</title>
<path fill="#006400" stroke="black" d="M698,-713.5C698,-713.5 728,-713.5 728,-713.5 734,-713.5 740,-719.5 740,-725.5 740,-725.5 740,-737.5 740,-737.5 740,-743.5 734,-749.5 728,-749.5 728,-749.5 698,-749.5 698,-749.5 692,-749.5 686,-743.5 686,-737.5 686,-737.5 686,-725.5 686,-725.5 686,-719.5 692,-713.5 698,-713.5"/>
<text text-anchor="middle" x="713" y="-727.8" font-family="Times,serif" font-size="14.00">;</text>
</g>
<!-- node0&#45;&gt;node39 -->
<g id="edge39" class="edge">
<title>node0&#45;&gt;node39</title>
<path fill="none" stroke="#006400" d="M630.87,-786.49C645.06,-777.17 662.84,-765.47 678.23,-755.36"/>
<polygon fill="#006400" stroke="#006400" points="680.53,-758.03 686.97,-749.61 676.69,-752.18 680.53,-758.03"/>
</g>
<!-- node2 -->
<g id="node3" class="node">
<title>node2</title>
<path fill="#006400" stroke="black" d="M498,-640.5C498,-640.5 528,-640.5 528,-640.5 534,-640.5 540,-646.5 540,-652.5 540,-652.5 540,-664.5 540,-664.5 540,-670.5 534,-676.5 528,-676.5 528,-676.5 498,-676.5 498,-676.5 492,-676.5 486,-670.5 486,-664.5 486,-664.5 486,-652.5 486,-652.5 486,-646.5 492,-640.5 498,-640.5"/>
<text text-anchor="middle" x="513" y="-654.8" font-family="Times,serif" font-size="14.00">;</text>
</g>
<!-- node1&#45;&gt;node2 -->
<g id="edge2" class="edge">
<title>node1&#45;&gt;node2</title>
<path fill="none" stroke="#006400" d="M555.44,-713.31C548.63,-704.68 540.25,-694.06 532.75,-684.53"/>
<polygon fill="#006400" stroke="#006400" points="535.37,-682.21 526.43,-676.53 529.88,-686.55 535.37,-682.21"/>
</g>
<!-- node3 -->
<g id="node4" class="node">
<title>node3</title>
<path fill="#8b00ff" stroke="black" d="M426,-567.5C426,-567.5 456,-567.5 456,-567.5 462,-567.5 468,-573.5 468,-579.5 468,-579.5 468,-591.5 468,-591.5 468,-597.5 462,-603.5 456,-603.5 456,-603.5 426,-603.5 426,-603.5 420,-603.5 414,-597.5 414,-591.5 414,-591.5 414,-579.5 414,-579.5 414,-573.5 420,-567.5 426,-567.5"/>
<text text-anchor="middle" x="441" y="-581.8" font-family="Times,serif" font-size="14.00">input</text>
</g>
<!-- node2&#45;&gt;node3 -->
<g id="edge3" class="edge">
<title>node2&#45;&gt;node3</title>
<path fill="none" stroke="#8b00ff" d="M495.57,-640.31C486.55,-631.42 475.39,-620.41 465.51,-610.67"/>
<polygon fill="#8b00ff" stroke="#8b00ff" points="467.85,-608.06 458.27,-603.53 462.93,-613.04 467.85,-608.06"/>
</g>
<!-- node5 -->
<g id="node6" class="node">
<title>node5</title>
<path fill="#006400" stroke="black" d="M498,-567.5C498,-567.5 528,-567.5 528,-567.5 534,-567.5 540,-573.5 540,-579.5 540,-579.5 540,-591.5 540,-591.5 540,-597.5 534,-603.5 528,-603.5 528,-603.5 498,-603.5 498,-603.5 492,-603.5 486,-597.5 486,-591.5 486,-591.5 486,-579.5 486,-579.5 486,-573.5 492,-567.5 498,-567.5"/>
<text text-anchor="middle" x="513" y="-581.8" font-family="Times,serif" font-size="14.00">;</text>
</g>
<!-- node2&#45;&gt;node5 -->
<g id="edge5" class="edge">
<title>node2&#45;&gt;node5</title>
<path fill="none" stroke="#006400" d="M513,-640.31C513,-632.29 513,-622.55 513,-613.57"/>
<polygon fill="#006400" stroke="#006400" points="516.5,-613.53 513,-603.53 509.5,-613.53 516.5,-613.53"/>
</g>
<!-- node4 -->
<g id="node5" class="node">
<title>node4</title>
<path fill="#ccff99" stroke="black" d="M408,-494.5C408,-494.5 438,-494.5 438,-494.5 444,-494.5 450,-500.5 450,-506.5 450,-506.5 450,-518.5 450,-518.5 450,-524.5 444,-530.5 438,-530.5 438,-530.5 408,-530.5 408,-530.5 402,-530.5 396,-524.5 396,-518.5 396,-518.5 396,-506.5 396,-506.5 396,-500.5 402,-494.5 408,-494.5"/>
<text text-anchor="middle" x="423" y="-508.8" font-family="Times,serif" font-size="14.00">1</text>
</g>
<!-- node3&#45;&gt;node4 -->
<g id="edge4" class="edge">
<title>node3&#45;&gt;node4</title>
<path fill="none" stroke="#ccff99" d="M436.64,-567.31C434.59,-559.2 432.09,-549.34 429.79,-540.28"/>
<polygon fill="#ccff99" stroke="#ccff99" points="433.17,-539.36 427.32,-530.53 426.38,-541.08 433.17,-539.36"/>
</g>
<!-- node6 -->
<g id="node7" class="node">
<title>node6</title>
<path fill="#8b00ff" stroke="black" d="M480,-494.5C480,-494.5 510,-494.5 510,-494.5 516,-494.5 522,-500.5 522,-506.5 522,-506.5 522,-518.5 522,-518.5 522,-524.5 516,-530.5 510,-530.5 510,-530.5 480,-530.5 480,-530.5 474,-530.5 468,-524.5 468,-518.5 468,-518.5 468,-506.5 468,-506.5 468,-500.5 474,-494.5 480,-494.5"/>
<text text-anchor="middle" x="495" y="-508.8" font-family="Times,serif" font-size="14.00">=</text>
</g>
<!-- node5&#45;&gt;node6 -->
<g id="edge6" class="edge">
<title>node5&#45;&gt;node6</title>
<path fill="none" stroke="#8b00ff" d="M508.64,-567.31C506.59,-559.2 504.09,-549.34 501.79,-540.28"/>
<polygon fill="#8b00ff" stroke="#8b00ff" points="505.17,-539.36 499.32,-530.53 498.38,-541.08 505.17,-539.36"/>
</g>
<!-- node9 -->
<g id="node10" class="node">
<title>node9</title>
<path fill="#006400" stroke="black" d="M552,-494.5C552,-494.5 582,-494.5 582,-494.5 588,-494.5 594,-500.5 594,-506.5 594,-506.5 594,-518.5 594,-518.5 594,-524.5 588,-530.5 582,-530.5 582,-530.5 552,-530.5 552,-530.5 546,-530.5 540,-524.5 540,-518.5 540,-518.5 540,-506.5 540,-506.5 540,-500.5 546,-494.5 552,-494.5"/>
<text text-anchor="middle" x="567" y="-508.8" font-family="Times,serif" font-size="14.00">;</text>
</g>
<!-- node5&#45;&gt;node9 -->
<g id="edge9" class="edge">
<title>node5&#45;&gt;node9</title>
<path fill="none" stroke="#006400" d="M526.07,-567.31C532.64,-558.68 540.72,-548.06 547.96,-538.53"/>
<polygon fill="#006400" stroke="#006400" points="550.78,-540.61 554.05,-530.53 545.21,-536.37 550.78,-540.61"/>
</g>
<!-- node7 -->
<g id="node8" class="node">
<title>node7</title>
<path fill="#ccff99" stroke="black" d="M408,-421.5C408,-421.5 438,-421.5 438,-421.5 444,-421.5 450,-427.5 450,-433.5 450,-433.5 450,-445.5 450,-445.5 450,-451.5 444,-457.5 438,-457.5 438,-457.5 408,-457.5 408,-457.5 402,-457.5 396,-451.5 396,-445.5 396,-445.5 396,-433.5 396,-433.5 396,-427.5 402,-421.5 408,-421.5"/>
<text text-anchor="middle" x="423" y="-435.8" font-family="Times,serif" font-size="14.00">2</text>
</g>
<!-- node6&#45;&gt;node7 -->
<g id="edge7" class="edge">
<title>node6&#45;&gt;node7</title>
<path fill="none" stroke="#ccff99" d="M477.57,-494.31C468.55,-485.42 457.39,-474.41 447.51,-464.67"/>
<polygon fill="#ccff99" stroke="#ccff99" points="449.85,-462.06 440.27,-457.53 444.93,-467.04 449.85,-462.06"/>
</g>
<!-- node8 -->
<g id="node9" class="node">
<title>node8</title>
<path fill="#00bfff" stroke="black" d="M480,-421.5C480,-421.5 510,-421.5 510,-421.5 516,-421.5 522,-427.5 522,-433.5 522,-433.5 522,-445.5 522,-445.5 522,-451.5 516,-457.5 510,-457.5 510,-457.5 480,-457.5 480,-457.5 474,-457.5 468,-451.5 468,-445.5 468,-445.5 468,-433.5 468,-433.5 468,-427.5 474,-421.5 480,-421.5"/>
<text text-anchor="middle" x="495" y="-435.8" font-family="Times,serif" font-size="14.00">1</text>
</g>
<!-- node6&#45;&gt;node8 -->
<g id="edge8" class="edge">
<title>node6&#45;&gt;node8</title>
<path fill="none" stroke="#00bfff" d="M495,-494.31C495,-486.29 495,-476.55 495,-467.57"/>
<polygon fill="#00bfff" stroke="#00bfff" points="498.5,-467.53 495,-457.53 491.5,-467.53 498.5,-467.53"/>
</g>
<!-- node10 -->
<g id="node11" class="node">
<title>node10</title>
<path fill="#8b00ff" stroke="black" d="M552,-421.5C552,-421.5 582,-421.5 582,-421.5 588,-421.5 594,-427.5 594,-433.5 594,-433.5 594,-445.5 594,-445.5 594,-451.5 588,-457.5 582,-457.5 582,-457.5 552,-457.5 552,-457.5 546,-457.5 540,-451.5 540,-445.5 540,-445.5 540,-433.5 540,-433.5 540,-427.5 546,-421.5 552,-421.5"/>
<text text-anchor="middle" x="567" y="-435.8" font-family="Times,serif" font-size="14.00">if</text>
</g>
<!-- node9&#45;&gt;node10 -->
<g id="edge10" class="edge">
<title>node9&#45;&gt;node10</title>
<path fill="none" stroke="#8b00ff" d="M567,-494.31C567,-486.29 567,-476.55 567,-467.57"/>
<polygon fill="#8b00ff" stroke="#8b00ff" points="570.5,-467.53 567,-457.53 563.5,-467.53 570.5,-467.53"/>
</g>
<!-- node11 -->
<g id="node12" class="node">
<title>node11</title>
<path fill="#ffffff" stroke="black" d="M298,-348.5C298,-348.5 332,-348.5 332,-348.5 338,-348.5 344,-354.5 344,-360.5 344,-360.5 344,-372.5 344,-372.5 344,-378.5 338,-384.5 332,-384.5 332,-384.5 298,-384.5 298,-384.5 292,-384.5 286,-378.5 286,-372.5 286,-372.5 286,-360.5 286,-360.5 286,-354.5 292,-348.5 298,-348.5"/>
<text text-anchor="middle" x="315" y="-362.8" font-family="Times,serif" font-size="14.00">op_no</text>
</g>
<!-- node10&#45;&gt;node11 -->
<g id="edge11" class="edge">
<title>node10&#45;&gt;node11</title>
<path fill="none" stroke="#ffffff" d="M539.74,-424.52C536.82,-423.24 533.87,-422.04 531,-421 470.81,-399.19 398.03,-383.2 354.19,-374.63"/>
<polygon fill="#ffffff" stroke="#ffffff" points="354.7,-371.17 344.22,-372.71 353.38,-378.04 354.7,-371.17"/>
</g>
<!-- node22 -->
<g id="node23" class="node">
<title>node22</title>
<path fill="#8b00ff" stroke="black" d="M552,-348.5C552,-348.5 582,-348.5 582,-348.5 588,-348.5 594,-354.5 594,-360.5 594,-360.5 594,-372.5 594,-372.5 594,-378.5 588,-384.5 582,-384.5 582,-384.5 552,-384.5 552,-384.5 546,-384.5 540,-378.5 540,-372.5 540,-372.5 540,-360.5 540,-360.5 540,-354.5 546,-348.5 552,-348.5"/>
<text text-anchor="middle" x="567" y="-362.8" font-family="Times,serif" font-size="14.00">if</text>
</g>
<!-- node10&#45;&gt;node22 -->
<g id="edge22" class="edge">
<title>node10&#45;&gt;node22</title>
<path fill="none" stroke="#8b00ff" d="M567,-421.31C567,-413.29 567,-403.55 567,-394.57"/>
<polygon fill="#8b00ff" stroke="#8b00ff" points="570.5,-394.53 567,-384.53 563.5,-394.53 570.5,-394.53"/>
</g>
<!-- node12 -->
<g id="node13" class="node">
<title>node12</title>
<path fill="#8b00ff" stroke="black" d="M196,-242.5C196,-242.5 226,-242.5 226,-242.5 232,-242.5 238,-248.5 238,-254.5 238,-254.5 238,-299.5 238,-299.5 238,-305.5 232,-311.5 226,-311.5 226,-311.5 196,-311.5 196,-311.5 190,-311.5 184,-305.5 184,-299.5 184,-299.5 184,-254.5 184,-254.5 184,-248.5 190,-242.5 196,-242.5"/>
<text text-anchor="middle" x="211" y="-296.3" font-family="Times,serif" font-size="14.00"> </text>
<polyline fill="none" stroke="black" points="184,-288.5 238,-288.5 "/>
<text text-anchor="middle" x="211" y="-273.3" font-family="Times,serif" font-size="14.00"> </text>
<polyline fill="none" stroke="black" points="184,-265.5 238,-265.5 "/>
<text text-anchor="middle" x="211" y="-250.3" font-family="Times,serif" font-size="14.00"> </text>
</g>
<!-- node11&#45;&gt;node12 -->
<g id="edge12" class="edge">
<title>node11&#45;&gt;node12</title>
<path fill="none" stroke="#8b00ff" d="M294.45,-348.21C280.62,-336.57 262.02,-320.92 245.89,-307.36"/>
<polygon fill="#8b00ff" stroke="#8b00ff" points="248.11,-304.65 238.21,-300.89 243.6,-310.01 248.11,-304.65"/>
</g>
<!-- node19 -->
<g id="node20" class="node">
<title>node19</title>
<path fill="#006400" stroke="black" d="M300,-259C300,-259 330,-259 330,-259 336,-259 342,-265 342,-271 342,-271 342,-283 342,-283 342,-289 336,-295 330,-295 330,-295 300,-295 300,-295 294,-295 288,-289 288,-283 288,-283 288,-271 288,-271 288,-265 294,-259 300,-259"/>
<text text-anchor="middle" x="315" y="-273.3" font-family="Times,serif" font-size="14.00">;</text>
</g>
<!-- node11&#45;&gt;node19 -->
<g id="edge19" class="edge">
<title>node11&#45;&gt;node19</title>
<path fill="none" stroke="#006400" d="M315,-348.21C315,-335.99 315,-319.35 315,-305.34"/>
<polygon fill="#006400" stroke="#006400" points="318.5,-305.25 315,-295.25 311.5,-305.25 318.5,-305.25"/>
</g>
<!-- node13 -->
<g id="node14" class="node">
<title>node13</title>
<path fill="#8b00ff" stroke="black" d="M76.5,-169.5C76.5,-169.5 121.5,-169.5 121.5,-169.5 127.5,-169.5 133.5,-175.5 133.5,-181.5 133.5,-181.5 133.5,-193.5 133.5,-193.5 133.5,-199.5 127.5,-205.5 121.5,-205.5 121.5,-205.5 76.5,-205.5 76.5,-205.5 70.5,-205.5 64.5,-199.5 64.5,-193.5 64.5,-193.5 64.5,-181.5 64.5,-181.5 64.5,-175.5 70.5,-169.5 76.5,-169.5"/>
<text text-anchor="middle" x="99" y="-183.8" font-family="Times,serif" font-size="14.00">node13</text>
</g>
<!-- node12&#45;&gt;node13 -->
<g id="edge13" class="edge">
<title>node12&#45;&gt;node13</title>
<path fill="none" stroke="#8b00ff" d="M183.89,-254.82C167.31,-241.87 146.08,-225.28 129,-211.93"/>
<polygon fill="#8b00ff" stroke="#8b00ff" points="131.02,-209.07 120.98,-205.67 126.71,-214.59 131.02,-209.07"/>
</g>
<!-- node16 -->
<g id="node17" class="node">
<title>node16</title>
<path fill="#8b00ff" stroke="black" d="M196,-169.5C196,-169.5 226,-169.5 226,-169.5 232,-169.5 238,-175.5 238,-181.5 238,-181.5 238,-193.5 238,-193.5 238,-199.5 232,-205.5 226,-205.5 226,-205.5 196,-205.5 196,-205.5 190,-205.5 184,-199.5 184,-193.5 184,-193.5 184,-181.5 184,-181.5 184,-175.5 190,-169.5 196,-169.5"/>
<text text-anchor="middle" x="211" y="-183.8" font-family="Times,serif" font-size="14.00">==</text>
</g>
<!-- node12&#45;&gt;node16 -->
<g id="edge16" class="edge">
<title>node12&#45;&gt;node16</title>
<path fill="none" stroke="#8b00ff" d="M211,-242.42C211,-233.61 211,-224.22 211,-215.78"/>
<polygon fill="#8b00ff" stroke="#8b00ff" points="214.5,-215.72 211,-205.72 207.5,-215.72 214.5,-215.72"/>
</g>
<!-- node14 -->
<g id="node15" class="node">
<title>node14</title>
<path fill="#ccff99" stroke="black" d="M12,-96.5C12,-96.5 42,-96.5 42,-96.5 48,-96.5 54,-102.5 54,-108.5 54,-108.5 54,-120.5 54,-120.5 54,-126.5 48,-132.5 42,-132.5 42,-132.5 12,-132.5 12,-132.5 6,-132.5 0,-126.5 0,-120.5 0,-120.5 0,-108.5 0,-108.5 0,-102.5 6,-96.5 12,-96.5"/>
<text text-anchor="middle" x="27" y="-110.8" font-family="Times,serif" font-size="14.00">1</text>
</g>
<!-- node13&#45;&gt;node14 -->
<g id="edge14" class="edge">
<title>node13&#45;&gt;node14</title>
<path fill="none" stroke="#ccff99" d="M81.57,-169.31C72.55,-160.42 61.39,-149.41 51.51,-139.67"/>
<polygon fill="#ccff99" stroke="#ccff99" points="53.85,-137.06 44.27,-132.53 48.93,-142.04 53.85,-137.06"/>
</g>
<!-- node15 -->
<g id="node16" class="node">
<title>node15</title>
<path fill="#00bfff" stroke="black" d="M84,-96.5C84,-96.5 114,-96.5 114,-96.5 120,-96.5 126,-102.5 126,-108.5 126,-108.5 126,-120.5 126,-120.5 126,-126.5 120,-132.5 114,-132.5 114,-132.5 84,-132.5 84,-132.5 78,-132.5 72,-126.5 72,-120.5 72,-120.5 72,-108.5 72,-108.5 72,-102.5 78,-96.5 84,-96.5"/>
<text text-anchor="middle" x="99" y="-110.8" font-family="Times,serif" font-size="14.00">0</text>
</g>
<!-- node13&#45;&gt;node15 -->
<g id="edge15" class="edge">
<title>node13&#45;&gt;node15</title>
<path fill="none" stroke="#00bfff" d="M99,-169.31C99,-161.29 99,-151.55 99,-142.57"/>
<polygon fill="#00bfff" stroke="#00bfff" points="102.5,-142.53 99,-132.53 95.5,-142.53 102.5,-142.53"/>
</g>
<!-- node17 -->
<g id="node18" class="node">
<title>node17</title>
<path fill="#ccff99" stroke="black" d="M156,-96.5C156,-96.5 186,-96.5 186,-96.5 192,-96.5 198,-102.5 198,-108.5 198,-108.5 198,-120.5 198,-120.5 198,-126.5 192,-132.5 186,-132.5 186,-132.5 156,-132.5 156,-132.5 150,-132.5 144,-126.5 144,-120.5 144,-120.5 144,-108.5 144,-108.5 144,-102.5 150,-96.5 156,-96.5"/>
<text text-anchor="middle" x="171" y="-110.8" font-family="Times,serif" font-size="14.00">1</text>
</g>
<!-- node16&#45;&gt;node17 -->
<g id="edge17" class="edge">
<title>node16&#45;&gt;node17</title>
<path fill="none" stroke="#ccff99" d="M201.32,-169.31C196.6,-160.94 190.83,-150.7 185.59,-141.4"/>
<polygon fill="#ccff99" stroke="#ccff99" points="188.55,-139.52 180.59,-132.53 182.45,-142.96 188.55,-139.52"/>
</g>
<!-- node18 -->
<g id="node19" class="node">
<title>node18</title>
<path fill="#00bfff" stroke="black" d="M228,-96.5C228,-96.5 258,-96.5 258,-96.5 264,-96.5 270,-102.5 270,-108.5 270,-108.5 270,-120.5 270,-120.5 270,-126.5 264,-132.5 258,-132.5 258,-132.5 228,-132.5 228,-132.5 222,-132.5 216,-126.5 216,-120.5 216,-120.5 216,-108.5 216,-108.5 216,-102.5 222,-96.5 228,-96.5"/>
<text text-anchor="middle" x="243" y="-110.8" font-family="Times,serif" font-size="14.00">0</text>
</g>
<!-- node16&#45;&gt;node18 -->
<g id="edge18" class="edge">
<title>node16&#45;&gt;node18</title>
<path fill="none" stroke="#00bfff" d="M218.75,-169.31C222.48,-161.03 227.04,-150.91 231.19,-141.69"/>
<polygon fill="#00bfff" stroke="#00bfff" points="234.41,-143.08 235.33,-132.53 228.03,-140.21 234.41,-143.08"/>
</g>
<!-- node20 -->
<g id="node21" class="node">
<title>node20</title>
<path fill="#8b00ff" stroke="black" d="M300,-169.5C300,-169.5 330,-169.5 330,-169.5 336,-169.5 342,-175.5 342,-181.5 342,-181.5 342,-193.5 342,-193.5 342,-199.5 336,-205.5 330,-205.5 330,-205.5 300,-205.5 300,-205.5 294,-205.5 288,-199.5 288,-193.5 288,-193.5 288,-181.5 288,-181.5 288,-175.5 294,-169.5 300,-169.5"/>
<text text-anchor="middle" x="315" y="-183.8" font-family="Times,serif" font-size="14.00">print</text>
</g>
<!-- node19&#45;&gt;node20 -->
<g id="edge20" class="edge">
<title>node19&#45;&gt;node20</title>
<path fill="none" stroke="#8b00ff" d="M315,-258.71C315,-246.49 315,-229.85 315,-215.84"/>
<polygon fill="#8b00ff" stroke="#8b00ff" points="318.5,-215.75 315,-205.75 311.5,-215.75 318.5,-215.75"/>
</g>
<!-- node21 -->
<g id="node22" class="node">
<title>node21</title>
<path fill="#ccff99" stroke="black" d="M300,-96.5C300,-96.5 330,-96.5 330,-96.5 336,-96.5 342,-102.5 342,-108.5 342,-108.5 342,-120.5 342,-120.5 342,-126.5 336,-132.5 330,-132.5 330,-132.5 300,-132.5 300,-132.5 294,-132.5 288,-126.5 288,-120.5 288,-120.5 288,-108.5 288,-108.5 288,-102.5 294,-96.5 300,-96.5"/>
<text text-anchor="middle" x="315" y="-110.8" font-family="Times,serif" font-size="14.00">2</text>
</g>
<!-- node20&#45;&gt;node21 -->
<g id="edge21" class="edge">
<title>node20&#45;&gt;node21</title>
<path fill="none" stroke="#ccff99" d="M315,-169.31C315,-161.29 315,-151.55 315,-142.57"/>
<polygon fill="#ccff99" stroke="#ccff99" points="318.5,-142.53 315,-132.53 311.5,-142.53 318.5,-142.53"/>
</g>
<!-- node23 -->
<g id="node24" class="node">
<title>node23</title>
<path fill="#ffffff" stroke="black" d="M513,-259C513,-259 547,-259 547,-259 553,-259 559,-265 559,-271 559,-271 559,-283 559,-283 559,-289 553,-295 547,-295 547,-295 513,-295 513,-295 507,-295 501,-289 501,-283 501,-283 501,-271 501,-271 501,-265 507,-259 513,-259"/>
<text text-anchor="middle" x="530" y="-273.3" font-family="Times,serif" font-size="14.00">op_no</text>
</g>
<!-- node22&#45;&gt;node23 -->
<g id="edge23" class="edge">
<title>node22&#45;&gt;node23</title>
<path fill="none" stroke="#ffffff" d="M559.69,-348.21C554.42,-335.75 547.21,-318.7 541.21,-304.52"/>
<polygon fill="#ffffff" stroke="#ffffff" points="544.41,-303.1 537.29,-295.25 537.97,-305.82 544.41,-303.1"/>
</g>
<!-- node30 -->
<g id="node31" class="node">
<title>node30</title>
<path fill="#006400" stroke="black" d="M589,-259C589,-259 619,-259 619,-259 625,-259 631,-265 631,-271 631,-271 631,-283 631,-283 631,-289 625,-295 619,-295 619,-295 589,-295 589,-295 583,-295 577,-289 577,-283 577,-283 577,-271 577,-271 577,-265 583,-259 589,-259"/>
<text text-anchor="middle" x="604" y="-273.3" font-family="Times,serif" font-size="14.00">;</text>
</g>
<!-- node22&#45;&gt;node30 -->
<g id="edge30" class="edge">
<title>node22&#45;&gt;node30</title>
<path fill="none" stroke="#006400" d="M574.31,-348.21C579.58,-335.75 586.79,-318.7 592.79,-304.52"/>
<polygon fill="#006400" stroke="#006400" points="596.03,-305.82 596.71,-295.25 589.59,-303.1 596.03,-305.82"/>
</g>
<!-- node24 -->
<g id="node25" class="node">
<title>node24</title>
<path fill="#8b00ff" stroke="black" d="M444,-169.5C444,-169.5 474,-169.5 474,-169.5 480,-169.5 486,-175.5 486,-181.5 486,-181.5 486,-193.5 486,-193.5 486,-199.5 480,-205.5 474,-205.5 474,-205.5 444,-205.5 444,-205.5 438,-205.5 432,-199.5 432,-193.5 432,-193.5 432,-181.5 432,-181.5 432,-175.5 438,-169.5 444,-169.5"/>
<text text-anchor="middle" x="459" y="-183.8" font-family="Times,serif" font-size="14.00">==</text>
</g>
<!-- node23&#45;&gt;node24 -->
<g id="edge24" class="edge">
<title>node23&#45;&gt;node24</title>
<path fill="none" stroke="#8b00ff" d="M515.97,-258.71C505.57,-245.89 491.22,-228.21 479.53,-213.8"/>
<polygon fill="#8b00ff" stroke="#8b00ff" points="482.02,-211.31 473,-205.75 476.58,-215.72 482.02,-211.31"/>
</g>
<!-- node27 -->
<g id="node28" class="node">
<title>node27</title>
<path fill="#006400" stroke="black" d="M516,-169.5C516,-169.5 546,-169.5 546,-169.5 552,-169.5 558,-175.5 558,-181.5 558,-181.5 558,-193.5 558,-193.5 558,-199.5 552,-205.5 546,-205.5 546,-205.5 516,-205.5 516,-205.5 510,-205.5 504,-199.5 504,-193.5 504,-193.5 504,-181.5 504,-181.5 504,-175.5 510,-169.5 516,-169.5"/>
<text text-anchor="middle" x="531" y="-183.8" font-family="Times,serif" font-size="14.00">;</text>
</g>
<!-- node23&#45;&gt;node27 -->
<g id="edge27" class="edge">
<title>node23&#45;&gt;node27</title>
<path fill="none" stroke="#006400" d="M530.2,-258.71C530.34,-246.49 530.53,-229.85 530.69,-215.84"/>
<polygon fill="#006400" stroke="#006400" points="534.19,-215.79 530.8,-205.75 527.19,-215.71 534.19,-215.79"/>
</g>
<!-- node25 -->
<g id="node26" class="node">
<title>node25</title>
<path fill="#ccff99" stroke="black" d="M372,-96.5C372,-96.5 402,-96.5 402,-96.5 408,-96.5 414,-102.5 414,-108.5 414,-108.5 414,-120.5 414,-120.5 414,-126.5 408,-132.5 402,-132.5 402,-132.5 372,-132.5 372,-132.5 366,-132.5 360,-126.5 360,-120.5 360,-120.5 360,-108.5 360,-108.5 360,-102.5 366,-96.5 372,-96.5"/>
<text text-anchor="middle" x="387" y="-110.8" font-family="Times,serif" font-size="14.00">1</text>
</g>
<!-- node24&#45;&gt;node25 -->
<g id="edge25" class="edge">
<title>node24&#45;&gt;node25</title>
<path fill="none" stroke="#ccff99" d="M441.57,-169.31C432.55,-160.42 421.39,-149.41 411.51,-139.67"/>
<polygon fill="#ccff99" stroke="#ccff99" points="413.85,-137.06 404.27,-132.53 408.93,-142.04 413.85,-137.06"/>
</g>
<!-- node26 -->
<g id="node27" class="node">
<title>node26</title>
<path fill="#00bfff" stroke="black" d="M444,-96.5C444,-96.5 474,-96.5 474,-96.5 480,-96.5 486,-102.5 486,-108.5 486,-108.5 486,-120.5 486,-120.5 486,-126.5 480,-132.5 474,-132.5 474,-132.5 444,-132.5 444,-132.5 438,-132.5 432,-126.5 432,-120.5 432,-120.5 432,-108.5 432,-108.5 432,-102.5 438,-96.5 444,-96.5"/>
<text text-anchor="middle" x="459" y="-110.8" font-family="Times,serif" font-size="14.00">1</text>
</g>
<!-- node24&#45;&gt;node26 -->
<g id="edge26" class="edge">
<title>node24&#45;&gt;node26</title>
<path fill="none" stroke="#00bfff" d="M459,-169.31C459,-161.29 459,-151.55 459,-142.57"/>
<polygon fill="#00bfff" stroke="#00bfff" points="462.5,-142.53 459,-132.53 455.5,-142.53 462.5,-142.53"/>
</g>
<!-- node28 -->
<g id="node29" class="node">
<title>node28</title>
<path fill="#8b00ff" stroke="black" d="M516,-96.5C516,-96.5 546,-96.5 546,-96.5 552,-96.5 558,-102.5 558,-108.5 558,-108.5 558,-120.5 558,-120.5 558,-126.5 552,-132.5 546,-132.5 546,-132.5 516,-132.5 516,-132.5 510,-132.5 504,-126.5 504,-120.5 504,-120.5 504,-108.5 504,-108.5 504,-102.5 510,-96.5 516,-96.5"/>
<text text-anchor="middle" x="531" y="-110.8" font-family="Times,serif" font-size="14.00">print</text>
</g>
<!-- node27&#45;&gt;node28 -->
<g id="edge28" class="edge">
<title>node27&#45;&gt;node28</title>
<path fill="none" stroke="#8b00ff" d="M531,-169.31C531,-161.29 531,-151.55 531,-142.57"/>
<polygon fill="#8b00ff" stroke="#8b00ff" points="534.5,-142.53 531,-132.53 527.5,-142.53 534.5,-142.53"/>
</g>
<!-- node29 -->
<g id="node30" class="node">
<title>node29</title>
<path fill="#ccff99" stroke="black" d="M516,-23.5C516,-23.5 546,-23.5 546,-23.5 552,-23.5 558,-29.5 558,-35.5 558,-35.5 558,-47.5 558,-47.5 558,-53.5 552,-59.5 546,-59.5 546,-59.5 516,-59.5 516,-59.5 510,-59.5 504,-53.5 504,-47.5 504,-47.5 504,-35.5 504,-35.5 504,-29.5 510,-23.5 516,-23.5"/>
<text text-anchor="middle" x="531" y="-37.8" font-family="Times,serif" font-size="14.00">1</text>
</g>
<!-- node28&#45;&gt;node29 -->
<g id="edge29" class="edge">
<title>node28&#45;&gt;node29</title>
<path fill="none" stroke="#ccff99" d="M531,-96.31C531,-88.29 531,-78.55 531,-69.57"/>
<polygon fill="#ccff99" stroke="#ccff99" points="534.5,-69.53 531,-59.53 527.5,-69.53 534.5,-69.53"/>
</g>
<!-- node31 -->
<g id="node32" class="node">
<title>node31</title>
<path fill="#8b00ff" stroke="black" d="M589,-169.5C589,-169.5 619,-169.5 619,-169.5 625,-169.5 631,-175.5 631,-181.5 631,-181.5 631,-193.5 631,-193.5 631,-199.5 625,-205.5 619,-205.5 619,-205.5 589,-205.5 589,-205.5 583,-205.5 577,-199.5 577,-193.5 577,-193.5 577,-181.5 577,-181.5 577,-175.5 583,-169.5 589,-169.5"/>
<text text-anchor="middle" x="604" y="-183.8" font-family="Times,serif" font-size="14.00">=</text>
</g>
<!-- node30&#45;&gt;node31 -->
<g id="edge31" class="edge">
<title>node30&#45;&gt;node31</title>
<path fill="none" stroke="#8b00ff" d="M604,-258.71C604,-246.49 604,-229.85 604,-215.84"/>
<polygon fill="#8b00ff" stroke="#8b00ff" points="607.5,-215.75 604,-205.75 600.5,-215.75 607.5,-215.75"/>
</g>
<!-- node36 -->
<g id="node37" class="node">
<title>node36</title>
<path fill="#006400" stroke="black" d="M699,-169.5C699,-169.5 729,-169.5 729,-169.5 735,-169.5 741,-175.5 741,-181.5 741,-181.5 741,-193.5 741,-193.5 741,-199.5 735,-205.5 729,-205.5 729,-205.5 699,-205.5 699,-205.5 693,-205.5 687,-199.5 687,-193.5 687,-193.5 687,-181.5 687,-181.5 687,-175.5 693,-169.5 699,-169.5"/>
<text text-anchor="middle" x="714" y="-183.8" font-family="Times,serif" font-size="14.00">;</text>
</g>
<!-- node30&#45;&gt;node36 -->
<g id="edge36" class="edge">
<title>node30&#45;&gt;node36</title>
<path fill="none" stroke="#006400" d="M621.16,-258.92C626.99,-253.36 633.64,-247.26 640,-242 652.82,-231.39 667.58,-220.48 680.52,-211.3"/>
<polygon fill="#006400" stroke="#006400" points="682.55,-214.16 688.72,-205.55 678.53,-208.43 682.55,-214.16"/>
</g>
<!-- node32 -->
<g id="node33" class="node">
<title>node32</title>
<path fill="#ccff99" stroke="black" d="M588,-96.5C588,-96.5 618,-96.5 618,-96.5 624,-96.5 630,-102.5 630,-108.5 630,-108.5 630,-120.5 630,-120.5 630,-126.5 624,-132.5 618,-132.5 618,-132.5 588,-132.5 588,-132.5 582,-132.5 576,-126.5 576,-120.5 576,-120.5 576,-108.5 576,-108.5 576,-102.5 582,-96.5 588,-96.5"/>
<text text-anchor="middle" x="603" y="-110.8" font-family="Times,serif" font-size="14.00">3</text>
</g>
<!-- node31&#45;&gt;node32 -->
<g id="edge32" class="edge">
<title>node31&#45;&gt;node32</title>
<path fill="none" stroke="#ccff99" d="M603.76,-169.31C603.64,-161.29 603.51,-151.55 603.38,-142.57"/>
<polygon fill="#ccff99" stroke="#ccff99" points="606.88,-142.48 603.24,-132.53 599.88,-142.58 606.88,-142.48"/>
</g>
<!-- node33 -->
<g id="node34" class="node">
<title>node33</title>
<ellipse fill="none" stroke="black" cx="693" cy="-114.5" rx="44.69" ry="18"/>
<text text-anchor="middle" x="693" y="-110.8" font-family="Times,serif" font-size="14.00">node33</text>
</g>
<!-- node31&#45;&gt;node33 -->
<g id="edge33" class="edge">
<title>node31&#45;&gt;node33</title>
<path fill="none" stroke="#000000" d="M625.54,-169.31C637.61,-159.68 652.79,-147.58 665.68,-137.29"/>
<polygon fill="#000000" stroke="#000000" points="668.14,-139.81 673.77,-130.84 663.77,-134.34 668.14,-139.81"/>
</g>
<!-- node34 -->
<g id="node35" class="node">
<title>node34</title>
<path fill="#ccff99" stroke="black" d="M615,-23.5C615,-23.5 645,-23.5 645,-23.5 651,-23.5 657,-29.5 657,-35.5 657,-35.5 657,-47.5 657,-47.5 657,-53.5 651,-59.5 645,-59.5 645,-59.5 615,-59.5 615,-59.5 609,-59.5 603,-53.5 603,-47.5 603,-47.5 603,-35.5 603,-35.5 603,-29.5 609,-23.5 615,-23.5"/>
<text text-anchor="middle" x="630" y="-37.8" font-family="Times,serif" font-size="14.00">1</text>
</g>
<!-- node33&#45;&gt;node34 -->
<g id="edge34" class="edge">
<title>node33&#45;&gt;node34</title>
<path fill="none" stroke="#ccff99" d="M678.7,-97.39C670.8,-88.48 660.81,-77.22 651.93,-67.22"/>
<polygon fill="#ccff99" stroke="#ccff99" points="654.37,-64.69 645.12,-59.54 649.14,-69.34 654.37,-64.69"/>
</g>
<!-- node35 -->
<g id="node36" class="node">
<title>node35</title>
<path fill="#ccff99" stroke="black" d="M687,-23.5C687,-23.5 717,-23.5 717,-23.5 723,-23.5 729,-29.5 729,-35.5 729,-35.5 729,-47.5 729,-47.5 729,-53.5 723,-59.5 717,-59.5 717,-59.5 687,-59.5 687,-59.5 681,-59.5 675,-53.5 675,-47.5 675,-47.5 675,-35.5 675,-35.5 675,-29.5 681,-23.5 687,-23.5"/>
<text text-anchor="middle" x="702" y="-37.8" font-family="Times,serif" font-size="14.00">4</text>
</g>
<!-- node33&#45;&gt;node35 -->
<g id="edge35" class="edge">
<title>node33&#45;&gt;node35</title>
<path fill="none" stroke="#ccff99" d="M695.18,-96.31C696.2,-88.29 697.43,-78.55 698.57,-69.57"/>
<polygon fill="#ccff99" stroke="#ccff99" points="702.06,-69.89 699.84,-59.53 695.11,-69.01 702.06,-69.89"/>
</g>
<!-- node37 -->
<g id="node38" class="node">
<title>node37</title>
<path fill="#8b00ff" stroke="black" d="M768,-96.5C768,-96.5 798,-96.5 798,-96.5 804,-96.5 810,-102.5 810,-108.5 810,-108.5 810,-120.5 810,-120.5 810,-126.5 804,-132.5 798,-132.5 798,-132.5 768,-132.5 768,-132.5 762,-132.5 756,-126.5 756,-120.5 756,-120.5 756,-108.5 756,-108.5 756,-102.5 762,-96.5 768,-96.5"/>
<text text-anchor="middle" x="783" y="-110.8" font-family="Times,serif" font-size="14.00">print</text>
</g>
<!-- node36&#45;&gt;node37 -->
<g id="edge37" class="edge">
<title>node36&#45;&gt;node37</title>
<path fill="none" stroke="#8b00ff" d="M730.7,-169.31C739.26,-160.5 749.84,-149.63 759.23,-139.96"/>
<polygon fill="#8b00ff" stroke="#8b00ff" points="761.99,-142.14 766.45,-132.53 756.97,-137.26 761.99,-142.14"/>
</g>
<!-- node38 -->
<g id="node39" class="node">
<title>node38</title>
<path fill="#ccff99" stroke="black" d="M768,-23.5C768,-23.5 798,-23.5 798,-23.5 804,-23.5 810,-29.5 810,-35.5 810,-35.5 810,-47.5 810,-47.5 810,-53.5 804,-59.5 798,-59.5 798,-59.5 768,-59.5 768,-59.5 762,-59.5 756,-53.5 756,-47.5 756,-47.5 756,-35.5 756,-35.5 756,-29.5 762,-23.5 768,-23.5"/>
<text text-anchor="middle" x="783" y="-37.8" font-family="Times,serif" font-size="14.00">3</text>
</g>
<!-- node37&#45;&gt;node38 -->
<g id="edge38" class="edge">
<title>node37&#45;&gt;node38</title>
<path fill="none" stroke="#ccff99" d="M783,-96.31C783,-88.29 783,-78.55 783,-69.57"/>
<polygon fill="#ccff99" stroke="#ccff99" points="786.5,-69.53 783,-59.53 779.5,-69.53 786.5,-69.53"/>
</g>
<!-- node40 -->
<g id="node41" class="node">
<title>node40</title>
<path fill="#ff0000" stroke="black" d="M698,-640.5C698,-640.5 728,-640.5 728,-640.5 734,-640.5 740,-646.5 740,-652.5 740,-652.5 740,-664.5 740,-664.5 740,-670.5 734,-676.5 728,-676.5 728,-676.5 698,-676.5 698,-676.5 692,-676.5 686,-670.5 686,-664.5 686,-664.5 686,-652.5 686,-652.5 686,-646.5 692,-640.5 698,-640.5"/>
<text text-anchor="middle" x="713" y="-654.8" font-family="Times,serif" font-size="14.00">4</text>
</g>
<!-- node39&#45;&gt;node40 -->
<g id="edge40" class="edge">
<title>node39&#45;&gt;node40</title>
<path fill="none" stroke="#ff0000" d="M713,-713.31C713,-705.29 713,-695.55 713,-686.57"/>
<polygon fill="#ff0000" stroke="#ff0000" points="716.5,-686.53 713,-676.53 709.5,-686.53 716.5,-686.53"/>
</g>
<!-- node68 -->
<g id="node69" class="node">
<title>node68</title>
<path fill="#006400" stroke="black" d="M770,-640.5C770,-640.5 800,-640.5 800,-640.5 806,-640.5 812,-646.5 812,-652.5 812,-652.5 812,-664.5 812,-664.5 812,-670.5 806,-676.5 800,-676.5 800,-676.5 770,-676.5 770,-676.5 764,-676.5 758,-670.5 758,-664.5 758,-664.5 758,-652.5 758,-652.5 758,-646.5 764,-640.5 770,-640.5"/>
<text text-anchor="middle" x="785" y="-654.8" font-family="Times,serif" font-size="14.00">;</text>
</g>
<!-- node39&#45;&gt;node68 -->
<g id="edge68" class="edge">
<title>node39&#45;&gt;node68</title>
<path fill="none" stroke="#006400" d="M730.43,-713.31C739.45,-704.42 750.61,-693.41 760.49,-683.67"/>
<polygon fill="#006400" stroke="#006400" points="763.07,-686.04 767.73,-676.53 758.15,-681.06 763.07,-686.04"/>
</g>
<!-- node41 -->
<g id="node42" class="node">
<title>node41</title>
<path fill="#ccff99" stroke="black" d="M698,-567.5C698,-567.5 728,-567.5 728,-567.5 734,-567.5 740,-573.5 740,-579.5 740,-579.5 740,-591.5 740,-591.5 740,-597.5 734,-603.5 728,-603.5 728,-603.5 698,-603.5 698,-603.5 692,-603.5 686,-597.5 686,-591.5 686,-591.5 686,-579.5 686,-579.5 686,-573.5 692,-567.5 698,-567.5"/>
<text text-anchor="middle" x="713" y="-581.8" font-family="Times,serif" font-size="14.00">1</text>
</g>
<!-- node40&#45;&gt;node41 -->
<g id="edge41" class="edge">
<title>node40&#45;&gt;node41</title>
<path fill="none" stroke="#ccff99" d="M713,-640.31C713,-632.29 713,-622.55 713,-613.57"/>
<polygon fill="#ccff99" stroke="#ccff99" points="716.5,-613.53 713,-603.53 709.5,-613.53 716.5,-613.53"/>
</g>
<!-- node42 -->
<g id="node43" class="node">
<title>node42</title>
<path fill="#006400" stroke="black" d="M806,-567.5C806,-567.5 836,-567.5 836,-567.5 842,-567.5 848,-573.5 848,-579.5 848,-579.5 848,-591.5 848,-591.5 848,-597.5 842,-603.5 836,-603.5 836,-603.5 806,-603.5 806,-603.5 800,-603.5 794,-597.5 794,-591.5 794,-591.5 794,-579.5 794,-579.5 794,-573.5 800,-567.5 806,-567.5"/>
<text text-anchor="middle" x="821" y="-581.8" font-family="Times,serif" font-size="14.00">;</text>
</g>
<!-- node40&#45;&gt;node42 -->
<g id="edge42" class="edge">
<title>node40&#45;&gt;node42</title>
<path fill="none" stroke="#006400" d="M738.87,-640.49C753.06,-631.17 770.84,-619.47 786.23,-609.36"/>
<polygon fill="#006400" stroke="#006400" points="788.53,-612.03 794.97,-603.61 784.69,-606.18 788.53,-612.03"/>
</g>
<!-- node43 -->
<g id="node44" class="node">
<title>node43</title>
<path fill="#8b00ff" stroke="black" d="M806,-494.5C806,-494.5 836,-494.5 836,-494.5 842,-494.5 848,-500.5 848,-506.5 848,-506.5 848,-518.5 848,-518.5 848,-524.5 842,-530.5 836,-530.5 836,-530.5 806,-530.5 806,-530.5 800,-530.5 794,-524.5 794,-518.5 794,-518.5 794,-506.5 794,-506.5 794,-500.5 800,-494.5 806,-494.5"/>
<text text-anchor="middle" x="821" y="-508.8" font-family="Times,serif" font-size="14.00">if</text>
</g>
<!-- node42&#45;&gt;node43 -->
<g id="edge43" class="edge">
<title>node42&#45;&gt;node43</title>
<path fill="none" stroke="#8b00ff" d="M821,-567.31C821,-559.29 821,-549.55 821,-540.57"/>
<polygon fill="#8b00ff" stroke="#8b00ff" points="824.5,-540.53 821,-530.53 817.5,-540.53 824.5,-540.53"/>
</g>
<!-- node51 -->
<g id="node52" class="node">
<title>node51</title>
<path fill="#006400" stroke="black" d="M882,-494.5C882,-494.5 912,-494.5 912,-494.5 918,-494.5 924,-500.5 924,-506.5 924,-506.5 924,-518.5 924,-518.5 924,-524.5 918,-530.5 912,-530.5 912,-530.5 882,-530.5 882,-530.5 876,-530.5 870,-524.5 870,-518.5 870,-518.5 870,-506.5 870,-506.5 870,-500.5 876,-494.5 882,-494.5"/>
<text text-anchor="middle" x="897" y="-508.8" font-family="Times,serif" font-size="14.00">;</text>
</g>
<!-- node42&#45;&gt;node51 -->
<g id="edge51" class="edge">
<title>node42&#45;&gt;node51</title>
<path fill="none" stroke="#006400" d="M839.4,-567.31C849.01,-558.33 860.93,-547.19 871.43,-537.39"/>
<polygon fill="#006400" stroke="#006400" points="873.85,-539.91 878.77,-530.53 869.08,-534.8 873.85,-539.91"/>
</g>
<!-- node44 -->
<g id="node45" class="node">
<title>node44</title>
<path fill="#ffffff" stroke="black" d="M804,-421.5C804,-421.5 838,-421.5 838,-421.5 844,-421.5 850,-427.5 850,-433.5 850,-433.5 850,-445.5 850,-445.5 850,-451.5 844,-457.5 838,-457.5 838,-457.5 804,-457.5 804,-457.5 798,-457.5 792,-451.5 792,-445.5 792,-445.5 792,-433.5 792,-433.5 792,-427.5 798,-421.5 804,-421.5"/>
<text text-anchor="middle" x="821" y="-435.8" font-family="Times,serif" font-size="14.00">op_no</text>
</g>
<!-- node43&#45;&gt;node44 -->
<g id="edge44" class="edge">
<title>node43&#45;&gt;node44</title>
<path fill="none" stroke="#ffffff" d="M821,-494.31C821,-486.29 821,-476.55 821,-467.57"/>
<polygon fill="#ffffff" stroke="#ffffff" points="824.5,-467.53 821,-457.53 817.5,-467.53 824.5,-467.53"/>
</g>
<!-- node45 -->
<g id="node46" class="node">
<title>node45</title>
<path fill="#8b00ff" stroke="black" d="M733,-348.5C733,-348.5 763,-348.5 763,-348.5 769,-348.5 775,-354.5 775,-360.5 775,-360.5 775,-372.5 775,-372.5 775,-378.5 769,-384.5 763,-384.5 763,-384.5 733,-384.5 733,-384.5 727,-384.5 721,-378.5 721,-372.5 721,-372.5 721,-360.5 721,-360.5 721,-354.5 727,-348.5 733,-348.5"/>
<text text-anchor="middle" x="748" y="-362.8" font-family="Times,serif" font-size="14.00">==</text>
</g>
<!-- node44&#45;&gt;node45 -->
<g id="edge45" class="edge">
<title>node44&#45;&gt;node45</title>
<path fill="none" stroke="#8b00ff" d="M803.33,-421.31C794.18,-412.42 782.86,-401.41 772.85,-391.67"/>
<polygon fill="#8b00ff" stroke="#8b00ff" points="775.12,-388.99 765.51,-384.53 770.24,-394.01 775.12,-388.99"/>
</g>
<!-- node48 -->
<g id="node49" class="node">
<title>node48</title>
<path fill="#006400" stroke="black" d="M807,-348.5C807,-348.5 837,-348.5 837,-348.5 843,-348.5 849,-354.5 849,-360.5 849,-360.5 849,-372.5 849,-372.5 849,-378.5 843,-384.5 837,-384.5 837,-384.5 807,-384.5 807,-384.5 801,-384.5 795,-378.5 795,-372.5 795,-372.5 795,-360.5 795,-360.5 795,-354.5 801,-348.5 807,-348.5"/>
<text text-anchor="middle" x="822" y="-362.8" font-family="Times,serif" font-size="14.00">;</text>
</g>
<!-- node44&#45;&gt;node48 -->
<g id="edge48" class="edge">
<title>node44&#45;&gt;node48</title>
<path fill="none" stroke="#006400" d="M821.24,-421.31C821.36,-413.29 821.49,-403.55 821.62,-394.57"/>
<polygon fill="#006400" stroke="#006400" points="825.12,-394.58 821.76,-384.53 818.12,-394.48 825.12,-394.58"/>
</g>
<!-- node46 -->
<g id="node47" class="node">
<title>node46</title>
<path fill="#ccff99" stroke="black" d="M661,-259C661,-259 691,-259 691,-259 697,-259 703,-265 703,-271 703,-271 703,-283 703,-283 703,-289 697,-295 691,-295 691,-295 661,-295 661,-295 655,-295 649,-289 649,-283 649,-283 649,-271 649,-271 649,-265 655,-259 661,-259"/>
<text text-anchor="middle" x="676" y="-273.3" font-family="Times,serif" font-size="14.00">1</text>
</g>
<!-- node45&#45;&gt;node46 -->
<g id="edge46" class="edge">
<title>node45&#45;&gt;node46</title>
<path fill="none" stroke="#ccff99" d="M733.78,-348.21C723.22,-335.39 708.67,-317.71 696.82,-303.3"/>
<polygon fill="#ccff99" stroke="#ccff99" points="699.25,-300.75 690.2,-295.25 693.85,-305.2 699.25,-300.75"/>
</g>
<!-- node47 -->
<g id="node48" class="node">
<title>node47</title>
<path fill="#00bfff" stroke="black" d="M733,-259C733,-259 763,-259 763,-259 769,-259 775,-265 775,-271 775,-271 775,-283 775,-283 775,-289 769,-295 763,-295 763,-295 733,-295 733,-295 727,-295 721,-289 721,-283 721,-283 721,-271 721,-271 721,-265 727,-259 733,-259"/>
<text text-anchor="middle" x="748" y="-273.3" font-family="Times,serif" font-size="14.00">1</text>
</g>
<!-- node45&#45;&gt;node47 -->
<g id="edge47" class="edge">
<title>node45&#45;&gt;node47</title>
<path fill="none" stroke="#00bfff" d="M748,-348.21C748,-335.99 748,-319.35 748,-305.34"/>
<polygon fill="#00bfff" stroke="#00bfff" points="751.5,-305.25 748,-295.25 744.5,-305.25 751.5,-305.25"/>
</g>
<!-- node49 -->
<g id="node50" class="node">
<title>node49</title>
<path fill="#8b00ff" stroke="black" d="M805,-259C805,-259 843,-259 843,-259 849,-259 855,-265 855,-271 855,-271 855,-283 855,-283 855,-289 849,-295 843,-295 843,-295 805,-295 805,-295 799,-295 793,-289 793,-283 793,-283 793,-271 793,-271 793,-265 799,-259 805,-259"/>
<text text-anchor="middle" x="824" y="-273.3" font-family="Times,serif" font-size="14.00">return</text>
</g>
<!-- node48&#45;&gt;node49 -->
<g id="edge49" class="edge">
<title>node48&#45;&gt;node49</title>
<path fill="none" stroke="#8b00ff" d="M822.4,-348.21C822.67,-335.99 823.05,-319.35 823.38,-305.34"/>
<polygon fill="#8b00ff" stroke="#8b00ff" points="826.88,-305.33 823.61,-295.25 819.88,-305.17 826.88,-305.33"/>
</g>
<!-- node50 -->
<g id="node51" class="node">
<title>node50</title>
<path fill="#ccff99" stroke="black" d="M809,-169.5C809,-169.5 839,-169.5 839,-169.5 845,-169.5 851,-175.5 851,-181.5 851,-181.5 851,-193.5 851,-193.5 851,-199.5 845,-205.5 839,-205.5 839,-205.5 809,-205.5 809,-205.5 803,-205.5 797,-199.5 797,-193.5 797,-193.5 797,-181.5 797,-181.5 797,-175.5 803,-169.5 809,-169.5"/>
<text text-anchor="middle" x="824" y="-183.8" font-family="Times,serif" font-size="14.00">1</text>
</g>
<!-- node49&#45;&gt;node50 -->
<g id="edge50" class="edge">
<title>node49&#45;&gt;node50</title>
<path fill="none" stroke="#ccff99" d="M824,-258.71C824,-246.49 824,-229.85 824,-215.84"/>
<polygon fill="#ccff99" stroke="#ccff99" points="827.5,-215.75 824,-205.75 820.5,-215.75 827.5,-215.75"/>
</g>
<!-- node52 -->
<g id="node53" class="node">
<title>node52</title>
<path fill="#8b00ff" stroke="black" d="M882,-421.5C882,-421.5 912,-421.5 912,-421.5 918,-421.5 924,-427.5 924,-433.5 924,-433.5 924,-445.5 924,-445.5 924,-451.5 918,-457.5 912,-457.5 912,-457.5 882,-457.5 882,-457.5 876,-457.5 870,-451.5 870,-445.5 870,-445.5 870,-433.5 870,-433.5 870,-427.5 876,-421.5 882,-421.5"/>
<text text-anchor="middle" x="897" y="-435.8" font-family="Times,serif" font-size="14.00">=</text>
</g>
<!-- node51&#45;&gt;node52 -->
<g id="edge52" class="edge">
<title>node51&#45;&gt;node52</title>
<path fill="none" stroke="#8b00ff" d="M897,-494.31C897,-486.29 897,-476.55 897,-467.57"/>
<polygon fill="#8b00ff" stroke="#8b00ff" points="900.5,-467.53 897,-457.53 893.5,-467.53 900.5,-467.53"/>
</g>
<!-- node57 -->
<g id="node58" class="node">
<title>node57</title>
<path fill="#006400" stroke="black" d="M1048,-421.5C1048,-421.5 1078,-421.5 1078,-421.5 1084,-421.5 1090,-427.5 1090,-433.5 1090,-433.5 1090,-445.5 1090,-445.5 1090,-451.5 1084,-457.5 1078,-457.5 1078,-457.5 1048,-457.5 1048,-457.5 1042,-457.5 1036,-451.5 1036,-445.5 1036,-445.5 1036,-433.5 1036,-433.5 1036,-427.5 1042,-421.5 1048,-421.5"/>
<text text-anchor="middle" x="1063" y="-435.8" font-family="Times,serif" font-size="14.00">;</text>
</g>
<!-- node51&#45;&gt;node57 -->
<g id="edge57" class="edge">
<title>node51&#45;&gt;node57</title>
<path fill="none" stroke="#006400" d="M924.04,-499.93C951.89,-488.02 995.49,-469.38 1026.41,-456.15"/>
<polygon fill="#006400" stroke="#006400" points="1028.15,-459.21 1035.97,-452.06 1025.4,-452.77 1028.15,-459.21"/>
</g>
<!-- node53 -->
<g id="node54" class="node">
<title>node53</title>
<path fill="#ccff99" stroke="black" d="M881,-348.5C881,-348.5 911,-348.5 911,-348.5 917,-348.5 923,-354.5 923,-360.5 923,-360.5 923,-372.5 923,-372.5 923,-378.5 917,-384.5 911,-384.5 911,-384.5 881,-384.5 881,-384.5 875,-384.5 869,-378.5 869,-372.5 869,-372.5 869,-360.5 869,-360.5 869,-354.5 875,-348.5 881,-348.5"/>
<text text-anchor="middle" x="896" y="-362.8" font-family="Times,serif" font-size="14.00">5</text>
</g>
<!-- node52&#45;&gt;node53 -->
<g id="edge53" class="edge">
<title>node52&#45;&gt;node53</title>
<path fill="none" stroke="#ccff99" d="M896.76,-421.31C896.64,-413.29 896.51,-403.55 896.38,-394.57"/>
<polygon fill="#ccff99" stroke="#ccff99" points="899.88,-394.48 896.24,-384.53 892.88,-394.58 899.88,-394.48"/>
</g>
<!-- node54 -->
<g id="node55" class="node">
<title>node54</title>
<path fill="#8b00ff" stroke="black" d="M953,-348.5C953,-348.5 983,-348.5 983,-348.5 989,-348.5 995,-354.5 995,-360.5 995,-360.5 995,-372.5 995,-372.5 995,-378.5 989,-384.5 983,-384.5 983,-384.5 953,-384.5 953,-384.5 947,-384.5 941,-378.5 941,-372.5 941,-372.5 941,-360.5 941,-360.5 941,-354.5 947,-348.5 953,-348.5"/>
<text text-anchor="middle" x="968" y="-362.8" font-family="Times,serif" font-size="14.00">&#45;</text>
</g>
<!-- node52&#45;&gt;node54 -->
<g id="edge54" class="edge">
<title>node52&#45;&gt;node54</title>
<path fill="none" stroke="#8b00ff" d="M914.19,-421.31C923.08,-412.42 934.09,-401.41 943.83,-391.67"/>
<polygon fill="#8b00ff" stroke="#8b00ff" points="946.37,-394.07 950.97,-384.53 941.43,-389.13 946.37,-394.07"/>
</g>
<!-- node55 -->
<g id="node56" class="node">
<title>node55</title>
<path fill="#ccff99" stroke="black" d="M885,-259C885,-259 915,-259 915,-259 921,-259 927,-265 927,-271 927,-271 927,-283 927,-283 927,-289 921,-295 915,-295 915,-295 885,-295 885,-295 879,-295 873,-289 873,-283 873,-283 873,-271 873,-271 873,-265 879,-259 885,-259"/>
<text text-anchor="middle" x="900" y="-273.3" font-family="Times,serif" font-size="14.00">1</text>
</g>
<!-- node54&#45;&gt;node55 -->
<g id="edge55" class="edge">
<title>node54&#45;&gt;node55</title>
<path fill="none" stroke="#ccff99" d="M954.57,-348.21C944.6,-335.39 930.86,-317.71 919.66,-303.3"/>
<polygon fill="#ccff99" stroke="#ccff99" points="922.31,-301 913.41,-295.25 916.78,-305.29 922.31,-301"/>
</g>
<!-- node56 -->
<g id="node57" class="node">
<title>node56</title>
<path fill="#00bfff" stroke="black" d="M957,-259C957,-259 987,-259 987,-259 993,-259 999,-265 999,-271 999,-271 999,-283 999,-283 999,-289 993,-295 987,-295 987,-295 957,-295 957,-295 951,-295 945,-289 945,-283 945,-283 945,-271 945,-271 945,-265 951,-259 957,-259"/>
<text text-anchor="middle" x="972" y="-273.3" font-family="Times,serif" font-size="14.00">1</text>
</g>
<!-- node54&#45;&gt;node56 -->
<g id="edge56" class="edge">
<title>node54&#45;&gt;node56</title>
<path fill="none" stroke="#00bfff" d="M968.79,-348.21C969.35,-335.99 970.11,-319.35 970.75,-305.34"/>
<polygon fill="#00bfff" stroke="#00bfff" points="974.25,-305.4 971.21,-295.25 967.26,-305.08 974.25,-305.4"/>
</g>
<!-- node58 -->
<g id="node59" class="node">
<title>node58</title>
<path fill="#8b00ff" stroke="black" d="M1048,-348.5C1048,-348.5 1078,-348.5 1078,-348.5 1084,-348.5 1090,-354.5 1090,-360.5 1090,-360.5 1090,-372.5 1090,-372.5 1090,-378.5 1084,-384.5 1078,-384.5 1078,-384.5 1048,-384.5 1048,-384.5 1042,-384.5 1036,-378.5 1036,-372.5 1036,-372.5 1036,-360.5 1036,-360.5 1036,-354.5 1042,-348.5 1048,-348.5"/>
<text text-anchor="middle" x="1063" y="-362.8" font-family="Times,serif" font-size="14.00">=</text>
</g>
<!-- node57&#45;&gt;node58 -->
<g id="edge58" class="edge">
<title>node57&#45;&gt;node58</title>
<path fill="none" stroke="#8b00ff" d="M1063,-421.31C1063,-413.29 1063,-403.55 1063,-394.57"/>
<polygon fill="#8b00ff" stroke="#8b00ff" points="1066.5,-394.53 1063,-384.53 1059.5,-394.53 1066.5,-394.53"/>
</g>
<!-- node65 -->
<g id="node66" class="node">
<title>node65</title>
<path fill="#006400" stroke="black" d="M1165,-348.5C1165,-348.5 1195,-348.5 1195,-348.5 1201,-348.5 1207,-354.5 1207,-360.5 1207,-360.5 1207,-372.5 1207,-372.5 1207,-378.5 1201,-384.5 1195,-384.5 1195,-384.5 1165,-384.5 1165,-384.5 1159,-384.5 1153,-378.5 1153,-372.5 1153,-372.5 1153,-360.5 1153,-360.5 1153,-354.5 1159,-348.5 1165,-348.5"/>
<text text-anchor="middle" x="1180" y="-362.8" font-family="Times,serif" font-size="14.00">;</text>
</g>
<!-- node57&#45;&gt;node65 -->
<g id="edge65" class="edge">
<title>node57&#45;&gt;node65</title>
<path fill="none" stroke="#006400" d="M1090.14,-422.03C1106.12,-412.33 1126.53,-399.95 1143.86,-389.43"/>
<polygon fill="#006400" stroke="#006400" points="1145.87,-392.3 1152.61,-384.12 1142.24,-386.32 1145.87,-392.3"/>
</g>
<!-- node59 -->
<g id="node60" class="node">
<title>node59</title>
<path fill="#ccff99" stroke="black" d="M1029,-259C1029,-259 1059,-259 1059,-259 1065,-259 1071,-265 1071,-271 1071,-271 1071,-283 1071,-283 1071,-289 1065,-295 1059,-295 1059,-295 1029,-295 1029,-295 1023,-295 1017,-289 1017,-283 1017,-283 1017,-271 1017,-271 1017,-265 1023,-259 1029,-259"/>
<text text-anchor="middle" x="1044" y="-273.3" font-family="Times,serif" font-size="14.00">1</text>
</g>
<!-- node58&#45;&gt;node59 -->
<g id="edge59" class="edge">
<title>node58&#45;&gt;node59</title>
<path fill="none" stroke="#ccff99" d="M1059.25,-348.21C1056.59,-335.99 1052.98,-319.35 1049.94,-305.34"/>
<polygon fill="#ccff99" stroke="#ccff99" points="1053.29,-304.28 1047.75,-295.25 1046.45,-305.77 1053.29,-304.28"/>
</g>
<!-- node60 -->
<g id="node61" class="node">
<title>node60</title>
<path fill="#8b00ff" stroke="black" d="M1101,-259C1101,-259 1131,-259 1131,-259 1137,-259 1143,-265 1143,-271 1143,-271 1143,-283 1143,-283 1143,-289 1137,-295 1131,-295 1131,-295 1101,-295 1101,-295 1095,-295 1089,-289 1089,-283 1089,-283 1089,-271 1089,-271 1089,-265 1095,-259 1101,-259"/>
<text text-anchor="middle" x="1116" y="-273.3" font-family="Times,serif" font-size="14.00">*</text>
</g>
<!-- node58&#45;&gt;node60 -->
<g id="edge60" class="edge">
<title>node58&#45;&gt;node60</title>
<path fill="none" stroke="#8b00ff" d="M1073.47,-348.21C1081.09,-335.63 1091.55,-318.37 1100.19,-304.11"/>
<polygon fill="#8b00ff" stroke="#8b00ff" points="1103.36,-305.62 1105.55,-295.25 1097.38,-301.99 1103.36,-305.62"/>
</g>
<!-- node61 -->
<g id="node62" class="node">
<title>node61</title>
<path fill="#ccff99" stroke="black" d="M1011,-169.5C1011,-169.5 1041,-169.5 1041,-169.5 1047,-169.5 1053,-175.5 1053,-181.5 1053,-181.5 1053,-193.5 1053,-193.5 1053,-199.5 1047,-205.5 1041,-205.5 1041,-205.5 1011,-205.5 1011,-205.5 1005,-205.5 999,-199.5 999,-193.5 999,-193.5 999,-181.5 999,-181.5 999,-175.5 1005,-169.5 1011,-169.5"/>
<text text-anchor="middle" x="1026" y="-183.8" font-family="Times,serif" font-size="14.00">1</text>
</g>
<!-- node60&#45;&gt;node61 -->
<g id="edge61" class="edge">
<title>node60&#45;&gt;node61</title>
<path fill="none" stroke="#ccff99" d="M1098.22,-258.71C1084.78,-245.65 1066.16,-227.55 1051.19,-212.99"/>
<polygon fill="#ccff99" stroke="#ccff99" points="1053.35,-210.21 1043.74,-205.75 1048.47,-215.23 1053.35,-210.21"/>
</g>
<!-- node62 -->
<g id="node63" class="node">
<title>node62</title>
<ellipse fill="none" stroke="black" cx="1116" cy="-187.5" rx="44.69" ry="18"/>
<text text-anchor="middle" x="1116" y="-183.8" font-family="Times,serif" font-size="14.00">node62</text>
</g>
<!-- node60&#45;&gt;node62 -->
<g id="edge62" class="edge">
<title>node60&#45;&gt;node62</title>
<path fill="none" stroke="#000000" d="M1116,-258.71C1116,-246.49 1116,-229.85 1116,-215.84"/>
<polygon fill="#000000" stroke="#000000" points="1119.5,-215.75 1116,-205.75 1112.5,-215.75 1119.5,-215.75"/>
</g>
<!-- node63 -->
<g id="node64" class="node">
<title>node63</title>
<path fill="#ccff99" stroke="black" d="M1065,-96.5C1065,-96.5 1095,-96.5 1095,-96.5 1101,-96.5 1107,-102.5 1107,-108.5 1107,-108.5 1107,-120.5 1107,-120.5 1107,-126.5 1101,-132.5 1095,-132.5 1095,-132.5 1065,-132.5 1065,-132.5 1059,-132.5 1053,-126.5 1053,-120.5 1053,-120.5 1053,-108.5 1053,-108.5 1053,-102.5 1059,-96.5 1065,-96.5"/>
<text text-anchor="middle" x="1080" y="-110.8" font-family="Times,serif" font-size="14.00">5</text>
</g>
<!-- node62&#45;&gt;node63 -->
<g id="edge63" class="edge">
<title>node62&#45;&gt;node63</title>
<path fill="none" stroke="#ccff99" d="M1107.47,-169.67C1103.23,-161.31 1098,-151.01 1093.26,-141.64"/>
<polygon fill="#ccff99" stroke="#ccff99" points="1096.36,-140.03 1088.72,-132.7 1090.12,-143.2 1096.36,-140.03"/>
</g>
<!-- node64 -->
<g id="node65" class="node">
<title>node64</title>
<path fill="#ccff99" stroke="black" d="M1137,-96.5C1137,-96.5 1167,-96.5 1167,-96.5 1173,-96.5 1179,-102.5 1179,-108.5 1179,-108.5 1179,-120.5 1179,-120.5 1179,-126.5 1173,-132.5 1167,-132.5 1167,-132.5 1137,-132.5 1137,-132.5 1131,-132.5 1125,-126.5 1125,-120.5 1125,-120.5 1125,-108.5 1125,-108.5 1125,-102.5 1131,-96.5 1137,-96.5"/>
<text text-anchor="middle" x="1152" y="-110.8" font-family="Times,serif" font-size="14.00">4</text>
</g>
<!-- node62&#45;&gt;node64 -->
<g id="edge64" class="edge">
<title>node62&#45;&gt;node64</title>
<path fill="none" stroke="#ccff99" d="M1124.53,-169.67C1128.77,-161.31 1134,-151.01 1138.74,-141.64"/>
<polygon fill="#ccff99" stroke="#ccff99" points="1141.88,-143.2 1143.28,-132.7 1135.64,-140.03 1141.88,-143.2"/>
</g>
<!-- node66 -->
<g id="node67" class="node">
<title>node66</title>
<path fill="#8b00ff" stroke="black" d="M1180,-259C1180,-259 1218,-259 1218,-259 1224,-259 1230,-265 1230,-271 1230,-271 1230,-283 1230,-283 1230,-289 1224,-295 1218,-295 1218,-295 1180,-295 1180,-295 1174,-295 1168,-289 1168,-283 1168,-283 1168,-271 1168,-271 1168,-265 1174,-259 1180,-259"/>
<text text-anchor="middle" x="1199" y="-273.3" font-family="Times,serif" font-size="14.00">return</text>
</g>
<!-- node65&#45;&gt;node66 -->
<g id="edge66" class="edge">
<title>node65&#45;&gt;node66</title>
<path fill="none" stroke="#8b00ff" d="M1183.75,-348.21C1186.41,-335.99 1190.02,-319.35 1193.06,-305.34"/>
<polygon fill="#8b00ff" stroke="#8b00ff" points="1196.55,-305.77 1195.25,-295.25 1189.71,-304.28 1196.55,-305.77"/>
</g>
<!-- node67 -->
<g id="node68" class="node">
<title>node67</title>
<path fill="#ccff99" stroke="black" d="M1191,-169.5C1191,-169.5 1221,-169.5 1221,-169.5 1227,-169.5 1233,-175.5 1233,-181.5 1233,-181.5 1233,-193.5 1233,-193.5 1233,-199.5 1227,-205.5 1221,-205.5 1221,-205.5 1191,-205.5 1191,-205.5 1185,-205.5 1179,-199.5 1179,-193.5 1179,-193.5 1179,-181.5 1179,-181.5 1179,-175.5 1185,-169.5 1191,-169.5"/>
<text text-anchor="middle" x="1206" y="-183.8" font-family="Times,serif" font-size="14.00">1</text>
</g>
<!-- node66&#45;&gt;node67 -->
<g id="edge67" class="edge">
<title>node66&#45;&gt;node67</title>
<path fill="none" stroke="#ccff99" d="M1200.38,-258.71C1201.36,-246.49 1202.69,-229.85 1203.81,-215.84"/>
<polygon fill="#ccff99" stroke="#ccff99" points="1207.31,-216 1204.62,-205.75 1200.33,-215.44 1207.31,-216"/>
</g>
</g>
</svg>
