<?xml version="1.0" encoding="UTF-8" standalone="no"?>
<!DOCTYPE svg PUBLIC "-//W3C//DTD SVG 1.1//EN"
 "http://www.w3.org/Graphics/SVG/1.1/DTD/svg11.dtd">
<!-- Generated by graphviz version 2.43.0 (0)
 -->
<!-- Title: List Pages: 1 -->
<svg width="1899pt" height="1083pt"
 viewBox="0.00 0.00 1899.00 1083.00" xmlns="http://www.w3.org/2000/svg" xmlns:xlink="http://www.w3.org/1999/xlink">
<g id="graph0" class="graph" transform="scale(1 1) rotate(0) translate(4 1079)">
<title>List</title>
<polygon fill="#696969" stroke="transparent" points="-4,4 -4,-1079 1895,-1079 1895,4 -4,4"/>
<text text-anchor="middle" x="945.5" y="-7.8" font-family="Times,serif" font-size="14.00">tree_dump from function main, Tree/./src/main.cpp:16</text>
<!-- node0 -->
<g id="node1" class="node">
<title>node0</title>
<path fill="#006400" stroke="black" d="M555,-1038.5C555,-1038.5 585,-1038.5 585,-1038.5 591,-1038.5 597,-1044.5 597,-1050.5 597,-1050.5 597,-1062.5 597,-1062.5 597,-1068.5 591,-1074.5 585,-1074.5 585,-1074.5 555,-1074.5 555,-1074.5 549,-1074.5 543,-1068.5 543,-1062.5 543,-1062.5 543,-1050.5 543,-1050.5 543,-1044.5 549,-1038.5 555,-1038.5"/>
<text text-anchor="middle" x="570" y="-1052.8" font-family="Times,serif" font-size="14.00">;</text>
</g>
<!-- node1 -->
<g id="node2" class="node">
<title>node1</title>
<path fill="#ff0000" stroke="black" d="M519,-965.5C519,-965.5 549,-965.5 549,-965.5 555,-965.5 561,-971.5 561,-977.5 561,-977.5 561,-989.5 561,-989.5 561,-995.5 555,-1001.5 549,-1001.5 549,-1001.5 519,-1001.5 519,-1001.5 513,-1001.5 507,-995.5 507,-989.5 507,-989.5 507,-977.5 507,-977.5 507,-971.5 513,-965.5 519,-965.5"/>
<text text-anchor="middle" x="534" y="-979.8" font-family="Times,serif" font-size="14.00">0</text>
</g>
<!-- node0&#45;&gt;node1 -->
<g id="edge1" class="edge">
<title>node0&#45;&gt;node1</title>
<path fill="none" stroke="#ff0000" d="M561.29,-1038.31C557.08,-1030.03 551.95,-1019.91 547.28,-1010.69"/>
<polygon fill="#ff0000" stroke="#ff0000" points="550.28,-1008.87 542.63,-1001.53 544.04,-1012.03 550.28,-1008.87"/>
</g>
<!-- node40 -->
<g id="node41" class="node">
<title>node40</title>
<path fill="#006400" stroke="black" d="M702,-965.5C702,-965.5 732,-965.5 732,-965.5 738,-965.5 744,-971.5 744,-977.5 744,-977.5 744,-989.5 744,-989.5 744,-995.5 738,-1001.5 732,-1001.5 732,-1001.5 702,-1001.5 702,-1001.5 696,-1001.5 690,-995.5 690,-989.5 690,-989.5 690,-977.5 690,-977.5 690,-971.5 696,-965.5 702,-965.5"/>
<text text-anchor="middle" x="717" y="-979.8" font-family="Times,serif" font-size="14.00">;</text>
</g>
<!-- node0&#45;&gt;node40 -->
<g id="edge40" class="edge">
<title>node0&#45;&gt;node40</title>
<path fill="none" stroke="#006400" d="M597.31,-1042.31C620.82,-1030.95 654.95,-1014.47 680.75,-1002.01"/>
<polygon fill="#006400" stroke="#006400" points="682.36,-1005.12 689.84,-997.62 679.31,-998.82 682.36,-1005.12"/>
</g>
<!-- node2 -->
<g id="node3" class="node">
<title>node2</title>
<path fill="#006400" stroke="black" d="M338,-892.5C338,-892.5 368,-892.5 368,-892.5 374,-892.5 380,-898.5 380,-904.5 380,-904.5 380,-916.5 380,-916.5 380,-922.5 374,-928.5 368,-928.5 368,-928.5 338,-928.5 338,-928.5 332,-928.5 326,-922.5 326,-916.5 326,-916.5 326,-904.5 326,-904.5 326,-898.5 332,-892.5 338,-892.5"/>
<text text-anchor="middle" x="353" y="-906.8" font-family="Times,serif" font-size="14.00">;</text>
</g>
<!-- node1&#45;&gt;node2 -->
<g id="edge2" class="edge">
<title>node1&#45;&gt;node2</title>
<path fill="none" stroke="#006400" d="M506.9,-971.87C475.71,-959.64 424.33,-939.48 389.61,-925.86"/>
<polygon fill="#006400" stroke="#006400" points="390.87,-922.6 380.28,-922.2 388.31,-929.11 390.87,-922.6"/>
</g>
<!-- node3 -->
<g id="node4" class="node">
<title>node3</title>
<path fill="#8b00ff" stroke="black" d="M266,-819.5C266,-819.5 296,-819.5 296,-819.5 302,-819.5 308,-825.5 308,-831.5 308,-831.5 308,-843.5 308,-843.5 308,-849.5 302,-855.5 296,-855.5 296,-855.5 266,-855.5 266,-855.5 260,-855.5 254,-849.5 254,-843.5 254,-843.5 254,-831.5 254,-831.5 254,-825.5 260,-819.5 266,-819.5"/>
<text text-anchor="middle" x="281" y="-833.8" font-family="Times,serif" font-size="14.00">input</text>
</g>
<!-- node2&#45;&gt;node3 -->
<g id="edge3" class="edge">
<title>node2&#45;&gt;node3</title>
<path fill="none" stroke="#8b00ff" d="M335.57,-892.31C326.55,-883.42 315.39,-872.41 305.51,-862.67"/>
<polygon fill="#8b00ff" stroke="#8b00ff" points="307.85,-860.06 298.27,-855.53 302.93,-865.04 307.85,-860.06"/>
</g>
<!-- node5 -->
<g id="node6" class="node">
<title>node5</title>
<path fill="#006400" stroke="black" d="M338,-819.5C338,-819.5 368,-819.5 368,-819.5 374,-819.5 380,-825.5 380,-831.5 380,-831.5 380,-843.5 380,-843.5 380,-849.5 374,-855.5 368,-855.5 368,-855.5 338,-855.5 338,-855.5 332,-855.5 326,-849.5 326,-843.5 326,-843.5 326,-831.5 326,-831.5 326,-825.5 332,-819.5 338,-819.5"/>
<text text-anchor="middle" x="353" y="-833.8" font-family="Times,serif" font-size="14.00">;</text>
</g>
<!-- node2&#45;&gt;node5 -->
<g id="edge5" class="edge">
<title>node2&#45;&gt;node5</title>
<path fill="none" stroke="#006400" d="M353,-892.31C353,-884.29 353,-874.55 353,-865.57"/>
<polygon fill="#006400" stroke="#006400" points="356.5,-865.53 353,-855.53 349.5,-865.53 356.5,-865.53"/>
</g>
<!-- node4 -->
<g id="node5" class="node">
<title>node4</title>
<path fill="#ff00ff" stroke="black" d="M230,-746.5C230,-746.5 260,-746.5 260,-746.5 266,-746.5 272,-752.5 272,-758.5 272,-758.5 272,-770.5 272,-770.5 272,-776.5 266,-782.5 260,-782.5 260,-782.5 230,-782.5 230,-782.5 224,-782.5 218,-776.5 218,-770.5 218,-770.5 218,-758.5 218,-758.5 218,-752.5 224,-746.5 230,-746.5"/>
<text text-anchor="middle" x="245" y="-760.8" font-family="Times,serif" font-size="14.00">0</text>
</g>
<!-- node3&#45;&gt;node4 -->
<g id="edge4" class="edge">
<title>node3&#45;&gt;node4</title>
<path fill="none" stroke="#ff00ff" d="M272.29,-819.31C268.08,-811.03 262.95,-800.91 258.28,-791.69"/>
<polygon fill="#ff00ff" stroke="#ff00ff" points="261.28,-789.87 253.63,-782.53 255.04,-793.03 261.28,-789.87"/>
</g>
<!-- node6 -->
<g id="node7" class="node">
<title>node6</title>
<path fill="#8b00ff" stroke="black" d="M302,-746.5C302,-746.5 332,-746.5 332,-746.5 338,-746.5 344,-752.5 344,-758.5 344,-758.5 344,-770.5 344,-770.5 344,-776.5 338,-782.5 332,-782.5 332,-782.5 302,-782.5 302,-782.5 296,-782.5 290,-776.5 290,-770.5 290,-770.5 290,-758.5 290,-758.5 290,-752.5 296,-746.5 302,-746.5"/>
<text text-anchor="middle" x="317" y="-760.8" font-family="Times,serif" font-size="14.00">=</text>
</g>
<!-- node5&#45;&gt;node6 -->
<g id="edge6" class="edge">
<title>node5&#45;&gt;node6</title>
<path fill="none" stroke="#8b00ff" d="M344.29,-819.31C340.08,-811.03 334.95,-800.91 330.28,-791.69"/>
<polygon fill="#8b00ff" stroke="#8b00ff" points="333.28,-789.87 325.63,-782.53 327.04,-793.03 333.28,-789.87"/>
</g>
<!-- node9 -->
<g id="node10" class="node">
<title>node9</title>
<path fill="#006400" stroke="black" d="M374,-746.5C374,-746.5 404,-746.5 404,-746.5 410,-746.5 416,-752.5 416,-758.5 416,-758.5 416,-770.5 416,-770.5 416,-776.5 410,-782.5 404,-782.5 404,-782.5 374,-782.5 374,-782.5 368,-782.5 362,-776.5 362,-770.5 362,-770.5 362,-758.5 362,-758.5 362,-752.5 368,-746.5 374,-746.5"/>
<text text-anchor="middle" x="389" y="-760.8" font-family="Times,serif" font-size="14.00">;</text>
</g>
<!-- node5&#45;&gt;node9 -->
<g id="edge9" class="edge">
<title>node5&#45;&gt;node9</title>
<path fill="none" stroke="#006400" d="M361.71,-819.31C365.92,-811.03 371.05,-800.91 375.72,-791.69"/>
<polygon fill="#006400" stroke="#006400" points="378.96,-793.03 380.37,-782.53 372.72,-789.87 378.96,-793.03"/>
</g>
<!-- node7 -->
<g id="node8" class="node">
<title>node7</title>
<path fill="#ccff99" stroke="black" d="M230,-673.5C230,-673.5 260,-673.5 260,-673.5 266,-673.5 272,-679.5 272,-685.5 272,-685.5 272,-697.5 272,-697.5 272,-703.5 266,-709.5 260,-709.5 260,-709.5 230,-709.5 230,-709.5 224,-709.5 218,-703.5 218,-697.5 218,-697.5 218,-685.5 218,-685.5 218,-679.5 224,-673.5 230,-673.5"/>
<text text-anchor="middle" x="245" y="-687.8" font-family="Times,serif" font-size="14.00">1</text>
</g>
<!-- node6&#45;&gt;node7 -->
<g id="edge7" class="edge">
<title>node6&#45;&gt;node7</title>
<path fill="none" stroke="#ccff99" d="M299.57,-746.31C290.55,-737.42 279.39,-726.41 269.51,-716.67"/>
<polygon fill="#ccff99" stroke="#ccff99" points="271.85,-714.06 262.27,-709.53 266.93,-719.04 271.85,-714.06"/>
</g>
<!-- node8 -->
<g id="node9" class="node">
<title>node8</title>
<path fill="#00bfff" stroke="black" d="M302,-673.5C302,-673.5 332,-673.5 332,-673.5 338,-673.5 344,-679.5 344,-685.5 344,-685.5 344,-697.5 344,-697.5 344,-703.5 338,-709.5 332,-709.5 332,-709.5 302,-709.5 302,-709.5 296,-709.5 290,-703.5 290,-697.5 290,-697.5 290,-685.5 290,-685.5 290,-679.5 296,-673.5 302,-673.5"/>
<text text-anchor="middle" x="317" y="-687.8" font-family="Times,serif" font-size="14.00">1</text>
</g>
<!-- node6&#45;&gt;node8 -->
<g id="edge8" class="edge">
<title>node6&#45;&gt;node8</title>
<path fill="none" stroke="#00bfff" d="M317,-746.31C317,-738.29 317,-728.55 317,-719.57"/>
<polygon fill="#00bfff" stroke="#00bfff" points="320.5,-719.53 317,-709.53 313.5,-719.53 320.5,-719.53"/>
</g>
<!-- node10 -->
<g id="node11" class="node">
<title>node10</title>
<path fill="#8b00ff" stroke="black" d="M374,-673.5C374,-673.5 404,-673.5 404,-673.5 410,-673.5 416,-679.5 416,-685.5 416,-685.5 416,-697.5 416,-697.5 416,-703.5 410,-709.5 404,-709.5 404,-709.5 374,-709.5 374,-709.5 368,-709.5 362,-703.5 362,-697.5 362,-697.5 362,-685.5 362,-685.5 362,-679.5 368,-673.5 374,-673.5"/>
<text text-anchor="middle" x="389" y="-687.8" font-family="Times,serif" font-size="14.00">if</text>
</g>
<!-- node9&#45;&gt;node10 -->
<g id="edge10" class="edge">
<title>node9&#45;&gt;node10</title>
<path fill="none" stroke="#8b00ff" d="M389,-746.31C389,-738.29 389,-728.55 389,-719.57"/>
<polygon fill="#8b00ff" stroke="#8b00ff" points="392.5,-719.53 389,-709.53 385.5,-719.53 392.5,-719.53"/>
</g>
<!-- node11 -->
<g id="node12" class="node">
<title>node11</title>
<path fill="#ffffff" stroke="black" d="M298,-584C298,-584 332,-584 332,-584 338,-584 344,-590 344,-596 344,-596 344,-608 344,-608 344,-614 338,-620 332,-620 332,-620 298,-620 298,-620 292,-620 286,-614 286,-608 286,-608 286,-596 286,-596 286,-590 292,-584 298,-584"/>
<text text-anchor="middle" x="315" y="-598.3" font-family="Times,serif" font-size="14.00">op_no</text>
</g>
<!-- node10&#45;&gt;node11 -->
<g id="edge11" class="edge">
<title>node10&#45;&gt;node11</title>
<path fill="none" stroke="#ffffff" d="M374.38,-673.21C363.43,-660.27 348.3,-642.38 336.05,-627.89"/>
<polygon fill="#ffffff" stroke="#ffffff" points="338.72,-625.63 329.59,-620.25 333.37,-630.15 338.72,-625.63"/>
</g>
<!-- node22 -->
<g id="node23" class="node">
<title>node22</title>
<path fill="#8b00ff" stroke="black" d="M374,-584C374,-584 404,-584 404,-584 410,-584 416,-590 416,-596 416,-596 416,-608 416,-608 416,-614 410,-620 404,-620 404,-620 374,-620 374,-620 368,-620 362,-614 362,-608 362,-608 362,-596 362,-596 362,-590 368,-584 374,-584"/>
<text text-anchor="middle" x="389" y="-598.3" font-family="Times,serif" font-size="14.00">else</text>
</g>
<!-- node10&#45;&gt;node22 -->
<g id="edge22" class="edge">
<title>node10&#45;&gt;node22</title>
<path fill="none" stroke="#8b00ff" d="M389,-673.21C389,-660.99 389,-644.35 389,-630.34"/>
<polygon fill="#8b00ff" stroke="#8b00ff" points="392.5,-630.25 389,-620.25 385.5,-630.25 392.5,-630.25"/>
</g>
<!-- node12 -->
<g id="node13" class="node">
<title>node12</title>
<path fill="#8b00ff" stroke="black" d="M228,-461.5C228,-461.5 258,-461.5 258,-461.5 264,-461.5 270,-467.5 270,-473.5 270,-473.5 270,-518.5 270,-518.5 270,-524.5 264,-530.5 258,-530.5 258,-530.5 228,-530.5 228,-530.5 222,-530.5 216,-524.5 216,-518.5 216,-518.5 216,-473.5 216,-473.5 216,-467.5 222,-461.5 228,-461.5"/>
<text text-anchor="middle" x="243" y="-515.3" font-family="Times,serif" font-size="14.00"> </text>
<polyline fill="none" stroke="black" points="216,-507.5 270,-507.5 "/>
<text text-anchor="middle" x="243" y="-492.3" font-family="Times,serif" font-size="14.00"> </text>
<polyline fill="none" stroke="black" points="216,-484.5 270,-484.5 "/>
<text text-anchor="middle" x="243" y="-469.3" font-family="Times,serif" font-size="14.00"> </text>
</g>
<!-- node11&#45;&gt;node12 -->
<g id="edge12" class="edge">
<title>node11&#45;&gt;node12</title>
<path fill="none" stroke="#8b00ff" d="M303.11,-583.83C294.69,-571.66 283,-554.78 272.17,-539.13"/>
<polygon fill="#8b00ff" stroke="#8b00ff" points="274.84,-536.84 266.27,-530.61 269.08,-540.82 274.84,-536.84"/>
</g>
<!-- node19 -->
<g id="node20" class="node">
<title>node19</title>
<path fill="#006400" stroke="black" d="M300,-478C300,-478 330,-478 330,-478 336,-478 342,-484 342,-490 342,-490 342,-502 342,-502 342,-508 336,-514 330,-514 330,-514 300,-514 300,-514 294,-514 288,-508 288,-502 288,-502 288,-490 288,-490 288,-484 294,-478 300,-478"/>
<text text-anchor="middle" x="315" y="-492.3" font-family="Times,serif" font-size="14.00">;</text>
</g>
<!-- node11&#45;&gt;node19 -->
<g id="edge19" class="edge">
<title>node11&#45;&gt;node19</title>
<path fill="none" stroke="#006400" d="M315,-583.83C315,-567.64 315,-543.13 315,-524.27"/>
<polygon fill="#006400" stroke="#006400" points="318.5,-524.2 315,-514.2 311.5,-524.2 318.5,-524.2"/>
</g>
<!-- node13 -->
<g id="node14" class="node">
<title>node13</title>
<path fill="#8b00ff" stroke="black" d="M76.5,-388.5C76.5,-388.5 121.5,-388.5 121.5,-388.5 127.5,-388.5 133.5,-394.5 133.5,-400.5 133.5,-400.5 133.5,-412.5 133.5,-412.5 133.5,-418.5 127.5,-424.5 121.5,-424.5 121.5,-424.5 76.5,-424.5 76.5,-424.5 70.5,-424.5 64.5,-418.5 64.5,-412.5 64.5,-412.5 64.5,-400.5 64.5,-400.5 64.5,-394.5 70.5,-388.5 76.5,-388.5"/>
<text text-anchor="middle" x="99" y="-402.8" font-family="Times,serif" font-size="14.00">node13</text>
</g>
<!-- node12&#45;&gt;node13 -->
<g id="edge13" class="edge">
<title>node12&#45;&gt;node13</title>
<path fill="none" stroke="#8b00ff" d="M215.91,-478.54C193.42,-464.87 161.19,-445.29 136.26,-430.14"/>
<polygon fill="#8b00ff" stroke="#8b00ff" points="137.81,-426.98 127.44,-424.78 134.17,-432.97 137.81,-426.98"/>
</g>
<!-- node16 -->
<g id="node17" class="node">
<title>node16</title>
<path fill="#8b00ff" stroke="black" d="M228,-388.5C228,-388.5 258,-388.5 258,-388.5 264,-388.5 270,-394.5 270,-400.5 270,-400.5 270,-412.5 270,-412.5 270,-418.5 264,-424.5 258,-424.5 258,-424.5 228,-424.5 228,-424.5 222,-424.5 216,-418.5 216,-412.5 216,-412.5 216,-400.5 216,-400.5 216,-394.5 222,-388.5 228,-388.5"/>
<text text-anchor="middle" x="243" y="-402.8" font-family="Times,serif" font-size="14.00">==</text>
</g>
<!-- node12&#45;&gt;node16 -->
<g id="edge16" class="edge">
<title>node12&#45;&gt;node16</title>
<path fill="none" stroke="#8b00ff" d="M243,-461.42C243,-452.61 243,-443.22 243,-434.78"/>
<polygon fill="#8b00ff" stroke="#8b00ff" points="246.5,-434.72 243,-424.72 239.5,-434.72 246.5,-434.72"/>
</g>
<!-- node14 -->
<g id="node15" class="node">
<title>node14</title>
<path fill="#ccff99" stroke="black" d="M12,-315.5C12,-315.5 42,-315.5 42,-315.5 48,-315.5 54,-321.5 54,-327.5 54,-327.5 54,-339.5 54,-339.5 54,-345.5 48,-351.5 42,-351.5 42,-351.5 12,-351.5 12,-351.5 6,-351.5 0,-345.5 0,-339.5 0,-339.5 0,-327.5 0,-327.5 0,-321.5 6,-315.5 12,-315.5"/>
<text text-anchor="middle" x="27" y="-329.8" font-family="Times,serif" font-size="14.00">0</text>
</g>
<!-- node13&#45;&gt;node14 -->
<g id="edge14" class="edge">
<title>node13&#45;&gt;node14</title>
<path fill="none" stroke="#ccff99" d="M81.57,-388.31C72.55,-379.42 61.39,-368.41 51.51,-358.67"/>
<polygon fill="#ccff99" stroke="#ccff99" points="53.85,-356.06 44.27,-351.53 48.93,-361.04 53.85,-356.06"/>
</g>
<!-- node15 -->
<g id="node16" class="node">
<title>node15</title>
<path fill="#00bfff" stroke="black" d="M84,-315.5C84,-315.5 114,-315.5 114,-315.5 120,-315.5 126,-321.5 126,-327.5 126,-327.5 126,-339.5 126,-339.5 126,-345.5 120,-351.5 114,-351.5 114,-351.5 84,-351.5 84,-351.5 78,-351.5 72,-345.5 72,-339.5 72,-339.5 72,-327.5 72,-327.5 72,-321.5 78,-315.5 84,-315.5"/>
<text text-anchor="middle" x="99" y="-329.8" font-family="Times,serif" font-size="14.00">0</text>
</g>
<!-- node13&#45;&gt;node15 -->
<g id="edge15" class="edge">
<title>node13&#45;&gt;node15</title>
<path fill="none" stroke="#00bfff" d="M99,-388.31C99,-380.29 99,-370.55 99,-361.57"/>
<polygon fill="#00bfff" stroke="#00bfff" points="102.5,-361.53 99,-351.53 95.5,-361.53 102.5,-361.53"/>
</g>
<!-- node17 -->
<g id="node18" class="node">
<title>node17</title>
<path fill="#ccff99" stroke="black" d="M156,-315.5C156,-315.5 186,-315.5 186,-315.5 192,-315.5 198,-321.5 198,-327.5 198,-327.5 198,-339.5 198,-339.5 198,-345.5 192,-351.5 186,-351.5 186,-351.5 156,-351.5 156,-351.5 150,-351.5 144,-345.5 144,-339.5 144,-339.5 144,-327.5 144,-327.5 144,-321.5 150,-315.5 156,-315.5"/>
<text text-anchor="middle" x="171" y="-329.8" font-family="Times,serif" font-size="14.00">0</text>
</g>
<!-- node16&#45;&gt;node17 -->
<g id="edge17" class="edge">
<title>node16&#45;&gt;node17</title>
<path fill="none" stroke="#ccff99" d="M225.57,-388.31C216.55,-379.42 205.39,-368.41 195.51,-358.67"/>
<polygon fill="#ccff99" stroke="#ccff99" points="197.85,-356.06 188.27,-351.53 192.93,-361.04 197.85,-356.06"/>
</g>
<!-- node18 -->
<g id="node19" class="node">
<title>node18</title>
<path fill="#00bfff" stroke="black" d="M228,-315.5C228,-315.5 258,-315.5 258,-315.5 264,-315.5 270,-321.5 270,-327.5 270,-327.5 270,-339.5 270,-339.5 270,-345.5 264,-351.5 258,-351.5 258,-351.5 228,-351.5 228,-351.5 222,-351.5 216,-345.5 216,-339.5 216,-339.5 216,-327.5 216,-327.5 216,-321.5 222,-315.5 228,-315.5"/>
<text text-anchor="middle" x="243" y="-329.8" font-family="Times,serif" font-size="14.00">0</text>
</g>
<!-- node16&#45;&gt;node18 -->
<g id="edge18" class="edge">
<title>node16&#45;&gt;node18</title>
<path fill="none" stroke="#00bfff" d="M243,-388.31C243,-380.29 243,-370.55 243,-361.57"/>
<polygon fill="#00bfff" stroke="#00bfff" points="246.5,-361.53 243,-351.53 239.5,-361.53 246.5,-361.53"/>
</g>
<!-- node20 -->
<g id="node21" class="node">
<title>node20</title>
<path fill="#8b00ff" stroke="black" d="M300,-388.5C300,-388.5 330,-388.5 330,-388.5 336,-388.5 342,-394.5 342,-400.5 342,-400.5 342,-412.5 342,-412.5 342,-418.5 336,-424.5 330,-424.5 330,-424.5 300,-424.5 300,-424.5 294,-424.5 288,-418.5 288,-412.5 288,-412.5 288,-400.5 288,-400.5 288,-394.5 294,-388.5 300,-388.5"/>
<text text-anchor="middle" x="315" y="-402.8" font-family="Times,serif" font-size="14.00">print</text>
</g>
<!-- node19&#45;&gt;node20 -->
<g id="edge20" class="edge">
<title>node19&#45;&gt;node20</title>
<path fill="none" stroke="#8b00ff" d="M315,-477.71C315,-465.49 315,-448.85 315,-434.84"/>
<polygon fill="#8b00ff" stroke="#8b00ff" points="318.5,-434.75 315,-424.75 311.5,-434.75 318.5,-434.75"/>
</g>
<!-- node21 -->
<g id="node22" class="node">
<title>node21</title>
<path fill="#ff00ff" stroke="black" d="M300,-315.5C300,-315.5 330,-315.5 330,-315.5 336,-315.5 342,-321.5 342,-327.5 342,-327.5 342,-339.5 342,-339.5 342,-345.5 336,-351.5 330,-351.5 330,-351.5 300,-351.5 300,-351.5 294,-351.5 288,-345.5 288,-339.5 288,-339.5 288,-327.5 288,-327.5 288,-321.5 294,-315.5 300,-315.5"/>
<text text-anchor="middle" x="315" y="-329.8" font-family="Times,serif" font-size="14.00">1</text>
</g>
<!-- node20&#45;&gt;node21 -->
<g id="edge21" class="edge">
<title>node20&#45;&gt;node21</title>
<path fill="none" stroke="#ff00ff" d="M315,-388.31C315,-380.29 315,-370.55 315,-361.57"/>
<polygon fill="#ff00ff" stroke="#ff00ff" points="318.5,-361.53 315,-351.53 311.5,-361.53 318.5,-361.53"/>
</g>
<!-- node23 -->
<g id="node24" class="node">
<title>node23</title>
<path fill="#ffffff" stroke="black" d="M372,-478C372,-478 406,-478 406,-478 412,-478 418,-484 418,-490 418,-490 418,-502 418,-502 418,-508 412,-514 406,-514 406,-514 372,-514 372,-514 366,-514 360,-508 360,-502 360,-502 360,-490 360,-490 360,-484 366,-478 372,-478"/>
<text text-anchor="middle" x="389" y="-492.3" font-family="Times,serif" font-size="14.00">op_no</text>
</g>
<!-- node22&#45;&gt;node23 -->
<g id="edge23" class="edge">
<title>node22&#45;&gt;node23</title>
<path fill="none" stroke="#ffffff" d="M389,-583.83C389,-567.64 389,-543.13 389,-524.27"/>
<polygon fill="#ffffff" stroke="#ffffff" points="392.5,-524.2 389,-514.2 385.5,-524.2 392.5,-524.2"/>
</g>
<!-- node24 -->
<g id="node25" class="node">
<title>node24</title>
<path fill="#006400" stroke="black" d="M373,-388.5C373,-388.5 403,-388.5 403,-388.5 409,-388.5 415,-394.5 415,-400.5 415,-400.5 415,-412.5 415,-412.5 415,-418.5 409,-424.5 403,-424.5 403,-424.5 373,-424.5 373,-424.5 367,-424.5 361,-418.5 361,-412.5 361,-412.5 361,-400.5 361,-400.5 361,-394.5 367,-388.5 373,-388.5"/>
<text text-anchor="middle" x="388" y="-402.8" font-family="Times,serif" font-size="14.00">;</text>
</g>
<!-- node23&#45;&gt;node24 -->
<g id="edge24" class="edge">
<title>node23&#45;&gt;node24</title>
<path fill="none" stroke="#006400" d="M388.8,-477.71C388.66,-465.49 388.47,-448.85 388.31,-434.84"/>
<polygon fill="#006400" stroke="#006400" points="391.81,-434.71 388.2,-424.75 384.81,-434.79 391.81,-434.71"/>
</g>
<!-- node25 -->
<g id="node26" class="node">
<title>node25</title>
<path fill="#8b00ff" stroke="black" d="M373,-315.5C373,-315.5 403,-315.5 403,-315.5 409,-315.5 415,-321.5 415,-327.5 415,-327.5 415,-339.5 415,-339.5 415,-345.5 409,-351.5 403,-351.5 403,-351.5 373,-351.5 373,-351.5 367,-351.5 361,-345.5 361,-339.5 361,-339.5 361,-327.5 361,-327.5 361,-321.5 367,-315.5 373,-315.5"/>
<text text-anchor="middle" x="388" y="-329.8" font-family="Times,serif" font-size="14.00">=</text>
</g>
<!-- node24&#45;&gt;node25 -->
<g id="edge25" class="edge">
<title>node24&#45;&gt;node25</title>
<path fill="none" stroke="#8b00ff" d="M388,-388.31C388,-380.29 388,-370.55 388,-361.57"/>
<polygon fill="#8b00ff" stroke="#8b00ff" points="391.5,-361.53 388,-351.53 384.5,-361.53 391.5,-361.53"/>
</g>
<!-- node29 -->
<g id="node30" class="node">
<title>node29</title>
<path fill="#006400" stroke="black" d="M463,-315.5C463,-315.5 493,-315.5 493,-315.5 499,-315.5 505,-321.5 505,-327.5 505,-327.5 505,-339.5 505,-339.5 505,-345.5 499,-351.5 493,-351.5 493,-351.5 463,-351.5 463,-351.5 457,-351.5 451,-345.5 451,-339.5 451,-339.5 451,-327.5 451,-327.5 451,-321.5 457,-315.5 463,-315.5"/>
<text text-anchor="middle" x="478" y="-329.8" font-family="Times,serif" font-size="14.00">;</text>
</g>
<!-- node24&#45;&gt;node29 -->
<g id="edge29" class="edge">
<title>node24&#45;&gt;node29</title>
<path fill="none" stroke="#006400" d="M409.79,-388.31C421.39,-379.16 435.84,-367.76 448.44,-357.82"/>
<polygon fill="#006400" stroke="#006400" points="450.73,-360.47 456.41,-351.53 446.4,-354.97 450.73,-360.47"/>
</g>
<!-- node26 -->
<g id="node27" class="node">
<title>node26</title>
<path fill="#ccff99" stroke="black" d="M283,-242.5C283,-242.5 313,-242.5 313,-242.5 319,-242.5 325,-248.5 325,-254.5 325,-254.5 325,-266.5 325,-266.5 325,-272.5 319,-278.5 313,-278.5 313,-278.5 283,-278.5 283,-278.5 277,-278.5 271,-272.5 271,-266.5 271,-266.5 271,-254.5 271,-254.5 271,-248.5 277,-242.5 283,-242.5"/>
<text text-anchor="middle" x="298" y="-256.8" font-family="Times,serif" font-size="14.00">2</text>
</g>
<!-- node25&#45;&gt;node26 -->
<g id="edge26" class="edge">
<title>node25&#45;&gt;node26</title>
<path fill="none" stroke="#ccff99" d="M366.21,-315.31C354.61,-306.16 340.16,-294.76 327.56,-284.82"/>
<polygon fill="#ccff99" stroke="#ccff99" points="329.6,-281.97 319.59,-278.53 325.27,-287.47 329.6,-281.97"/>
</g>
<!-- node27 -->
<g id="node28" class="node">
<title>node27</title>
<ellipse fill="none" stroke="black" cx="388" cy="-260.5" rx="44.69" ry="18"/>
<text text-anchor="middle" x="388" y="-256.8" font-family="Times,serif" font-size="14.00">node27</text>
</g>
<!-- node25&#45;&gt;node27 -->
<g id="edge27" class="edge">
<title>node25&#45;&gt;node27</title>
<path fill="none" stroke="#000000" d="M388,-315.31C388,-307.29 388,-297.55 388,-288.57"/>
<polygon fill="#000000" stroke="#000000" points="391.5,-288.53 388,-278.53 384.5,-288.53 391.5,-288.53"/>
</g>
<!-- node28 -->
<g id="node29" class="node">
<title>node28</title>
<path fill="#ff00ff" stroke="black" d="M373,-169.5C373,-169.5 403,-169.5 403,-169.5 409,-169.5 415,-175.5 415,-181.5 415,-181.5 415,-193.5 415,-193.5 415,-199.5 409,-205.5 403,-205.5 403,-205.5 373,-205.5 373,-205.5 367,-205.5 361,-199.5 361,-193.5 361,-193.5 361,-181.5 361,-181.5 361,-175.5 367,-169.5 373,-169.5"/>
<text text-anchor="middle" x="388" y="-183.8" font-family="Times,serif" font-size="14.00">0</text>
</g>
<!-- node27&#45;&gt;node28 -->
<g id="edge28" class="edge">
<title>node27&#45;&gt;node28</title>
<path fill="none" stroke="#ff00ff" d="M388,-242.31C388,-234.29 388,-224.55 388,-215.57"/>
<polygon fill="#ff00ff" stroke="#ff00ff" points="391.5,-215.53 388,-205.53 384.5,-215.53 391.5,-215.53"/>
</g>
<!-- node30 -->
<g id="node31" class="node">
<title>node30</title>
<path fill="#8b00ff" stroke="black" d="M463,-242.5C463,-242.5 493,-242.5 493,-242.5 499,-242.5 505,-248.5 505,-254.5 505,-254.5 505,-266.5 505,-266.5 505,-272.5 499,-278.5 493,-278.5 493,-278.5 463,-278.5 463,-278.5 457,-278.5 451,-272.5 451,-266.5 451,-266.5 451,-254.5 451,-254.5 451,-248.5 457,-242.5 463,-242.5"/>
<text text-anchor="middle" x="478" y="-256.8" font-family="Times,serif" font-size="14.00">print</text>
</g>
<!-- node29&#45;&gt;node30 -->
<g id="edge30" class="edge">
<title>node29&#45;&gt;node30</title>
<path fill="none" stroke="#8b00ff" d="M478,-315.31C478,-307.29 478,-297.55 478,-288.57"/>
<polygon fill="#8b00ff" stroke="#8b00ff" points="481.5,-288.53 478,-278.53 474.5,-288.53 481.5,-288.53"/>
</g>
<!-- node32 -->
<g id="node33" class="node">
<title>node32</title>
<path fill="#006400" stroke="black" d="M535,-242.5C535,-242.5 565,-242.5 565,-242.5 571,-242.5 577,-248.5 577,-254.5 577,-254.5 577,-266.5 577,-266.5 577,-272.5 571,-278.5 565,-278.5 565,-278.5 535,-278.5 535,-278.5 529,-278.5 523,-272.5 523,-266.5 523,-266.5 523,-254.5 523,-254.5 523,-248.5 529,-242.5 535,-242.5"/>
<text text-anchor="middle" x="550" y="-256.8" font-family="Times,serif" font-size="14.00">;</text>
</g>
<!-- node29&#45;&gt;node32 -->
<g id="edge32" class="edge">
<title>node29&#45;&gt;node32</title>
<path fill="none" stroke="#006400" d="M495.43,-315.31C504.45,-306.42 515.61,-295.41 525.49,-285.67"/>
<polygon fill="#006400" stroke="#006400" points="528.07,-288.04 532.73,-278.53 523.15,-283.06 528.07,-288.04"/>
</g>
<!-- node31 -->
<g id="node32" class="node">
<title>node31</title>
<path fill="#ff00ff" stroke="black" d="M463,-169.5C463,-169.5 493,-169.5 493,-169.5 499,-169.5 505,-175.5 505,-181.5 505,-181.5 505,-193.5 505,-193.5 505,-199.5 499,-205.5 493,-205.5 493,-205.5 463,-205.5 463,-205.5 457,-205.5 451,-199.5 451,-193.5 451,-193.5 451,-181.5 451,-181.5 451,-175.5 457,-169.5 463,-169.5"/>
<text text-anchor="middle" x="478" y="-183.8" font-family="Times,serif" font-size="14.00">2</text>
</g>
<!-- node30&#45;&gt;node31 -->
<g id="edge31" class="edge">
<title>node30&#45;&gt;node31</title>
<path fill="none" stroke="#ff00ff" d="M478,-242.31C478,-234.29 478,-224.55 478,-215.57"/>
<polygon fill="#ff00ff" stroke="#ff00ff" points="481.5,-215.53 478,-205.53 474.5,-215.53 481.5,-215.53"/>
</g>
<!-- node33 -->
<g id="node34" class="node">
<title>node33</title>
<path fill="#8b00ff" stroke="black" d="M535,-169.5C535,-169.5 565,-169.5 565,-169.5 571,-169.5 577,-175.5 577,-181.5 577,-181.5 577,-193.5 577,-193.5 577,-199.5 571,-205.5 565,-205.5 565,-205.5 535,-205.5 535,-205.5 529,-205.5 523,-199.5 523,-193.5 523,-193.5 523,-181.5 523,-181.5 523,-175.5 529,-169.5 535,-169.5"/>
<text text-anchor="middle" x="550" y="-183.8" font-family="Times,serif" font-size="14.00">=</text>
</g>
<!-- node32&#45;&gt;node33 -->
<g id="edge33" class="edge">
<title>node32&#45;&gt;node33</title>
<path fill="none" stroke="#8b00ff" d="M550,-242.31C550,-234.29 550,-224.55 550,-215.57"/>
<polygon fill="#8b00ff" stroke="#8b00ff" points="553.5,-215.53 550,-205.53 546.5,-215.53 553.5,-215.53"/>
</g>
<!-- node37 -->
<g id="node38" class="node">
<title>node37</title>
<path fill="#006400" stroke="black" d="M616,-169.5C616,-169.5 646,-169.5 646,-169.5 652,-169.5 658,-175.5 658,-181.5 658,-181.5 658,-193.5 658,-193.5 658,-199.5 652,-205.5 646,-205.5 646,-205.5 616,-205.5 616,-205.5 610,-205.5 604,-199.5 604,-193.5 604,-193.5 604,-181.5 604,-181.5 604,-175.5 610,-169.5 616,-169.5"/>
<text text-anchor="middle" x="631" y="-183.8" font-family="Times,serif" font-size="14.00">;</text>
</g>
<!-- node32&#45;&gt;node37 -->
<g id="edge37" class="edge">
<title>node32&#45;&gt;node37</title>
<path fill="none" stroke="#006400" d="M569.61,-242.31C579.86,-233.33 592.56,-222.19 603.75,-212.39"/>
<polygon fill="#006400" stroke="#006400" points="606.36,-214.75 611.57,-205.53 601.75,-209.49 606.36,-214.75"/>
</g>
<!-- node34 -->
<g id="node35" class="node">
<title>node34</title>
<path fill="#ccff99" stroke="black" d="M445,-96.5C445,-96.5 475,-96.5 475,-96.5 481,-96.5 487,-102.5 487,-108.5 487,-108.5 487,-120.5 487,-120.5 487,-126.5 481,-132.5 475,-132.5 475,-132.5 445,-132.5 445,-132.5 439,-132.5 433,-126.5 433,-120.5 433,-120.5 433,-108.5 433,-108.5 433,-102.5 439,-96.5 445,-96.5"/>
<text text-anchor="middle" x="460" y="-110.8" font-family="Times,serif" font-size="14.00">2</text>
</g>
<!-- node33&#45;&gt;node34 -->
<g id="edge34" class="edge">
<title>node33&#45;&gt;node34</title>
<path fill="none" stroke="#ccff99" d="M528.21,-169.31C516.61,-160.16 502.16,-148.76 489.56,-138.82"/>
<polygon fill="#ccff99" stroke="#ccff99" points="491.6,-135.97 481.59,-132.53 487.27,-141.47 491.6,-135.97"/>
</g>
<!-- node35 -->
<g id="node36" class="node">
<title>node35</title>
<ellipse fill="none" stroke="black" cx="550" cy="-114.5" rx="44.69" ry="18"/>
<text text-anchor="middle" x="550" y="-110.8" font-family="Times,serif" font-size="14.00">node35</text>
</g>
<!-- node33&#45;&gt;node35 -->
<g id="edge35" class="edge">
<title>node33&#45;&gt;node35</title>
<path fill="none" stroke="#000000" d="M550,-169.31C550,-161.29 550,-151.55 550,-142.57"/>
<polygon fill="#000000" stroke="#000000" points="553.5,-142.53 550,-132.53 546.5,-142.53 553.5,-142.53"/>
</g>
<!-- node36 -->
<g id="node37" class="node">
<title>node36</title>
<path fill="#ff00ff" stroke="black" d="M535,-23.5C535,-23.5 565,-23.5 565,-23.5 571,-23.5 577,-29.5 577,-35.5 577,-35.5 577,-47.5 577,-47.5 577,-53.5 571,-59.5 565,-59.5 565,-59.5 535,-59.5 535,-59.5 529,-59.5 523,-53.5 523,-47.5 523,-47.5 523,-35.5 523,-35.5 523,-29.5 529,-23.5 535,-23.5"/>
<text text-anchor="middle" x="550" y="-37.8" font-family="Times,serif" font-size="14.00">0</text>
</g>
<!-- node35&#45;&gt;node36 -->
<g id="edge36" class="edge">
<title>node35&#45;&gt;node36</title>
<path fill="none" stroke="#ff00ff" d="M550,-96.31C550,-88.29 550,-78.55 550,-69.57"/>
<polygon fill="#ff00ff" stroke="#ff00ff" points="553.5,-69.53 550,-59.53 546.5,-69.53 553.5,-69.53"/>
</g>
<!-- node38 -->
<g id="node39" class="node">
<title>node38</title>
<path fill="#8b00ff" stroke="black" d="M625,-96.5C625,-96.5 655,-96.5 655,-96.5 661,-96.5 667,-102.5 667,-108.5 667,-108.5 667,-120.5 667,-120.5 667,-126.5 661,-132.5 655,-132.5 655,-132.5 625,-132.5 625,-132.5 619,-132.5 613,-126.5 613,-120.5 613,-120.5 613,-108.5 613,-108.5 613,-102.5 619,-96.5 625,-96.5"/>
<text text-anchor="middle" x="640" y="-110.8" font-family="Times,serif" font-size="14.00">print</text>
</g>
<!-- node37&#45;&gt;node38 -->
<g id="edge38" class="edge">
<title>node37&#45;&gt;node38</title>
<path fill="none" stroke="#8b00ff" d="M633.18,-169.31C634.2,-161.29 635.43,-151.55 636.57,-142.57"/>
<polygon fill="#8b00ff" stroke="#8b00ff" points="640.06,-142.89 637.84,-132.53 633.11,-142.01 640.06,-142.89"/>
</g>
<!-- node39 -->
<g id="node40" class="node">
<title>node39</title>
<path fill="#ff00ff" stroke="black" d="M625,-23.5C625,-23.5 655,-23.5 655,-23.5 661,-23.5 667,-29.5 667,-35.5 667,-35.5 667,-47.5 667,-47.5 667,-53.5 661,-59.5 655,-59.5 655,-59.5 625,-59.5 625,-59.5 619,-59.5 613,-53.5 613,-47.5 613,-47.5 613,-35.5 613,-35.5 613,-29.5 619,-23.5 625,-23.5"/>
<text text-anchor="middle" x="640" y="-37.8" font-family="Times,serif" font-size="14.00">2</text>
</g>
<!-- node38&#45;&gt;node39 -->
<g id="edge39" class="edge">
<title>node38&#45;&gt;node39</title>
<path fill="none" stroke="#ff00ff" d="M640,-96.31C640,-88.29 640,-78.55 640,-69.57"/>
<polygon fill="#ff00ff" stroke="#ff00ff" points="643.5,-69.53 640,-59.53 636.5,-69.53 643.5,-69.53"/>
</g>
<!-- node41 -->
<g id="node42" class="node">
<title>node41</title>
<path fill="#ff0000" stroke="black" d="M702,-892.5C702,-892.5 732,-892.5 732,-892.5 738,-892.5 744,-898.5 744,-904.5 744,-904.5 744,-916.5 744,-916.5 744,-922.5 738,-928.5 732,-928.5 732,-928.5 702,-928.5 702,-928.5 696,-928.5 690,-922.5 690,-916.5 690,-916.5 690,-904.5 690,-904.5 690,-898.5 696,-892.5 702,-892.5"/>
<text text-anchor="middle" x="717" y="-906.8" font-family="Times,serif" font-size="14.00">2</text>
</g>
<!-- node40&#45;&gt;node41 -->
<g id="edge41" class="edge">
<title>node40&#45;&gt;node41</title>
<path fill="none" stroke="#ff0000" d="M717,-965.31C717,-957.29 717,-947.55 717,-938.57"/>
<polygon fill="#ff0000" stroke="#ff0000" points="720.5,-938.53 717,-928.53 713.5,-938.53 720.5,-938.53"/>
</g>
<!-- node83 -->
<g id="node84" class="node">
<title>node83</title>
<path fill="#006400" stroke="black" d="M1120,-892.5C1120,-892.5 1150,-892.5 1150,-892.5 1156,-892.5 1162,-898.5 1162,-904.5 1162,-904.5 1162,-916.5 1162,-916.5 1162,-922.5 1156,-928.5 1150,-928.5 1150,-928.5 1120,-928.5 1120,-928.5 1114,-928.5 1108,-922.5 1108,-916.5 1108,-916.5 1108,-904.5 1108,-904.5 1108,-898.5 1114,-892.5 1120,-892.5"/>
<text text-anchor="middle" x="1135" y="-906.8" font-family="Times,serif" font-size="14.00">;</text>
</g>
<!-- node40&#45;&gt;node83 -->
<g id="edge83" class="edge">
<title>node40&#45;&gt;node83</title>
<path fill="none" stroke="#006400" d="M744.1,-977.9C816.62,-965.58 1015.19,-931.85 1097.99,-917.79"/>
<polygon fill="#006400" stroke="#006400" points="1098.68,-921.22 1107.96,-916.09 1097.51,-914.32 1098.68,-921.22"/>
</g>
<!-- node42 -->
<g id="node43" class="node">
<title>node42</title>
<path fill="#ff00ff" stroke="black" d="M666,-819.5C666,-819.5 696,-819.5 696,-819.5 702,-819.5 708,-825.5 708,-831.5 708,-831.5 708,-843.5 708,-843.5 708,-849.5 702,-855.5 696,-855.5 696,-855.5 666,-855.5 666,-855.5 660,-855.5 654,-849.5 654,-843.5 654,-843.5 654,-831.5 654,-831.5 654,-825.5 660,-819.5 666,-819.5"/>
<text text-anchor="middle" x="681" y="-833.8" font-family="Times,serif" font-size="14.00">0</text>
</g>
<!-- node41&#45;&gt;node42 -->
<g id="edge42" class="edge">
<title>node41&#45;&gt;node42</title>
<path fill="none" stroke="#ff00ff" d="M708.29,-892.31C704.08,-884.03 698.95,-873.91 694.28,-864.69"/>
<polygon fill="#ff00ff" stroke="#ff00ff" points="697.28,-862.87 689.63,-855.53 691.04,-866.03 697.28,-862.87"/>
</g>
<!-- node43 -->
<g id="node44" class="node">
<title>node43</title>
<path fill="#006400" stroke="black" d="M738,-819.5C738,-819.5 768,-819.5 768,-819.5 774,-819.5 780,-825.5 780,-831.5 780,-831.5 780,-843.5 780,-843.5 780,-849.5 774,-855.5 768,-855.5 768,-855.5 738,-855.5 738,-855.5 732,-855.5 726,-849.5 726,-843.5 726,-843.5 726,-831.5 726,-831.5 726,-825.5 732,-819.5 738,-819.5"/>
<text text-anchor="middle" x="753" y="-833.8" font-family="Times,serif" font-size="14.00">;</text>
</g>
<!-- node41&#45;&gt;node43 -->
<g id="edge43" class="edge">
<title>node41&#45;&gt;node43</title>
<path fill="none" stroke="#006400" d="M725.71,-892.31C729.92,-884.03 735.05,-873.91 739.72,-864.69"/>
<polygon fill="#006400" stroke="#006400" points="742.96,-866.03 744.37,-855.53 736.72,-862.87 742.96,-866.03"/>
</g>
<!-- node44 -->
<g id="node45" class="node">
<title>node44</title>
<path fill="#8b00ff" stroke="black" d="M701,-746.5C701,-746.5 731,-746.5 731,-746.5 737,-746.5 743,-752.5 743,-758.5 743,-758.5 743,-770.5 743,-770.5 743,-776.5 737,-782.5 731,-782.5 731,-782.5 701,-782.5 701,-782.5 695,-782.5 689,-776.5 689,-770.5 689,-770.5 689,-758.5 689,-758.5 689,-752.5 695,-746.5 701,-746.5"/>
<text text-anchor="middle" x="716" y="-760.8" font-family="Times,serif" font-size="14.00">if</text>
</g>
<!-- node43&#45;&gt;node44 -->
<g id="edge44" class="edge">
<title>node43&#45;&gt;node44</title>
<path fill="none" stroke="#8b00ff" d="M744.04,-819.31C739.68,-810.94 734.34,-800.7 729.5,-791.4"/>
<polygon fill="#8b00ff" stroke="#8b00ff" points="732.6,-789.78 724.87,-782.53 726.39,-793.01 732.6,-789.78"/>
</g>
<!-- node56 -->
<g id="node57" class="node">
<title>node56</title>
<path fill="#006400" stroke="black" d="M775,-746.5C775,-746.5 805,-746.5 805,-746.5 811,-746.5 817,-752.5 817,-758.5 817,-758.5 817,-770.5 817,-770.5 817,-776.5 811,-782.5 805,-782.5 805,-782.5 775,-782.5 775,-782.5 769,-782.5 763,-776.5 763,-770.5 763,-770.5 763,-758.5 763,-758.5 763,-752.5 769,-746.5 775,-746.5"/>
<text text-anchor="middle" x="790" y="-760.8" font-family="Times,serif" font-size="14.00">;</text>
</g>
<!-- node43&#45;&gt;node56 -->
<g id="edge56" class="edge">
<title>node43&#45;&gt;node56</title>
<path fill="none" stroke="#006400" d="M761.96,-819.31C766.32,-810.94 771.66,-800.7 776.5,-791.4"/>
<polygon fill="#006400" stroke="#006400" points="779.61,-793.01 781.13,-782.53 773.4,-789.78 779.61,-793.01"/>
</g>
<!-- node45 -->
<g id="node46" class="node">
<title>node45</title>
<path fill="#ffffff" stroke="black" d="M663,-673.5C663,-673.5 697,-673.5 697,-673.5 703,-673.5 709,-679.5 709,-685.5 709,-685.5 709,-697.5 709,-697.5 709,-703.5 703,-709.5 697,-709.5 697,-709.5 663,-709.5 663,-709.5 657,-709.5 651,-703.5 651,-697.5 651,-697.5 651,-685.5 651,-685.5 651,-679.5 657,-673.5 663,-673.5"/>
<text text-anchor="middle" x="680" y="-687.8" font-family="Times,serif" font-size="14.00">op_no</text>
</g>
<!-- node44&#45;&gt;node45 -->
<g id="edge45" class="edge">
<title>node44&#45;&gt;node45</title>
<path fill="none" stroke="#ffffff" d="M707.29,-746.31C703.08,-738.03 697.95,-727.91 693.28,-718.69"/>
<polygon fill="#ffffff" stroke="#ffffff" points="696.28,-716.87 688.63,-709.53 690.04,-720.03 696.28,-716.87"/>
</g>
<!-- node46 -->
<g id="node47" class="node">
<title>node46</title>
<path fill="#8b00ff" stroke="black" d="M589,-567.5C589,-567.5 619,-567.5 619,-567.5 625,-567.5 631,-573.5 631,-579.5 631,-579.5 631,-624.5 631,-624.5 631,-630.5 625,-636.5 619,-636.5 619,-636.5 589,-636.5 589,-636.5 583,-636.5 577,-630.5 577,-624.5 577,-624.5 577,-579.5 577,-579.5 577,-573.5 583,-567.5 589,-567.5"/>
<text text-anchor="middle" x="604" y="-621.3" font-family="Times,serif" font-size="14.00"> </text>
<polyline fill="none" stroke="black" points="577,-613.5 631,-613.5 "/>
<text text-anchor="middle" x="604" y="-598.3" font-family="Times,serif" font-size="14.00"> </text>
<polyline fill="none" stroke="black" points="577,-590.5 631,-590.5 "/>
<text text-anchor="middle" x="604" y="-575.3" font-family="Times,serif" font-size="14.00"> </text>
</g>
<!-- node45&#45;&gt;node46 -->
<g id="edge46" class="edge">
<title>node45&#45;&gt;node46</title>
<path fill="none" stroke="#8b00ff" d="M664.98,-673.21C657.26,-664.32 647.5,-653.08 638.07,-642.22"/>
<polygon fill="#8b00ff" stroke="#8b00ff" points="640.49,-639.67 631.29,-634.42 635.2,-644.26 640.49,-639.67"/>
</g>
<!-- node53 -->
<g id="node54" class="node">
<title>node53</title>
<path fill="#006400" stroke="black" d="M665,-584C665,-584 695,-584 695,-584 701,-584 707,-590 707,-596 707,-596 707,-608 707,-608 707,-614 701,-620 695,-620 695,-620 665,-620 665,-620 659,-620 653,-614 653,-608 653,-608 653,-596 653,-596 653,-590 659,-584 665,-584"/>
<text text-anchor="middle" x="680" y="-598.3" font-family="Times,serif" font-size="14.00">;</text>
</g>
<!-- node45&#45;&gt;node53 -->
<g id="edge53" class="edge">
<title>node45&#45;&gt;node53</title>
<path fill="none" stroke="#006400" d="M680,-673.21C680,-660.99 680,-644.35 680,-630.34"/>
<polygon fill="#006400" stroke="#006400" points="683.5,-630.25 680,-620.25 676.5,-630.25 683.5,-630.25"/>
</g>
<!-- node47 -->
<g id="node48" class="node">
<title>node47</title>
<path fill="#8b00ff" stroke="black" d="M517,-478C517,-478 547,-478 547,-478 553,-478 559,-484 559,-490 559,-490 559,-502 559,-502 559,-508 553,-514 547,-514 547,-514 517,-514 517,-514 511,-514 505,-508 505,-502 505,-502 505,-490 505,-490 505,-484 511,-478 517,-478"/>
<text text-anchor="middle" x="532" y="-492.3" font-family="Times,serif" font-size="14.00">==</text>
</g>
<!-- node46&#45;&gt;node47 -->
<g id="edge47" class="edge">
<title>node46&#45;&gt;node47</title>
<path fill="none" stroke="#8b00ff" d="M580.62,-567.23C570.52,-552.64 558.89,-535.85 549.55,-522.34"/>
<polygon fill="#8b00ff" stroke="#8b00ff" points="552.34,-520.23 543.77,-514 546.58,-524.21 552.34,-520.23"/>
</g>
<!-- node50 -->
<g id="node51" class="node">
<title>node50</title>
<path fill="#8b00ff" stroke="black" d="M589,-478C589,-478 619,-478 619,-478 625,-478 631,-484 631,-490 631,-490 631,-502 631,-502 631,-508 625,-514 619,-514 619,-514 589,-514 589,-514 583,-514 577,-508 577,-502 577,-502 577,-490 577,-490 577,-484 583,-478 589,-478"/>
<text text-anchor="middle" x="604" y="-492.3" font-family="Times,serif" font-size="14.00">==</text>
</g>
<!-- node46&#45;&gt;node50 -->
<g id="edge50" class="edge">
<title>node46&#45;&gt;node50</title>
<path fill="none" stroke="#8b00ff" d="M604,-567.23C604,-553.33 604,-537.44 604,-524.29"/>
<polygon fill="#8b00ff" stroke="#8b00ff" points="607.5,-524 604,-514 600.5,-524 607.5,-524"/>
</g>
<!-- node48 -->
<g id="node49" class="node">
<title>node48</title>
<path fill="#ccff99" stroke="black" d="M445,-388.5C445,-388.5 475,-388.5 475,-388.5 481,-388.5 487,-394.5 487,-400.5 487,-400.5 487,-412.5 487,-412.5 487,-418.5 481,-424.5 475,-424.5 475,-424.5 445,-424.5 445,-424.5 439,-424.5 433,-418.5 433,-412.5 433,-412.5 433,-400.5 433,-400.5 433,-394.5 439,-388.5 445,-388.5"/>
<text text-anchor="middle" x="460" y="-402.8" font-family="Times,serif" font-size="14.00">0</text>
</g>
<!-- node47&#45;&gt;node48 -->
<g id="edge48" class="edge">
<title>node47&#45;&gt;node48</title>
<path fill="none" stroke="#ccff99" d="M517.78,-477.71C507.22,-464.89 492.67,-447.21 480.82,-432.8"/>
<polygon fill="#ccff99" stroke="#ccff99" points="483.25,-430.25 474.2,-424.75 477.85,-434.7 483.25,-430.25"/>
</g>
<!-- node49 -->
<g id="node50" class="node">
<title>node49</title>
<path fill="#00bfff" stroke="black" d="M517,-388.5C517,-388.5 547,-388.5 547,-388.5 553,-388.5 559,-394.5 559,-400.5 559,-400.5 559,-412.5 559,-412.5 559,-418.5 553,-424.5 547,-424.5 547,-424.5 517,-424.5 517,-424.5 511,-424.5 505,-418.5 505,-412.5 505,-412.5 505,-400.5 505,-400.5 505,-394.5 511,-388.5 517,-388.5"/>
<text text-anchor="middle" x="532" y="-402.8" font-family="Times,serif" font-size="14.00">2</text>
</g>
<!-- node47&#45;&gt;node49 -->
<g id="edge49" class="edge">
<title>node47&#45;&gt;node49</title>
<path fill="none" stroke="#00bfff" d="M532,-477.71C532,-465.49 532,-448.85 532,-434.84"/>
<polygon fill="#00bfff" stroke="#00bfff" points="535.5,-434.75 532,-424.75 528.5,-434.75 535.5,-434.75"/>
</g>
<!-- node51 -->
<g id="node52" class="node">
<title>node51</title>
<path fill="#ccff99" stroke="black" d="M589,-388.5C589,-388.5 619,-388.5 619,-388.5 625,-388.5 631,-394.5 631,-400.5 631,-400.5 631,-412.5 631,-412.5 631,-418.5 625,-424.5 619,-424.5 619,-424.5 589,-424.5 589,-424.5 583,-424.5 577,-418.5 577,-412.5 577,-412.5 577,-400.5 577,-400.5 577,-394.5 583,-388.5 589,-388.5"/>
<text text-anchor="middle" x="604" y="-402.8" font-family="Times,serif" font-size="14.00">0</text>
</g>
<!-- node50&#45;&gt;node51 -->
<g id="edge51" class="edge">
<title>node50&#45;&gt;node51</title>
<path fill="none" stroke="#ccff99" d="M604,-477.71C604,-465.49 604,-448.85 604,-434.84"/>
<polygon fill="#ccff99" stroke="#ccff99" points="607.5,-434.75 604,-424.75 600.5,-434.75 607.5,-434.75"/>
</g>
<!-- node52 -->
<g id="node53" class="node">
<title>node52</title>
<path fill="#00bfff" stroke="black" d="M661,-388.5C661,-388.5 691,-388.5 691,-388.5 697,-388.5 703,-394.5 703,-400.5 703,-400.5 703,-412.5 703,-412.5 703,-418.5 697,-424.5 691,-424.5 691,-424.5 661,-424.5 661,-424.5 655,-424.5 649,-418.5 649,-412.5 649,-412.5 649,-400.5 649,-400.5 649,-394.5 655,-388.5 661,-388.5"/>
<text text-anchor="middle" x="676" y="-402.8" font-family="Times,serif" font-size="14.00">1</text>
</g>
<!-- node50&#45;&gt;node52 -->
<g id="edge52" class="edge">
<title>node50&#45;&gt;node52</title>
<path fill="none" stroke="#00bfff" d="M618.22,-477.71C628.78,-464.89 643.33,-447.21 655.18,-432.8"/>
<polygon fill="#00bfff" stroke="#00bfff" points="658.15,-434.7 661.8,-424.75 652.75,-430.25 658.15,-434.7"/>
</g>
<!-- node54 -->
<g id="node55" class="node">
<title>node54</title>
<path fill="#8b00ff" stroke="black" d="M661,-478C661,-478 699,-478 699,-478 705,-478 711,-484 711,-490 711,-490 711,-502 711,-502 711,-508 705,-514 699,-514 699,-514 661,-514 661,-514 655,-514 649,-508 649,-502 649,-502 649,-490 649,-490 649,-484 655,-478 661,-478"/>
<text text-anchor="middle" x="680" y="-492.3" font-family="Times,serif" font-size="14.00">return</text>
</g>
<!-- node53&#45;&gt;node54 -->
<g id="edge54" class="edge">
<title>node53&#45;&gt;node54</title>
<path fill="none" stroke="#8b00ff" d="M680,-583.83C680,-567.64 680,-543.13 680,-524.27"/>
<polygon fill="#8b00ff" stroke="#8b00ff" points="683.5,-524.2 680,-514.2 676.5,-524.2 683.5,-524.2"/>
</g>
<!-- node55 -->
<g id="node56" class="node">
<title>node55</title>
<path fill="#ccff99" stroke="black" d="M733,-388.5C733,-388.5 763,-388.5 763,-388.5 769,-388.5 775,-394.5 775,-400.5 775,-400.5 775,-412.5 775,-412.5 775,-418.5 769,-424.5 763,-424.5 763,-424.5 733,-424.5 733,-424.5 727,-424.5 721,-418.5 721,-412.5 721,-412.5 721,-400.5 721,-400.5 721,-394.5 727,-388.5 733,-388.5"/>
<text text-anchor="middle" x="748" y="-402.8" font-family="Times,serif" font-size="14.00">0</text>
</g>
<!-- node54&#45;&gt;node55 -->
<g id="edge55" class="edge">
<title>node54&#45;&gt;node55</title>
<path fill="none" stroke="#ccff99" d="M693.43,-477.71C703.4,-464.89 717.14,-447.21 728.34,-432.8"/>
<polygon fill="#ccff99" stroke="#ccff99" points="731.22,-434.79 734.59,-424.75 725.69,-430.5 731.22,-434.79"/>
</g>
<!-- node57 -->
<g id="node58" class="node">
<title>node57</title>
<path fill="#8b00ff" stroke="black" d="M775,-673.5C775,-673.5 805,-673.5 805,-673.5 811,-673.5 817,-679.5 817,-685.5 817,-685.5 817,-697.5 817,-697.5 817,-703.5 811,-709.5 805,-709.5 805,-709.5 775,-709.5 775,-709.5 769,-709.5 763,-703.5 763,-697.5 763,-697.5 763,-685.5 763,-685.5 763,-679.5 769,-673.5 775,-673.5"/>
<text text-anchor="middle" x="790" y="-687.8" font-family="Times,serif" font-size="14.00">=</text>
</g>
<!-- node56&#45;&gt;node57 -->
<g id="edge57" class="edge">
<title>node56&#45;&gt;node57</title>
<path fill="none" stroke="#8b00ff" d="M790,-746.31C790,-738.29 790,-728.55 790,-719.57"/>
<polygon fill="#8b00ff" stroke="#8b00ff" points="793.5,-719.53 790,-709.53 786.5,-719.53 793.5,-719.53"/>
</g>
<!-- node62 -->
<g id="node63" class="node">
<title>node62</title>
<path fill="#006400" stroke="black" d="M919,-673.5C919,-673.5 949,-673.5 949,-673.5 955,-673.5 961,-679.5 961,-685.5 961,-685.5 961,-697.5 961,-697.5 961,-703.5 955,-709.5 949,-709.5 949,-709.5 919,-709.5 919,-709.5 913,-709.5 907,-703.5 907,-697.5 907,-697.5 907,-685.5 907,-685.5 907,-679.5 913,-673.5 919,-673.5"/>
<text text-anchor="middle" x="934" y="-687.8" font-family="Times,serif" font-size="14.00">;</text>
</g>
<!-- node56&#45;&gt;node62 -->
<g id="edge62" class="edge">
<title>node56&#45;&gt;node62</title>
<path fill="none" stroke="#006400" d="M817.09,-750.15C839.77,-738.96 872.36,-722.89 897.37,-710.56"/>
<polygon fill="#006400" stroke="#006400" points="899.13,-713.6 906.55,-706.04 896.03,-707.32 899.13,-713.6"/>
</g>
<!-- node58 -->
<g id="node59" class="node">
<title>node58</title>
<path fill="#ccff99" stroke="black" d="M739,-584C739,-584 769,-584 769,-584 775,-584 781,-590 781,-596 781,-596 781,-608 781,-608 781,-614 775,-620 769,-620 769,-620 739,-620 739,-620 733,-620 727,-614 727,-608 727,-608 727,-596 727,-596 727,-590 733,-584 739,-584"/>
<text text-anchor="middle" x="754" y="-598.3" font-family="Times,serif" font-size="14.00">1</text>
</g>
<!-- node57&#45;&gt;node58 -->
<g id="edge58" class="edge">
<title>node57&#45;&gt;node58</title>
<path fill="none" stroke="#ccff99" d="M782.89,-673.21C777.76,-660.75 770.74,-643.7 764.91,-629.52"/>
<polygon fill="#ccff99" stroke="#ccff99" points="768.14,-628.17 761.1,-620.25 761.67,-630.83 768.14,-628.17"/>
</g>
<!-- node59 -->
<g id="node60" class="node">
<title>node59</title>
<path fill="#8b00ff" stroke="black" d="M811,-584C811,-584 841,-584 841,-584 847,-584 853,-590 853,-596 853,-596 853,-608 853,-608 853,-614 847,-620 841,-620 841,-620 811,-620 811,-620 805,-620 799,-614 799,-608 799,-608 799,-596 799,-596 799,-590 805,-584 811,-584"/>
<text text-anchor="middle" x="826" y="-598.3" font-family="Times,serif" font-size="14.00">&#45;</text>
</g>
<!-- node57&#45;&gt;node59 -->
<g id="edge59" class="edge">
<title>node57&#45;&gt;node59</title>
<path fill="none" stroke="#8b00ff" d="M797.11,-673.21C802.24,-660.75 809.26,-643.7 815.09,-629.52"/>
<polygon fill="#8b00ff" stroke="#8b00ff" points="818.33,-630.83 818.9,-620.25 811.86,-628.17 818.33,-630.83"/>
</g>
<!-- node60 -->
<g id="node61" class="node">
<title>node60</title>
<path fill="#ccff99" stroke="black" d="M741,-478C741,-478 771,-478 771,-478 777,-478 783,-484 783,-490 783,-490 783,-502 783,-502 783,-508 777,-514 771,-514 771,-514 741,-514 741,-514 735,-514 729,-508 729,-502 729,-502 729,-490 729,-490 729,-484 735,-478 741,-478"/>
<text text-anchor="middle" x="756" y="-492.3" font-family="Times,serif" font-size="14.00">0</text>
</g>
<!-- node59&#45;&gt;node60 -->
<g id="edge60" class="edge">
<title>node59&#45;&gt;node60</title>
<path fill="none" stroke="#ccff99" d="M814.44,-583.83C803.24,-567.19 786.12,-541.76 773.3,-522.71"/>
<polygon fill="#ccff99" stroke="#ccff99" points="776.06,-520.54 767.58,-514.2 770.26,-524.45 776.06,-520.54"/>
</g>
<!-- node61 -->
<g id="node62" class="node">
<title>node61</title>
<path fill="#00bfff" stroke="black" d="M813,-478C813,-478 843,-478 843,-478 849,-478 855,-484 855,-490 855,-490 855,-502 855,-502 855,-508 849,-514 843,-514 843,-514 813,-514 813,-514 807,-514 801,-508 801,-502 801,-502 801,-490 801,-490 801,-484 807,-478 813,-478"/>
<text text-anchor="middle" x="828" y="-492.3" font-family="Times,serif" font-size="14.00">1</text>
</g>
<!-- node59&#45;&gt;node61 -->
<g id="edge61" class="edge">
<title>node59&#45;&gt;node61</title>
<path fill="none" stroke="#00bfff" d="M826.33,-583.83C826.64,-567.64 827.11,-543.13 827.48,-524.27"/>
<polygon fill="#00bfff" stroke="#00bfff" points="830.98,-524.26 827.67,-514.2 823.98,-524.13 830.98,-524.26"/>
</g>
<!-- node63 -->
<g id="node64" class="node">
<title>node63</title>
<path fill="#8b00ff" stroke="black" d="M919,-584C919,-584 949,-584 949,-584 955,-584 961,-590 961,-596 961,-596 961,-608 961,-608 961,-614 955,-620 949,-620 949,-620 919,-620 919,-620 913,-620 907,-614 907,-608 907,-608 907,-596 907,-596 907,-590 913,-584 919,-584"/>
<text text-anchor="middle" x="934" y="-598.3" font-family="Times,serif" font-size="14.00">=</text>
</g>
<!-- node62&#45;&gt;node63 -->
<g id="edge63" class="edge">
<title>node62&#45;&gt;node63</title>
<path fill="none" stroke="#8b00ff" d="M934,-673.21C934,-660.99 934,-644.35 934,-630.34"/>
<polygon fill="#8b00ff" stroke="#8b00ff" points="937.5,-630.25 934,-620.25 930.5,-630.25 937.5,-630.25"/>
</g>
<!-- node68 -->
<g id="node69" class="node">
<title>node68</title>
<path fill="#006400" stroke="black" d="M1034,-584C1034,-584 1064,-584 1064,-584 1070,-584 1076,-590 1076,-596 1076,-596 1076,-608 1076,-608 1076,-614 1070,-620 1064,-620 1064,-620 1034,-620 1034,-620 1028,-620 1022,-614 1022,-608 1022,-608 1022,-596 1022,-596 1022,-590 1028,-584 1034,-584"/>
<text text-anchor="middle" x="1049" y="-598.3" font-family="Times,serif" font-size="14.00">;</text>
</g>
<!-- node62&#45;&gt;node68 -->
<g id="edge68" class="edge">
<title>node62&#45;&gt;node68</title>
<path fill="none" stroke="#006400" d="M956.45,-673.42C974.18,-659.93 999.1,-640.97 1018.61,-626.12"/>
<polygon fill="#006400" stroke="#006400" points="1020.77,-628.88 1026.61,-620.04 1016.53,-623.31 1020.77,-628.88"/>
</g>
<!-- node64 -->
<g id="node65" class="node">
<title>node64</title>
<path fill="#ccff99" stroke="black" d="M885,-478C885,-478 915,-478 915,-478 921,-478 927,-484 927,-490 927,-490 927,-502 927,-502 927,-508 921,-514 915,-514 915,-514 885,-514 885,-514 879,-514 873,-508 873,-502 873,-502 873,-490 873,-490 873,-484 879,-478 885,-478"/>
<text text-anchor="middle" x="900" y="-492.3" font-family="Times,serif" font-size="14.00">2</text>
</g>
<!-- node63&#45;&gt;node64 -->
<g id="edge64" class="edge">
<title>node63&#45;&gt;node64</title>
<path fill="none" stroke="#ccff99" d="M928.39,-583.83C923.05,-567.49 914.93,-542.67 908.74,-523.75"/>
<polygon fill="#ccff99" stroke="#ccff99" points="912.06,-522.62 905.62,-514.2 905.4,-524.79 912.06,-522.62"/>
</g>
<!-- node65 -->
<g id="node66" class="node">
<title>node65</title>
<path fill="#8b00ff" stroke="black" d="M957,-478C957,-478 987,-478 987,-478 993,-478 999,-484 999,-490 999,-490 999,-502 999,-502 999,-508 993,-514 987,-514 987,-514 957,-514 957,-514 951,-514 945,-508 945,-502 945,-502 945,-490 945,-490 945,-484 951,-478 957,-478"/>
<text text-anchor="middle" x="972" y="-492.3" font-family="Times,serif" font-size="14.00">&#45;</text>
</g>
<!-- node63&#45;&gt;node65 -->
<g id="edge65" class="edge">
<title>node63&#45;&gt;node65</title>
<path fill="none" stroke="#8b00ff" d="M940.27,-583.83C946.24,-567.49 955.31,-542.67 962.23,-523.75"/>
<polygon fill="#8b00ff" stroke="#8b00ff" points="965.57,-524.79 965.72,-514.2 959,-522.39 965.57,-524.79"/>
</g>
<!-- node66 -->
<g id="node67" class="node">
<title>node66</title>
<path fill="#ccff99" stroke="black" d="M845,-388.5C845,-388.5 875,-388.5 875,-388.5 881,-388.5 887,-394.5 887,-400.5 887,-400.5 887,-412.5 887,-412.5 887,-418.5 881,-424.5 875,-424.5 875,-424.5 845,-424.5 845,-424.5 839,-424.5 833,-418.5 833,-412.5 833,-412.5 833,-400.5 833,-400.5 833,-394.5 839,-388.5 845,-388.5"/>
<text text-anchor="middle" x="860" y="-402.8" font-family="Times,serif" font-size="14.00">0</text>
</g>
<!-- node65&#45;&gt;node66 -->
<g id="edge66" class="edge">
<title>node65&#45;&gt;node66</title>
<path fill="none" stroke="#ccff99" d="M954.88,-477.88C949.05,-472.31 942.39,-466.22 936,-461 922.98,-450.36 907.97,-439.52 894.75,-430.41"/>
<polygon fill="#ccff99" stroke="#ccff99" points="896.59,-427.43 886.36,-424.69 892.65,-433.21 896.59,-427.43"/>
</g>
<!-- node67 -->
<g id="node68" class="node">
<title>node67</title>
<path fill="#00bfff" stroke="black" d="M917,-388.5C917,-388.5 947,-388.5 947,-388.5 953,-388.5 959,-394.5 959,-400.5 959,-400.5 959,-412.5 959,-412.5 959,-418.5 953,-424.5 947,-424.5 947,-424.5 917,-424.5 917,-424.5 911,-424.5 905,-418.5 905,-412.5 905,-412.5 905,-400.5 905,-400.5 905,-394.5 911,-388.5 917,-388.5"/>
<text text-anchor="middle" x="932" y="-402.8" font-family="Times,serif" font-size="14.00">2</text>
</g>
<!-- node65&#45;&gt;node67 -->
<g id="edge67" class="edge">
<title>node65&#45;&gt;node67</title>
<path fill="none" stroke="#00bfff" d="M964.1,-477.71C958.4,-465.25 950.6,-448.2 944.12,-434.02"/>
<polygon fill="#00bfff" stroke="#00bfff" points="947.23,-432.39 939.89,-424.75 940.86,-435.3 947.23,-432.39"/>
</g>
<!-- node69 -->
<g id="node70" class="node">
<title>node69</title>
<path fill="#8b00ff" stroke="black" d="M1034,-478C1034,-478 1064,-478 1064,-478 1070,-478 1076,-484 1076,-490 1076,-490 1076,-502 1076,-502 1076,-508 1070,-514 1064,-514 1064,-514 1034,-514 1034,-514 1028,-514 1022,-508 1022,-502 1022,-502 1022,-490 1022,-490 1022,-484 1028,-478 1034,-478"/>
<text text-anchor="middle" x="1049" y="-492.3" font-family="Times,serif" font-size="14.00">=</text>
</g>
<!-- node68&#45;&gt;node69 -->
<g id="edge69" class="edge">
<title>node68&#45;&gt;node69</title>
<path fill="none" stroke="#8b00ff" d="M1049,-583.83C1049,-567.64 1049,-543.13 1049,-524.27"/>
<polygon fill="#8b00ff" stroke="#8b00ff" points="1052.5,-524.2 1049,-514.2 1045.5,-524.2 1052.5,-524.2"/>
</g>
<!-- node73 -->
<g id="node74" class="node">
<title>node73</title>
<path fill="#006400" stroke="black" d="M1169,-478C1169,-478 1199,-478 1199,-478 1205,-478 1211,-484 1211,-490 1211,-490 1211,-502 1211,-502 1211,-508 1205,-514 1199,-514 1199,-514 1169,-514 1169,-514 1163,-514 1157,-508 1157,-502 1157,-502 1157,-490 1157,-490 1157,-484 1163,-478 1169,-478"/>
<text text-anchor="middle" x="1184" y="-492.3" font-family="Times,serif" font-size="14.00">;</text>
</g>
<!-- node68&#45;&gt;node73 -->
<g id="edge73" class="edge">
<title>node68&#45;&gt;node73</title>
<path fill="none" stroke="#006400" d="M1071.29,-583.83C1093.77,-566.51 1128.61,-539.67 1153.61,-520.41"/>
<polygon fill="#006400" stroke="#006400" points="1155.89,-523.07 1161.67,-514.2 1151.62,-517.53 1155.89,-523.07"/>
</g>
<!-- node70 -->
<g id="node71" class="node">
<title>node70</title>
<path fill="#ccff99" stroke="black" d="M989,-388.5C989,-388.5 1019,-388.5 1019,-388.5 1025,-388.5 1031,-394.5 1031,-400.5 1031,-400.5 1031,-412.5 1031,-412.5 1031,-418.5 1025,-424.5 1019,-424.5 1019,-424.5 989,-424.5 989,-424.5 983,-424.5 977,-418.5 977,-412.5 977,-412.5 977,-400.5 977,-400.5 977,-394.5 983,-388.5 989,-388.5"/>
<text text-anchor="middle" x="1004" y="-402.8" font-family="Times,serif" font-size="14.00">1</text>
</g>
<!-- node69&#45;&gt;node70 -->
<g id="edge70" class="edge">
<title>node69&#45;&gt;node70</title>
<path fill="none" stroke="#ccff99" d="M1040.11,-477.71C1033.7,-465.25 1024.93,-448.2 1017.64,-434.02"/>
<polygon fill="#ccff99" stroke="#ccff99" points="1020.56,-432.04 1012.87,-424.75 1014.33,-435.24 1020.56,-432.04"/>
</g>
<!-- node71 -->
<g id="node72" class="node">
<title>node71</title>
<ellipse fill="none" stroke="black" cx="1094" cy="-406.5" rx="44.69" ry="18"/>
<text text-anchor="middle" x="1094" y="-402.8" font-family="Times,serif" font-size="14.00">node71</text>
</g>
<!-- node69&#45;&gt;node71 -->
<g id="edge71" class="edge">
<title>node69&#45;&gt;node71</title>
<path fill="none" stroke="#000000" d="M1057.89,-477.71C1064.34,-465.17 1073.18,-447.97 1080.5,-433.74"/>
<polygon fill="#000000" stroke="#000000" points="1083.82,-434.95 1085.28,-424.45 1077.59,-431.75 1083.82,-434.95"/>
</g>
<!-- node72 -->
<g id="node73" class="node">
<title>node72</title>
<path fill="#ff00ff" stroke="black" d="M1043,-315.5C1043,-315.5 1073,-315.5 1073,-315.5 1079,-315.5 1085,-321.5 1085,-327.5 1085,-327.5 1085,-339.5 1085,-339.5 1085,-345.5 1079,-351.5 1073,-351.5 1073,-351.5 1043,-351.5 1043,-351.5 1037,-351.5 1031,-345.5 1031,-339.5 1031,-339.5 1031,-327.5 1031,-327.5 1031,-321.5 1037,-315.5 1043,-315.5"/>
<text text-anchor="middle" x="1058" y="-329.8" font-family="Times,serif" font-size="14.00">1</text>
</g>
<!-- node71&#45;&gt;node72 -->
<g id="edge72" class="edge">
<title>node71&#45;&gt;node72</title>
<path fill="none" stroke="#ff00ff" d="M1085.47,-388.67C1081.23,-380.31 1076,-370.01 1071.26,-360.64"/>
<polygon fill="#ff00ff" stroke="#ff00ff" points="1074.36,-359.03 1066.72,-351.7 1068.12,-362.2 1074.36,-359.03"/>
</g>
<!-- node74 -->
<g id="node75" class="node">
<title>node74</title>
<path fill="#8b00ff" stroke="black" d="M1169,-388.5C1169,-388.5 1199,-388.5 1199,-388.5 1205,-388.5 1211,-394.5 1211,-400.5 1211,-400.5 1211,-412.5 1211,-412.5 1211,-418.5 1205,-424.5 1199,-424.5 1199,-424.5 1169,-424.5 1169,-424.5 1163,-424.5 1157,-418.5 1157,-412.5 1157,-412.5 1157,-400.5 1157,-400.5 1157,-394.5 1163,-388.5 1169,-388.5"/>
<text text-anchor="middle" x="1184" y="-402.8" font-family="Times,serif" font-size="14.00">=</text>
</g>
<!-- node73&#45;&gt;node74 -->
<g id="edge74" class="edge">
<title>node73&#45;&gt;node74</title>
<path fill="none" stroke="#8b00ff" d="M1184,-477.71C1184,-465.49 1184,-448.85 1184,-434.84"/>
<polygon fill="#8b00ff" stroke="#8b00ff" points="1187.5,-434.75 1184,-424.75 1180.5,-434.75 1187.5,-434.75"/>
</g>
<!-- node78 -->
<g id="node79" class="node">
<title>node78</title>
<path fill="#006400" stroke="black" d="M1241,-388.5C1241,-388.5 1271,-388.5 1271,-388.5 1277,-388.5 1283,-394.5 1283,-400.5 1283,-400.5 1283,-412.5 1283,-412.5 1283,-418.5 1277,-424.5 1271,-424.5 1271,-424.5 1241,-424.5 1241,-424.5 1235,-424.5 1229,-418.5 1229,-412.5 1229,-412.5 1229,-400.5 1229,-400.5 1229,-394.5 1235,-388.5 1241,-388.5"/>
<text text-anchor="middle" x="1256" y="-402.8" font-family="Times,serif" font-size="14.00">;</text>
</g>
<!-- node73&#45;&gt;node78 -->
<g id="edge78" class="edge">
<title>node73&#45;&gt;node78</title>
<path fill="none" stroke="#006400" d="M1198.22,-477.71C1208.78,-464.89 1223.33,-447.21 1235.18,-432.8"/>
<polygon fill="#006400" stroke="#006400" points="1238.15,-434.7 1241.8,-424.75 1232.75,-430.25 1238.15,-434.7"/>
</g>
<!-- node75 -->
<g id="node76" class="node">
<title>node75</title>
<path fill="#ccff99" stroke="black" d="M1115,-315.5C1115,-315.5 1145,-315.5 1145,-315.5 1151,-315.5 1157,-321.5 1157,-327.5 1157,-327.5 1157,-339.5 1157,-339.5 1157,-345.5 1151,-351.5 1145,-351.5 1145,-351.5 1115,-351.5 1115,-351.5 1109,-351.5 1103,-345.5 1103,-339.5 1103,-339.5 1103,-327.5 1103,-327.5 1103,-321.5 1109,-315.5 1115,-315.5"/>
<text text-anchor="middle" x="1130" y="-329.8" font-family="Times,serif" font-size="14.00">2</text>
</g>
<!-- node74&#45;&gt;node75 -->
<g id="edge75" class="edge">
<title>node74&#45;&gt;node75</title>
<path fill="none" stroke="#ccff99" d="M1170.93,-388.31C1164.36,-379.68 1156.28,-369.06 1149.04,-359.53"/>
<polygon fill="#ccff99" stroke="#ccff99" points="1151.79,-357.37 1142.95,-351.53 1146.22,-361.61 1151.79,-357.37"/>
</g>
<!-- node76 -->
<g id="node77" class="node">
<title>node76</title>
<ellipse fill="none" stroke="black" cx="1220" cy="-333.5" rx="44.69" ry="18"/>
<text text-anchor="middle" x="1220" y="-329.8" font-family="Times,serif" font-size="14.00">node76</text>
</g>
<!-- node74&#45;&gt;node76 -->
<g id="edge76" class="edge">
<title>node74&#45;&gt;node76</title>
<path fill="none" stroke="#000000" d="M1192.71,-388.31C1196.92,-380.03 1202.05,-369.91 1206.72,-360.69"/>
<polygon fill="#000000" stroke="#000000" points="1209.96,-362.03 1211.37,-351.53 1203.72,-358.87 1209.96,-362.03"/>
</g>
<!-- node77 -->
<g id="node78" class="node">
<title>node77</title>
<path fill="#ff00ff" stroke="black" d="M1205,-242.5C1205,-242.5 1235,-242.5 1235,-242.5 1241,-242.5 1247,-248.5 1247,-254.5 1247,-254.5 1247,-266.5 1247,-266.5 1247,-272.5 1241,-278.5 1235,-278.5 1235,-278.5 1205,-278.5 1205,-278.5 1199,-278.5 1193,-272.5 1193,-266.5 1193,-266.5 1193,-254.5 1193,-254.5 1193,-248.5 1199,-242.5 1205,-242.5"/>
<text text-anchor="middle" x="1220" y="-256.8" font-family="Times,serif" font-size="14.00">2</text>
</g>
<!-- node76&#45;&gt;node77 -->
<g id="edge77" class="edge">
<title>node76&#45;&gt;node77</title>
<path fill="none" stroke="#ff00ff" d="M1220,-315.31C1220,-307.29 1220,-297.55 1220,-288.57"/>
<polygon fill="#ff00ff" stroke="#ff00ff" points="1223.5,-288.53 1220,-278.53 1216.5,-288.53 1223.5,-288.53"/>
</g>
<!-- node79 -->
<g id="node80" class="node">
<title>node79</title>
<path fill="#8b00ff" stroke="black" d="M1295,-315.5C1295,-315.5 1333,-315.5 1333,-315.5 1339,-315.5 1345,-321.5 1345,-327.5 1345,-327.5 1345,-339.5 1345,-339.5 1345,-345.5 1339,-351.5 1333,-351.5 1333,-351.5 1295,-351.5 1295,-351.5 1289,-351.5 1283,-345.5 1283,-339.5 1283,-339.5 1283,-327.5 1283,-327.5 1283,-321.5 1289,-315.5 1295,-315.5"/>
<text text-anchor="middle" x="1314" y="-329.8" font-family="Times,serif" font-size="14.00">return</text>
</g>
<!-- node78&#45;&gt;node79 -->
<g id="edge79" class="edge">
<title>node78&#45;&gt;node79</title>
<path fill="none" stroke="#8b00ff" d="M1270.04,-388.31C1277.09,-379.68 1285.77,-369.06 1293.55,-359.53"/>
<polygon fill="#8b00ff" stroke="#8b00ff" points="1296.47,-361.49 1300.09,-351.53 1291.05,-357.06 1296.47,-361.49"/>
</g>
<!-- node80 -->
<g id="node81" class="node">
<title>node80</title>
<path fill="#8b00ff" stroke="black" d="M1299,-242.5C1299,-242.5 1329,-242.5 1329,-242.5 1335,-242.5 1341,-248.5 1341,-254.5 1341,-254.5 1341,-266.5 1341,-266.5 1341,-272.5 1335,-278.5 1329,-278.5 1329,-278.5 1299,-278.5 1299,-278.5 1293,-278.5 1287,-272.5 1287,-266.5 1287,-266.5 1287,-254.5 1287,-254.5 1287,-248.5 1293,-242.5 1299,-242.5"/>
<text text-anchor="middle" x="1314" y="-256.8" font-family="Times,serif" font-size="14.00">+</text>
</g>
<!-- node79&#45;&gt;node80 -->
<g id="edge80" class="edge">
<title>node79&#45;&gt;node80</title>
<path fill="none" stroke="#8b00ff" d="M1314,-315.31C1314,-307.29 1314,-297.55 1314,-288.57"/>
<polygon fill="#8b00ff" stroke="#8b00ff" points="1317.5,-288.53 1314,-278.53 1310.5,-288.53 1317.5,-288.53"/>
</g>
<!-- node81 -->
<g id="node82" class="node">
<title>node81</title>
<path fill="#ccff99" stroke="black" d="M1263,-169.5C1263,-169.5 1293,-169.5 1293,-169.5 1299,-169.5 1305,-175.5 1305,-181.5 1305,-181.5 1305,-193.5 1305,-193.5 1305,-199.5 1299,-205.5 1293,-205.5 1293,-205.5 1263,-205.5 1263,-205.5 1257,-205.5 1251,-199.5 1251,-193.5 1251,-193.5 1251,-181.5 1251,-181.5 1251,-175.5 1257,-169.5 1263,-169.5"/>
<text text-anchor="middle" x="1278" y="-183.8" font-family="Times,serif" font-size="14.00">2</text>
</g>
<!-- node80&#45;&gt;node81 -->
<g id="edge81" class="edge">
<title>node80&#45;&gt;node81</title>
<path fill="none" stroke="#ccff99" d="M1305.29,-242.31C1301.08,-234.03 1295.95,-223.91 1291.28,-214.69"/>
<polygon fill="#ccff99" stroke="#ccff99" points="1294.28,-212.87 1286.63,-205.53 1288.04,-216.03 1294.28,-212.87"/>
</g>
<!-- node82 -->
<g id="node83" class="node">
<title>node82</title>
<path fill="#ccff99" stroke="black" d="M1335,-169.5C1335,-169.5 1365,-169.5 1365,-169.5 1371,-169.5 1377,-175.5 1377,-181.5 1377,-181.5 1377,-193.5 1377,-193.5 1377,-199.5 1371,-205.5 1365,-205.5 1365,-205.5 1335,-205.5 1335,-205.5 1329,-205.5 1323,-199.5 1323,-193.5 1323,-193.5 1323,-181.5 1323,-181.5 1323,-175.5 1329,-169.5 1335,-169.5"/>
<text text-anchor="middle" x="1350" y="-183.8" font-family="Times,serif" font-size="14.00">1</text>
</g>
<!-- node80&#45;&gt;node82 -->
<g id="edge82" class="edge">
<title>node80&#45;&gt;node82</title>
<path fill="none" stroke="#ccff99" d="M1322.71,-242.31C1326.92,-234.03 1332.05,-223.91 1336.72,-214.69"/>
<polygon fill="#ccff99" stroke="#ccff99" points="1339.96,-216.03 1341.37,-205.53 1333.72,-212.87 1339.96,-216.03"/>
</g>
<!-- node84 -->
<g id="node85" class="node">
<title>node84</title>
<path fill="#ff0000" stroke="black" d="M1120,-819.5C1120,-819.5 1150,-819.5 1150,-819.5 1156,-819.5 1162,-825.5 1162,-831.5 1162,-831.5 1162,-843.5 1162,-843.5 1162,-849.5 1156,-855.5 1150,-855.5 1150,-855.5 1120,-855.5 1120,-855.5 1114,-855.5 1108,-849.5 1108,-843.5 1108,-843.5 1108,-831.5 1108,-831.5 1108,-825.5 1114,-819.5 1120,-819.5"/>
<text text-anchor="middle" x="1135" y="-833.8" font-family="Times,serif" font-size="14.00">1</text>
</g>
<!-- node83&#45;&gt;node84 -->
<g id="edge84" class="edge">
<title>node83&#45;&gt;node84</title>
<path fill="none" stroke="#ff0000" d="M1135,-892.31C1135,-884.29 1135,-874.55 1135,-865.57"/>
<polygon fill="#ff0000" stroke="#ff0000" points="1138.5,-865.53 1135,-855.53 1131.5,-865.53 1138.5,-865.53"/>
</g>
<!-- node111 -->
<g id="node112" class="node">
<title>node111</title>
<path fill="#006400" stroke="black" d="M1192,-819.5C1192,-819.5 1222,-819.5 1222,-819.5 1228,-819.5 1234,-825.5 1234,-831.5 1234,-831.5 1234,-843.5 1234,-843.5 1234,-849.5 1228,-855.5 1222,-855.5 1222,-855.5 1192,-855.5 1192,-855.5 1186,-855.5 1180,-849.5 1180,-843.5 1180,-843.5 1180,-831.5 1180,-831.5 1180,-825.5 1186,-819.5 1192,-819.5"/>
<text text-anchor="middle" x="1207" y="-833.8" font-family="Times,serif" font-size="14.00">;</text>
</g>
<!-- node83&#45;&gt;node111 -->
<g id="edge111" class="edge">
<title>node83&#45;&gt;node111</title>
<path fill="none" stroke="#006400" d="M1152.43,-892.31C1161.45,-883.42 1172.61,-872.41 1182.49,-862.67"/>
<polygon fill="#006400" stroke="#006400" points="1185.07,-865.04 1189.73,-855.53 1180.15,-860.06 1185.07,-865.04"/>
</g>
<!-- node85 -->
<g id="node86" class="node">
<title>node85</title>
<path fill="#ff00ff" stroke="black" d="M1120,-746.5C1120,-746.5 1150,-746.5 1150,-746.5 1156,-746.5 1162,-752.5 1162,-758.5 1162,-758.5 1162,-770.5 1162,-770.5 1162,-776.5 1156,-782.5 1150,-782.5 1150,-782.5 1120,-782.5 1120,-782.5 1114,-782.5 1108,-776.5 1108,-770.5 1108,-770.5 1108,-758.5 1108,-758.5 1108,-752.5 1114,-746.5 1120,-746.5"/>
<text text-anchor="middle" x="1135" y="-760.8" font-family="Times,serif" font-size="14.00">0</text>
</g>
<!-- node84&#45;&gt;node85 -->
<g id="edge85" class="edge">
<title>node84&#45;&gt;node85</title>
<path fill="none" stroke="#ff00ff" d="M1135,-819.31C1135,-811.29 1135,-801.55 1135,-792.57"/>
<polygon fill="#ff00ff" stroke="#ff00ff" points="1138.5,-792.53 1135,-782.53 1131.5,-792.53 1138.5,-792.53"/>
</g>
<!-- node86 -->
<g id="node87" class="node">
<title>node86</title>
<path fill="#006400" stroke="black" d="M1422,-746.5C1422,-746.5 1452,-746.5 1452,-746.5 1458,-746.5 1464,-752.5 1464,-758.5 1464,-758.5 1464,-770.5 1464,-770.5 1464,-776.5 1458,-782.5 1452,-782.5 1452,-782.5 1422,-782.5 1422,-782.5 1416,-782.5 1410,-776.5 1410,-770.5 1410,-770.5 1410,-758.5 1410,-758.5 1410,-752.5 1416,-746.5 1422,-746.5"/>
<text text-anchor="middle" x="1437" y="-760.8" font-family="Times,serif" font-size="14.00">;</text>
</g>
<!-- node84&#45;&gt;node86 -->
<g id="edge86" class="edge">
<title>node84&#45;&gt;node86</title>
<path fill="none" stroke="#006400" d="M1162.21,-822.38C1165.14,-821.14 1168.1,-819.98 1171,-819 1250.34,-792.23 1347.74,-776.84 1399.88,-769.94"/>
<polygon fill="#006400" stroke="#006400" points="1400.52,-773.38 1409.99,-768.63 1399.62,-766.44 1400.52,-773.38"/>
</g>
<!-- node87 -->
<g id="node88" class="node">
<title>node87</title>
<path fill="#8b00ff" stroke="black" d="M1422,-673.5C1422,-673.5 1452,-673.5 1452,-673.5 1458,-673.5 1464,-679.5 1464,-685.5 1464,-685.5 1464,-697.5 1464,-697.5 1464,-703.5 1458,-709.5 1452,-709.5 1452,-709.5 1422,-709.5 1422,-709.5 1416,-709.5 1410,-703.5 1410,-697.5 1410,-697.5 1410,-685.5 1410,-685.5 1410,-679.5 1416,-673.5 1422,-673.5"/>
<text text-anchor="middle" x="1437" y="-687.8" font-family="Times,serif" font-size="14.00">if</text>
</g>
<!-- node86&#45;&gt;node87 -->
<g id="edge87" class="edge">
<title>node86&#45;&gt;node87</title>
<path fill="none" stroke="#8b00ff" d="M1437,-746.31C1437,-738.29 1437,-728.55 1437,-719.57"/>
<polygon fill="#8b00ff" stroke="#8b00ff" points="1440.5,-719.53 1437,-709.53 1433.5,-719.53 1440.5,-719.53"/>
</g>
<!-- node95 -->
<g id="node96" class="node">
<title>node95</title>
<path fill="#006400" stroke="black" d="M1574,-673.5C1574,-673.5 1604,-673.5 1604,-673.5 1610,-673.5 1616,-679.5 1616,-685.5 1616,-685.5 1616,-697.5 1616,-697.5 1616,-703.5 1610,-709.5 1604,-709.5 1604,-709.5 1574,-709.5 1574,-709.5 1568,-709.5 1562,-703.5 1562,-697.5 1562,-697.5 1562,-685.5 1562,-685.5 1562,-679.5 1568,-673.5 1574,-673.5"/>
<text text-anchor="middle" x="1589" y="-687.8" font-family="Times,serif" font-size="14.00">;</text>
</g>
<!-- node86&#45;&gt;node95 -->
<g id="edge95" class="edge">
<title>node86&#45;&gt;node95</title>
<path fill="none" stroke="#006400" d="M1464.17,-750.81C1488.85,-739.28 1525.43,-722.2 1552.61,-709.5"/>
<polygon fill="#006400" stroke="#006400" points="1554.23,-712.61 1561.8,-705.2 1551.26,-706.26 1554.23,-712.61"/>
</g>
<!-- node88 -->
<g id="node89" class="node">
<title>node88</title>
<path fill="#ffffff" stroke="black" d="M1420,-584C1420,-584 1454,-584 1454,-584 1460,-584 1466,-590 1466,-596 1466,-596 1466,-608 1466,-608 1466,-614 1460,-620 1454,-620 1454,-620 1420,-620 1420,-620 1414,-620 1408,-614 1408,-608 1408,-608 1408,-596 1408,-596 1408,-590 1414,-584 1420,-584"/>
<text text-anchor="middle" x="1437" y="-598.3" font-family="Times,serif" font-size="14.00">op_no</text>
</g>
<!-- node87&#45;&gt;node88 -->
<g id="edge88" class="edge">
<title>node87&#45;&gt;node88</title>
<path fill="none" stroke="#ffffff" d="M1437,-673.21C1437,-660.99 1437,-644.35 1437,-630.34"/>
<polygon fill="#ffffff" stroke="#ffffff" points="1440.5,-630.25 1437,-620.25 1433.5,-630.25 1440.5,-630.25"/>
</g>
<!-- node89 -->
<g id="node90" class="node">
<title>node89</title>
<path fill="#8b00ff" stroke="black" d="M1385,-478C1385,-478 1415,-478 1415,-478 1421,-478 1427,-484 1427,-490 1427,-490 1427,-502 1427,-502 1427,-508 1421,-514 1415,-514 1415,-514 1385,-514 1385,-514 1379,-514 1373,-508 1373,-502 1373,-502 1373,-490 1373,-490 1373,-484 1379,-478 1385,-478"/>
<text text-anchor="middle" x="1400" y="-492.3" font-family="Times,serif" font-size="14.00">==</text>
</g>
<!-- node88&#45;&gt;node89 -->
<g id="edge89" class="edge">
<title>node88&#45;&gt;node89</title>
<path fill="none" stroke="#8b00ff" d="M1430.89,-583.83C1425.08,-567.49 1416.25,-542.67 1409.52,-523.75"/>
<polygon fill="#8b00ff" stroke="#8b00ff" points="1412.77,-522.45 1406.12,-514.2 1406.17,-524.79 1412.77,-522.45"/>
</g>
<!-- node92 -->
<g id="node93" class="node">
<title>node92</title>
<path fill="#006400" stroke="black" d="M1459,-478C1459,-478 1489,-478 1489,-478 1495,-478 1501,-484 1501,-490 1501,-490 1501,-502 1501,-502 1501,-508 1495,-514 1489,-514 1489,-514 1459,-514 1459,-514 1453,-514 1447,-508 1447,-502 1447,-502 1447,-490 1447,-490 1447,-484 1453,-478 1459,-478"/>
<text text-anchor="middle" x="1474" y="-492.3" font-family="Times,serif" font-size="14.00">;</text>
</g>
<!-- node88&#45;&gt;node92 -->
<g id="edge92" class="edge">
<title>node88&#45;&gt;node92</title>
<path fill="none" stroke="#006400" d="M1443.11,-583.83C1448.92,-567.49 1457.75,-542.67 1464.48,-523.75"/>
<polygon fill="#006400" stroke="#006400" points="1467.83,-524.79 1467.88,-514.2 1461.23,-522.45 1467.83,-524.79"/>
</g>
<!-- node90 -->
<g id="node91" class="node">
<title>node90</title>
<path fill="#ccff99" stroke="black" d="M1313,-388.5C1313,-388.5 1343,-388.5 1343,-388.5 1349,-388.5 1355,-394.5 1355,-400.5 1355,-400.5 1355,-412.5 1355,-412.5 1355,-418.5 1349,-424.5 1343,-424.5 1343,-424.5 1313,-424.5 1313,-424.5 1307,-424.5 1301,-418.5 1301,-412.5 1301,-412.5 1301,-400.5 1301,-400.5 1301,-394.5 1307,-388.5 1313,-388.5"/>
<text text-anchor="middle" x="1328" y="-402.8" font-family="Times,serif" font-size="14.00">0</text>
</g>
<!-- node89&#45;&gt;node90 -->
<g id="edge90" class="edge">
<title>node89&#45;&gt;node90</title>
<path fill="none" stroke="#ccff99" d="M1385.78,-477.71C1375.22,-464.89 1360.67,-447.21 1348.82,-432.8"/>
<polygon fill="#ccff99" stroke="#ccff99" points="1351.25,-430.25 1342.2,-424.75 1345.85,-434.7 1351.25,-430.25"/>
</g>
<!-- node91 -->
<g id="node92" class="node">
<title>node91</title>
<path fill="#00bfff" stroke="black" d="M1385,-388.5C1385,-388.5 1415,-388.5 1415,-388.5 1421,-388.5 1427,-394.5 1427,-400.5 1427,-400.5 1427,-412.5 1427,-412.5 1427,-418.5 1421,-424.5 1415,-424.5 1415,-424.5 1385,-424.5 1385,-424.5 1379,-424.5 1373,-418.5 1373,-412.5 1373,-412.5 1373,-400.5 1373,-400.5 1373,-394.5 1379,-388.5 1385,-388.5"/>
<text text-anchor="middle" x="1400" y="-402.8" font-family="Times,serif" font-size="14.00">1</text>
</g>
<!-- node89&#45;&gt;node91 -->
<g id="edge91" class="edge">
<title>node89&#45;&gt;node91</title>
<path fill="none" stroke="#00bfff" d="M1400,-477.71C1400,-465.49 1400,-448.85 1400,-434.84"/>
<polygon fill="#00bfff" stroke="#00bfff" points="1403.5,-434.75 1400,-424.75 1396.5,-434.75 1403.5,-434.75"/>
</g>
<!-- node93 -->
<g id="node94" class="node">
<title>node93</title>
<path fill="#8b00ff" stroke="black" d="M1457,-388.5C1457,-388.5 1495,-388.5 1495,-388.5 1501,-388.5 1507,-394.5 1507,-400.5 1507,-400.5 1507,-412.5 1507,-412.5 1507,-418.5 1501,-424.5 1495,-424.5 1495,-424.5 1457,-424.5 1457,-424.5 1451,-424.5 1445,-418.5 1445,-412.5 1445,-412.5 1445,-400.5 1445,-400.5 1445,-394.5 1451,-388.5 1457,-388.5"/>
<text text-anchor="middle" x="1476" y="-402.8" font-family="Times,serif" font-size="14.00">return</text>
</g>
<!-- node92&#45;&gt;node93 -->
<g id="edge93" class="edge">
<title>node92&#45;&gt;node93</title>
<path fill="none" stroke="#8b00ff" d="M1474.4,-477.71C1474.67,-465.49 1475.05,-448.85 1475.38,-434.84"/>
<polygon fill="#8b00ff" stroke="#8b00ff" points="1478.88,-434.83 1475.61,-424.75 1471.88,-434.67 1478.88,-434.83"/>
</g>
<!-- node94 -->
<g id="node95" class="node">
<title>node94</title>
<path fill="#ccff99" stroke="black" d="M1461,-315.5C1461,-315.5 1491,-315.5 1491,-315.5 1497,-315.5 1503,-321.5 1503,-327.5 1503,-327.5 1503,-339.5 1503,-339.5 1503,-345.5 1497,-351.5 1491,-351.5 1491,-351.5 1461,-351.5 1461,-351.5 1455,-351.5 1449,-345.5 1449,-339.5 1449,-339.5 1449,-327.5 1449,-327.5 1449,-321.5 1455,-315.5 1461,-315.5"/>
<text text-anchor="middle" x="1476" y="-329.8" font-family="Times,serif" font-size="14.00">0</text>
</g>
<!-- node93&#45;&gt;node94 -->
<g id="edge94" class="edge">
<title>node93&#45;&gt;node94</title>
<path fill="none" stroke="#ccff99" d="M1476,-388.31C1476,-380.29 1476,-370.55 1476,-361.57"/>
<polygon fill="#ccff99" stroke="#ccff99" points="1479.5,-361.53 1476,-351.53 1472.5,-361.53 1479.5,-361.53"/>
</g>
<!-- node96 -->
<g id="node97" class="node">
<title>node96</title>
<path fill="#8b00ff" stroke="black" d="M1574,-584C1574,-584 1604,-584 1604,-584 1610,-584 1616,-590 1616,-596 1616,-596 1616,-608 1616,-608 1616,-614 1610,-620 1604,-620 1604,-620 1574,-620 1574,-620 1568,-620 1562,-614 1562,-608 1562,-608 1562,-596 1562,-596 1562,-590 1568,-584 1574,-584"/>
<text text-anchor="middle" x="1589" y="-598.3" font-family="Times,serif" font-size="14.00">=</text>
</g>
<!-- node95&#45;&gt;node96 -->
<g id="edge96" class="edge">
<title>node95&#45;&gt;node96</title>
<path fill="none" stroke="#8b00ff" d="M1589,-673.21C1589,-660.99 1589,-644.35 1589,-630.34"/>
<polygon fill="#8b00ff" stroke="#8b00ff" points="1592.5,-630.25 1589,-620.25 1585.5,-630.25 1592.5,-630.25"/>
</g>
<!-- node101 -->
<g id="node102" class="node">
<title>node101</title>
<path fill="#006400" stroke="black" d="M1682,-584C1682,-584 1712,-584 1712,-584 1718,-584 1724,-590 1724,-596 1724,-596 1724,-608 1724,-608 1724,-614 1718,-620 1712,-620 1712,-620 1682,-620 1682,-620 1676,-620 1670,-614 1670,-608 1670,-608 1670,-596 1670,-596 1670,-590 1676,-584 1682,-584"/>
<text text-anchor="middle" x="1697" y="-598.3" font-family="Times,serif" font-size="14.00">;</text>
</g>
<!-- node95&#45;&gt;node101 -->
<g id="edge101" class="edge">
<title>node95&#45;&gt;node101</title>
<path fill="none" stroke="#006400" d="M1610.08,-673.42C1626.58,-660.05 1649.72,-641.31 1667.97,-626.52"/>
<polygon fill="#006400" stroke="#006400" points="1670.41,-629.05 1675.97,-620.04 1666,-623.61 1670.41,-629.05"/>
</g>
<!-- node97 -->
<g id="node98" class="node">
<title>node97</title>
<path fill="#ccff99" stroke="black" d="M1535,-478C1535,-478 1565,-478 1565,-478 1571,-478 1577,-484 1577,-490 1577,-490 1577,-502 1577,-502 1577,-508 1571,-514 1565,-514 1565,-514 1535,-514 1535,-514 1529,-514 1523,-508 1523,-502 1523,-502 1523,-490 1523,-490 1523,-484 1529,-478 1535,-478"/>
<text text-anchor="middle" x="1550" y="-492.3" font-family="Times,serif" font-size="14.00">1</text>
</g>
<!-- node96&#45;&gt;node97 -->
<g id="edge97" class="edge">
<title>node96&#45;&gt;node97</title>
<path fill="none" stroke="#ccff99" d="M1582.56,-583.83C1576.43,-567.49 1567.13,-542.67 1560.03,-523.75"/>
<polygon fill="#ccff99" stroke="#ccff99" points="1563.24,-522.33 1556.45,-514.2 1556.68,-524.79 1563.24,-522.33"/>
</g>
<!-- node98 -->
<g id="node99" class="node">
<title>node98</title>
<path fill="#8b00ff" stroke="black" d="M1607,-478C1607,-478 1637,-478 1637,-478 1643,-478 1649,-484 1649,-490 1649,-490 1649,-502 1649,-502 1649,-508 1643,-514 1637,-514 1637,-514 1607,-514 1607,-514 1601,-514 1595,-508 1595,-502 1595,-502 1595,-490 1595,-490 1595,-484 1601,-478 1607,-478"/>
<text text-anchor="middle" x="1622" y="-492.3" font-family="Times,serif" font-size="14.00">&#45;</text>
</g>
<!-- node96&#45;&gt;node98 -->
<g id="edge98" class="edge">
<title>node96&#45;&gt;node98</title>
<path fill="none" stroke="#8b00ff" d="M1594.45,-583.83C1599.63,-567.49 1607.51,-542.67 1613.51,-523.75"/>
<polygon fill="#8b00ff" stroke="#8b00ff" points="1616.85,-524.79 1616.54,-514.2 1610.18,-522.67 1616.85,-524.79"/>
</g>
<!-- node99 -->
<g id="node100" class="node">
<title>node99</title>
<path fill="#ccff99" stroke="black" d="M1537,-388.5C1537,-388.5 1567,-388.5 1567,-388.5 1573,-388.5 1579,-394.5 1579,-400.5 1579,-400.5 1579,-412.5 1579,-412.5 1579,-418.5 1573,-424.5 1567,-424.5 1567,-424.5 1537,-424.5 1537,-424.5 1531,-424.5 1525,-418.5 1525,-412.5 1525,-412.5 1525,-400.5 1525,-400.5 1525,-394.5 1531,-388.5 1537,-388.5"/>
<text text-anchor="middle" x="1552" y="-402.8" font-family="Times,serif" font-size="14.00">0</text>
</g>
<!-- node98&#45;&gt;node99 -->
<g id="edge99" class="edge">
<title>node98&#45;&gt;node99</title>
<path fill="none" stroke="#ccff99" d="M1608.17,-477.71C1597.91,-464.89 1583.77,-447.21 1572.24,-432.8"/>
<polygon fill="#ccff99" stroke="#ccff99" points="1574.78,-430.37 1565.8,-424.75 1569.31,-434.75 1574.78,-430.37"/>
</g>
<!-- node100 -->
<g id="node101" class="node">
<title>node100</title>
<path fill="#00bfff" stroke="black" d="M1609,-388.5C1609,-388.5 1639,-388.5 1639,-388.5 1645,-388.5 1651,-394.5 1651,-400.5 1651,-400.5 1651,-412.5 1651,-412.5 1651,-418.5 1645,-424.5 1639,-424.5 1639,-424.5 1609,-424.5 1609,-424.5 1603,-424.5 1597,-418.5 1597,-412.5 1597,-412.5 1597,-400.5 1597,-400.5 1597,-394.5 1603,-388.5 1609,-388.5"/>
<text text-anchor="middle" x="1624" y="-402.8" font-family="Times,serif" font-size="14.00">1</text>
</g>
<!-- node98&#45;&gt;node100 -->
<g id="edge100" class="edge">
<title>node98&#45;&gt;node100</title>
<path fill="none" stroke="#00bfff" d="M1622.4,-477.71C1622.67,-465.49 1623.05,-448.85 1623.38,-434.84"/>
<polygon fill="#00bfff" stroke="#00bfff" points="1626.88,-434.83 1623.61,-424.75 1619.88,-434.67 1626.88,-434.83"/>
</g>
<!-- node102 -->
<g id="node103" class="node">
<title>node102</title>
<path fill="#8b00ff" stroke="black" d="M1682,-478C1682,-478 1712,-478 1712,-478 1718,-478 1724,-484 1724,-490 1724,-490 1724,-502 1724,-502 1724,-508 1718,-514 1712,-514 1712,-514 1682,-514 1682,-514 1676,-514 1670,-508 1670,-502 1670,-502 1670,-490 1670,-490 1670,-484 1676,-478 1682,-478"/>
<text text-anchor="middle" x="1697" y="-492.3" font-family="Times,serif" font-size="14.00">=</text>
</g>
<!-- node101&#45;&gt;node102 -->
<g id="edge102" class="edge">
<title>node101&#45;&gt;node102</title>
<path fill="none" stroke="#8b00ff" d="M1697,-583.83C1697,-567.64 1697,-543.13 1697,-524.27"/>
<polygon fill="#8b00ff" stroke="#8b00ff" points="1700.5,-524.2 1697,-514.2 1693.5,-524.2 1700.5,-524.2"/>
</g>
<!-- node108 -->
<g id="node109" class="node">
<title>node108</title>
<path fill="#006400" stroke="black" d="M1802,-478C1802,-478 1832,-478 1832,-478 1838,-478 1844,-484 1844,-490 1844,-490 1844,-502 1844,-502 1844,-508 1838,-514 1832,-514 1832,-514 1802,-514 1802,-514 1796,-514 1790,-508 1790,-502 1790,-502 1790,-490 1790,-490 1790,-484 1796,-478 1802,-478"/>
<text text-anchor="middle" x="1817" y="-492.3" font-family="Times,serif" font-size="14.00">;</text>
</g>
<!-- node101&#45;&gt;node108 -->
<g id="edge108" class="edge">
<title>node101&#45;&gt;node108</title>
<path fill="none" stroke="#006400" d="M1716.82,-583.83C1736.62,-566.66 1767.23,-540.14 1789.4,-520.92"/>
<polygon fill="#006400" stroke="#006400" points="1791.89,-523.39 1797.16,-514.2 1787.31,-518.1 1791.89,-523.39"/>
</g>
<!-- node103 -->
<g id="node104" class="node">
<title>node103</title>
<path fill="#ccff99" stroke="black" d="M1681,-388.5C1681,-388.5 1711,-388.5 1711,-388.5 1717,-388.5 1723,-394.5 1723,-400.5 1723,-400.5 1723,-412.5 1723,-412.5 1723,-418.5 1717,-424.5 1711,-424.5 1711,-424.5 1681,-424.5 1681,-424.5 1675,-424.5 1669,-418.5 1669,-412.5 1669,-412.5 1669,-400.5 1669,-400.5 1669,-394.5 1675,-388.5 1681,-388.5"/>
<text text-anchor="middle" x="1696" y="-402.8" font-family="Times,serif" font-size="14.00">0</text>
</g>
<!-- node102&#45;&gt;node103 -->
<g id="edge103" class="edge">
<title>node102&#45;&gt;node103</title>
<path fill="none" stroke="#ccff99" d="M1696.8,-477.71C1696.66,-465.49 1696.47,-448.85 1696.31,-434.84"/>
<polygon fill="#ccff99" stroke="#ccff99" points="1699.81,-434.71 1696.2,-424.75 1692.81,-434.79 1699.81,-434.71"/>
</g>
<!-- node104 -->
<g id="node105" class="node">
<title>node104</title>
<path fill="#8b00ff" stroke="black" d="M1753,-388.5C1753,-388.5 1783,-388.5 1783,-388.5 1789,-388.5 1795,-394.5 1795,-400.5 1795,-400.5 1795,-412.5 1795,-412.5 1795,-418.5 1789,-424.5 1783,-424.5 1783,-424.5 1753,-424.5 1753,-424.5 1747,-424.5 1741,-418.5 1741,-412.5 1741,-412.5 1741,-400.5 1741,-400.5 1741,-394.5 1747,-388.5 1753,-388.5"/>
<text text-anchor="middle" x="1768" y="-402.8" font-family="Times,serif" font-size="14.00">*</text>
</g>
<!-- node102&#45;&gt;node104 -->
<g id="edge104" class="edge">
<title>node102&#45;&gt;node104</title>
<path fill="none" stroke="#8b00ff" d="M1711.03,-477.71C1721.43,-464.89 1735.78,-447.21 1747.47,-432.8"/>
<polygon fill="#8b00ff" stroke="#8b00ff" points="1750.42,-434.72 1754,-424.75 1744.98,-430.31 1750.42,-434.72"/>
</g>
<!-- node105 -->
<g id="node106" class="node">
<title>node105</title>
<path fill="#ccff99" stroke="black" d="M1657,-315.5C1657,-315.5 1687,-315.5 1687,-315.5 1693,-315.5 1699,-321.5 1699,-327.5 1699,-327.5 1699,-339.5 1699,-339.5 1699,-345.5 1693,-351.5 1687,-351.5 1687,-351.5 1657,-351.5 1657,-351.5 1651,-351.5 1645,-345.5 1645,-339.5 1645,-339.5 1645,-327.5 1645,-327.5 1645,-321.5 1651,-315.5 1657,-315.5"/>
<text text-anchor="middle" x="1672" y="-329.8" font-family="Times,serif" font-size="14.00">0</text>
</g>
<!-- node104&#45;&gt;node105 -->
<g id="edge105" class="edge">
<title>node104&#45;&gt;node105</title>
<path fill="none" stroke="#ccff99" d="M1744.76,-388.31C1732.26,-379.07 1716.68,-367.54 1703.14,-357.53"/>
<polygon fill="#ccff99" stroke="#ccff99" points="1705.15,-354.66 1695.02,-351.53 1700.98,-360.29 1705.15,-354.66"/>
</g>
<!-- node106 -->
<g id="node107" class="node">
<title>node106</title>
<ellipse fill="none" stroke="black" cx="1768" cy="-333.5" rx="50.89" ry="18"/>
<text text-anchor="middle" x="1768" y="-329.8" font-family="Times,serif" font-size="14.00">node106</text>
</g>
<!-- node104&#45;&gt;node106 -->
<g id="edge106" class="edge">
<title>node104&#45;&gt;node106</title>
<path fill="none" stroke="#000000" d="M1768,-388.31C1768,-380.29 1768,-370.55 1768,-361.57"/>
<polygon fill="#000000" stroke="#000000" points="1771.5,-361.53 1768,-351.53 1764.5,-361.53 1771.5,-361.53"/>
</g>
<!-- node107 -->
<g id="node108" class="node">
<title>node107</title>
<path fill="#ff00ff" stroke="black" d="M1753,-242.5C1753,-242.5 1783,-242.5 1783,-242.5 1789,-242.5 1795,-248.5 1795,-254.5 1795,-254.5 1795,-266.5 1795,-266.5 1795,-272.5 1789,-278.5 1783,-278.5 1783,-278.5 1753,-278.5 1753,-278.5 1747,-278.5 1741,-272.5 1741,-266.5 1741,-266.5 1741,-254.5 1741,-254.5 1741,-248.5 1747,-242.5 1753,-242.5"/>
<text text-anchor="middle" x="1768" y="-256.8" font-family="Times,serif" font-size="14.00">1</text>
</g>
<!-- node106&#45;&gt;node107 -->
<g id="edge107" class="edge">
<title>node106&#45;&gt;node107</title>
<path fill="none" stroke="#ff00ff" d="M1768,-315.31C1768,-307.29 1768,-297.55 1768,-288.57"/>
<polygon fill="#ff00ff" stroke="#ff00ff" points="1771.5,-288.53 1768,-278.53 1764.5,-288.53 1771.5,-288.53"/>
</g>
<!-- node109 -->
<g id="node110" class="node">
<title>node109</title>
<path fill="#8b00ff" stroke="black" d="M1835,-388.5C1835,-388.5 1873,-388.5 1873,-388.5 1879,-388.5 1885,-394.5 1885,-400.5 1885,-400.5 1885,-412.5 1885,-412.5 1885,-418.5 1879,-424.5 1873,-424.5 1873,-424.5 1835,-424.5 1835,-424.5 1829,-424.5 1823,-418.5 1823,-412.5 1823,-412.5 1823,-400.5 1823,-400.5 1823,-394.5 1829,-388.5 1835,-388.5"/>
<text text-anchor="middle" x="1854" y="-402.8" font-family="Times,serif" font-size="14.00">return</text>
</g>
<!-- node108&#45;&gt;node109 -->
<g id="edge109" class="edge">
<title>node108&#45;&gt;node109</title>
<path fill="none" stroke="#8b00ff" d="M1824.31,-477.71C1829.58,-465.25 1836.79,-448.2 1842.79,-434.02"/>
<polygon fill="#8b00ff" stroke="#8b00ff" points="1846.03,-435.32 1846.71,-424.75 1839.59,-432.6 1846.03,-435.32"/>
</g>
<!-- node110 -->
<g id="node111" class="node">
<title>node110</title>
<path fill="#ccff99" stroke="black" d="M1849,-315.5C1849,-315.5 1879,-315.5 1879,-315.5 1885,-315.5 1891,-321.5 1891,-327.5 1891,-327.5 1891,-339.5 1891,-339.5 1891,-345.5 1885,-351.5 1879,-351.5 1879,-351.5 1849,-351.5 1849,-351.5 1843,-351.5 1837,-345.5 1837,-339.5 1837,-339.5 1837,-327.5 1837,-327.5 1837,-321.5 1843,-315.5 1849,-315.5"/>
<text text-anchor="middle" x="1864" y="-329.8" font-family="Times,serif" font-size="14.00">0</text>
</g>
<!-- node109&#45;&gt;node110 -->
<g id="edge110" class="edge">
<title>node109&#45;&gt;node110</title>
<path fill="none" stroke="#ccff99" d="M1856.42,-388.31C1857.55,-380.29 1858.92,-370.55 1860.19,-361.57"/>
<polygon fill="#ccff99" stroke="#ccff99" points="1863.67,-361.92 1861.6,-351.53 1856.74,-360.94 1863.67,-361.92"/>
</g>
</g>
</svg>
