<?xml version="1.0" encoding="UTF-8" standalone="no"?>
<!DOCTYPE svg PUBLIC "-//W3C//DTD SVG 1.1//EN"
 "http://www.w3.org/Graphics/SVG/1.1/DTD/svg11.dtd">
<!-- Generated by graphviz version 2.43.0 (0)
 -->
<!-- Title: List Pages: 1 -->
<svg width="1027pt" height="904pt"
 viewBox="0.00 0.00 1027.00 904.00" xmlns="http://www.w3.org/2000/svg" xmlns:xlink="http://www.w3.org/1999/xlink">
<g id="graph0" class="graph" transform="scale(1 1) rotate(0) translate(4 900)">
<title>List</title>
<polygon fill="#696969" stroke="transparent" points="-4,4 -4,-900 1023,-900 1023,4 -4,4"/>
<text text-anchor="middle" x="509.5" y="-7.8" font-family="Times,serif" font-size="14.00">tree_dump from function main, Tree/frontend/src/main.cpp:14</text>
<!-- node0 -->
<g id="node1" class="node">
<title>node0</title>
<path fill="#006400" stroke="black" d="M374,-859.5C374,-859.5 404,-859.5 404,-859.5 410,-859.5 416,-865.5 416,-871.5 416,-871.5 416,-883.5 416,-883.5 416,-889.5 410,-895.5 404,-895.5 404,-895.5 374,-895.5 374,-895.5 368,-895.5 362,-889.5 362,-883.5 362,-883.5 362,-871.5 362,-871.5 362,-865.5 368,-859.5 374,-859.5"/>
<text text-anchor="middle" x="389" y="-873.8" font-family="Times,serif" font-size="14.00">;</text>
</g>
<!-- node1 -->
<g id="node2" class="node">
<title>node1</title>
<path fill="#ff0000" stroke="black" d="M338,-786.5C338,-786.5 368,-786.5 368,-786.5 374,-786.5 380,-792.5 380,-798.5 380,-798.5 380,-810.5 380,-810.5 380,-816.5 374,-822.5 368,-822.5 368,-822.5 338,-822.5 338,-822.5 332,-822.5 326,-816.5 326,-810.5 326,-810.5 326,-798.5 326,-798.5 326,-792.5 332,-786.5 338,-786.5"/>
<text text-anchor="middle" x="353" y="-800.8" font-family="Times,serif" font-size="14.00">0</text>
</g>
<!-- node0&#45;&gt;node1 -->
<g id="edge1" class="edge">
<title>node0&#45;&gt;node1</title>
<path fill="none" stroke="#ff0000" d="M380.29,-859.31C376.08,-851.03 370.95,-840.91 366.28,-831.69"/>
<polygon fill="#ff0000" stroke="#ff0000" points="369.28,-829.87 361.63,-822.53 363.04,-833.03 369.28,-829.87"/>
</g>
<!-- node32 -->
<g id="node33" class="node">
<title>node32</title>
<path fill="#006400" stroke="black" d="M483,-786.5C483,-786.5 513,-786.5 513,-786.5 519,-786.5 525,-792.5 525,-798.5 525,-798.5 525,-810.5 525,-810.5 525,-816.5 519,-822.5 513,-822.5 513,-822.5 483,-822.5 483,-822.5 477,-822.5 471,-816.5 471,-810.5 471,-810.5 471,-798.5 471,-798.5 471,-792.5 477,-786.5 483,-786.5"/>
<text text-anchor="middle" x="498" y="-800.8" font-family="Times,serif" font-size="14.00">;</text>
</g>
<!-- node0&#45;&gt;node32 -->
<g id="edge32" class="edge">
<title>node0&#45;&gt;node32</title>
<path fill="none" stroke="#006400" d="M415.11,-859.49C429.56,-850.08 447.71,-838.26 463.34,-828.07"/>
<polygon fill="#006400" stroke="#006400" points="465.26,-831 471.73,-822.61 461.44,-825.14 465.26,-831"/>
</g>
<!-- node2 -->
<g id="node3" class="node">
<title>node2</title>
<path fill="#006400" stroke="black" d="M319,-713.5C319,-713.5 349,-713.5 349,-713.5 355,-713.5 361,-719.5 361,-725.5 361,-725.5 361,-737.5 361,-737.5 361,-743.5 355,-749.5 349,-749.5 349,-749.5 319,-749.5 319,-749.5 313,-749.5 307,-743.5 307,-737.5 307,-737.5 307,-725.5 307,-725.5 307,-719.5 313,-713.5 319,-713.5"/>
<text text-anchor="middle" x="334" y="-727.8" font-family="Times,serif" font-size="14.00">;</text>
</g>
<!-- node1&#45;&gt;node2 -->
<g id="edge2" class="edge">
<title>node1&#45;&gt;node2</title>
<path fill="none" stroke="#006400" d="M348.4,-786.31C346.23,-778.2 343.59,-768.34 341.17,-759.28"/>
<polygon fill="#006400" stroke="#006400" points="344.52,-758.28 338.56,-749.53 337.76,-760.09 344.52,-758.28"/>
</g>
<!-- node3 -->
<g id="node4" class="node">
<title>node3</title>
<path fill="#8b00ff" stroke="black" d="M247,-640.5C247,-640.5 277,-640.5 277,-640.5 283,-640.5 289,-646.5 289,-652.5 289,-652.5 289,-664.5 289,-664.5 289,-670.5 283,-676.5 277,-676.5 277,-676.5 247,-676.5 247,-676.5 241,-676.5 235,-670.5 235,-664.5 235,-664.5 235,-652.5 235,-652.5 235,-646.5 241,-640.5 247,-640.5"/>
<text text-anchor="middle" x="262" y="-654.8" font-family="Times,serif" font-size="14.00">input</text>
</g>
<!-- node2&#45;&gt;node3 -->
<g id="edge3" class="edge">
<title>node2&#45;&gt;node3</title>
<path fill="none" stroke="#8b00ff" d="M316.57,-713.31C307.55,-704.42 296.39,-693.41 286.51,-683.67"/>
<polygon fill="#8b00ff" stroke="#8b00ff" points="288.85,-681.06 279.27,-676.53 283.93,-686.04 288.85,-681.06"/>
</g>
<!-- node5 -->
<g id="node6" class="node">
<title>node5</title>
<path fill="#006400" stroke="black" d="M319,-640.5C319,-640.5 349,-640.5 349,-640.5 355,-640.5 361,-646.5 361,-652.5 361,-652.5 361,-664.5 361,-664.5 361,-670.5 355,-676.5 349,-676.5 349,-676.5 319,-676.5 319,-676.5 313,-676.5 307,-670.5 307,-664.5 307,-664.5 307,-652.5 307,-652.5 307,-646.5 313,-640.5 319,-640.5"/>
<text text-anchor="middle" x="334" y="-654.8" font-family="Times,serif" font-size="14.00">;</text>
</g>
<!-- node2&#45;&gt;node5 -->
<g id="edge5" class="edge">
<title>node2&#45;&gt;node5</title>
<path fill="none" stroke="#006400" d="M334,-713.31C334,-705.29 334,-695.55 334,-686.57"/>
<polygon fill="#006400" stroke="#006400" points="337.5,-686.53 334,-676.53 330.5,-686.53 337.5,-686.53"/>
</g>
<!-- node4 -->
<g id="node5" class="node">
<title>node4</title>
<path fill="#ff00ff" stroke="black" d="M229,-567.5C229,-567.5 259,-567.5 259,-567.5 265,-567.5 271,-573.5 271,-579.5 271,-579.5 271,-591.5 271,-591.5 271,-597.5 265,-603.5 259,-603.5 259,-603.5 229,-603.5 229,-603.5 223,-603.5 217,-597.5 217,-591.5 217,-591.5 217,-579.5 217,-579.5 217,-573.5 223,-567.5 229,-567.5"/>
<text text-anchor="middle" x="244" y="-581.8" font-family="Times,serif" font-size="14.00">0</text>
</g>
<!-- node3&#45;&gt;node4 -->
<g id="edge4" class="edge">
<title>node3&#45;&gt;node4</title>
<path fill="none" stroke="#ff00ff" d="M257.64,-640.31C255.59,-632.2 253.09,-622.34 250.79,-613.28"/>
<polygon fill="#ff00ff" stroke="#ff00ff" points="254.17,-612.36 248.32,-603.53 247.38,-614.08 254.17,-612.36"/>
</g>
<!-- node6 -->
<g id="node7" class="node">
<title>node6</title>
<path fill="#8b00ff" stroke="black" d="M301,-567.5C301,-567.5 331,-567.5 331,-567.5 337,-567.5 343,-573.5 343,-579.5 343,-579.5 343,-591.5 343,-591.5 343,-597.5 337,-603.5 331,-603.5 331,-603.5 301,-603.5 301,-603.5 295,-603.5 289,-597.5 289,-591.5 289,-591.5 289,-579.5 289,-579.5 289,-573.5 295,-567.5 301,-567.5"/>
<text text-anchor="middle" x="316" y="-581.8" font-family="Times,serif" font-size="14.00">=</text>
</g>
<!-- node5&#45;&gt;node6 -->
<g id="edge6" class="edge">
<title>node5&#45;&gt;node6</title>
<path fill="none" stroke="#8b00ff" d="M329.64,-640.31C327.59,-632.2 325.09,-622.34 322.79,-613.28"/>
<polygon fill="#8b00ff" stroke="#8b00ff" points="326.17,-612.36 320.32,-603.53 319.38,-614.08 326.17,-612.36"/>
</g>
<!-- node9 -->
<g id="node10" class="node">
<title>node9</title>
<path fill="#006400" stroke="black" d="M373,-567.5C373,-567.5 403,-567.5 403,-567.5 409,-567.5 415,-573.5 415,-579.5 415,-579.5 415,-591.5 415,-591.5 415,-597.5 409,-603.5 403,-603.5 403,-603.5 373,-603.5 373,-603.5 367,-603.5 361,-597.5 361,-591.5 361,-591.5 361,-579.5 361,-579.5 361,-573.5 367,-567.5 373,-567.5"/>
<text text-anchor="middle" x="388" y="-581.8" font-family="Times,serif" font-size="14.00">;</text>
</g>
<!-- node5&#45;&gt;node9 -->
<g id="edge9" class="edge">
<title>node5&#45;&gt;node9</title>
<path fill="none" stroke="#006400" d="M347.07,-640.31C353.64,-631.68 361.72,-621.06 368.96,-611.53"/>
<polygon fill="#006400" stroke="#006400" points="371.78,-613.61 375.05,-603.53 366.21,-609.37 371.78,-613.61"/>
</g>
<!-- node7 -->
<g id="node8" class="node">
<title>node7</title>
<path fill="#ccff99" stroke="black" d="M229,-494.5C229,-494.5 259,-494.5 259,-494.5 265,-494.5 271,-500.5 271,-506.5 271,-506.5 271,-518.5 271,-518.5 271,-524.5 265,-530.5 259,-530.5 259,-530.5 229,-530.5 229,-530.5 223,-530.5 217,-524.5 217,-518.5 217,-518.5 217,-506.5 217,-506.5 217,-500.5 223,-494.5 229,-494.5"/>
<text text-anchor="middle" x="244" y="-508.8" font-family="Times,serif" font-size="14.00">1</text>
</g>
<!-- node6&#45;&gt;node7 -->
<g id="edge7" class="edge">
<title>node6&#45;&gt;node7</title>
<path fill="none" stroke="#ccff99" d="M298.57,-567.31C289.55,-558.42 278.39,-547.41 268.51,-537.67"/>
<polygon fill="#ccff99" stroke="#ccff99" points="270.85,-535.06 261.27,-530.53 265.93,-540.04 270.85,-535.06"/>
</g>
<!-- node8 -->
<g id="node9" class="node">
<title>node8</title>
<path fill="#00bfff" stroke="black" d="M301,-494.5C301,-494.5 331,-494.5 331,-494.5 337,-494.5 343,-500.5 343,-506.5 343,-506.5 343,-518.5 343,-518.5 343,-524.5 337,-530.5 331,-530.5 331,-530.5 301,-530.5 301,-530.5 295,-530.5 289,-524.5 289,-518.5 289,-518.5 289,-506.5 289,-506.5 289,-500.5 295,-494.5 301,-494.5"/>
<text text-anchor="middle" x="316" y="-508.8" font-family="Times,serif" font-size="14.00">1</text>
</g>
<!-- node6&#45;&gt;node8 -->
<g id="edge8" class="edge">
<title>node6&#45;&gt;node8</title>
<path fill="none" stroke="#00bfff" d="M316,-567.31C316,-559.29 316,-549.55 316,-540.57"/>
<polygon fill="#00bfff" stroke="#00bfff" points="319.5,-540.53 316,-530.53 312.5,-540.53 319.5,-540.53"/>
</g>
<!-- node10 -->
<g id="node11" class="node">
<title>node10</title>
<path fill="#8b00ff" stroke="black" d="M373,-494.5C373,-494.5 403,-494.5 403,-494.5 409,-494.5 415,-500.5 415,-506.5 415,-506.5 415,-518.5 415,-518.5 415,-524.5 409,-530.5 403,-530.5 403,-530.5 373,-530.5 373,-530.5 367,-530.5 361,-524.5 361,-518.5 361,-518.5 361,-506.5 361,-506.5 361,-500.5 367,-494.5 373,-494.5"/>
<text text-anchor="middle" x="388" y="-508.8" font-family="Times,serif" font-size="14.00">if</text>
</g>
<!-- node9&#45;&gt;node10 -->
<g id="edge10" class="edge">
<title>node9&#45;&gt;node10</title>
<path fill="none" stroke="#8b00ff" d="M388,-567.31C388,-559.29 388,-549.55 388,-540.57"/>
<polygon fill="#8b00ff" stroke="#8b00ff" points="391.5,-540.53 388,-530.53 384.5,-540.53 391.5,-540.53"/>
</g>
<!-- node11 -->
<g id="node12" class="node">
<title>node11</title>
<path fill="#ffffff" stroke="black" d="M297,-421.5C297,-421.5 331,-421.5 331,-421.5 337,-421.5 343,-427.5 343,-433.5 343,-433.5 343,-445.5 343,-445.5 343,-451.5 337,-457.5 331,-457.5 331,-457.5 297,-457.5 297,-457.5 291,-457.5 285,-451.5 285,-445.5 285,-445.5 285,-433.5 285,-433.5 285,-427.5 291,-421.5 297,-421.5"/>
<text text-anchor="middle" x="314" y="-435.8" font-family="Times,serif" font-size="14.00">op_no</text>
</g>
<!-- node10&#45;&gt;node11 -->
<g id="edge11" class="edge">
<title>node10&#45;&gt;node11</title>
<path fill="none" stroke="#ffffff" d="M370.09,-494.31C360.82,-485.42 349.34,-474.41 339.19,-464.67"/>
<polygon fill="#ffffff" stroke="#ffffff" points="341.39,-461.93 331.75,-457.53 336.54,-466.98 341.39,-461.93"/>
</g>
<!-- node22 -->
<g id="node23" class="node">
<title>node22</title>
<path fill="#8b00ff" stroke="black" d="M373,-421.5C373,-421.5 403,-421.5 403,-421.5 409,-421.5 415,-427.5 415,-433.5 415,-433.5 415,-445.5 415,-445.5 415,-451.5 409,-457.5 403,-457.5 403,-457.5 373,-457.5 373,-457.5 367,-457.5 361,-451.5 361,-445.5 361,-445.5 361,-433.5 361,-433.5 361,-427.5 367,-421.5 373,-421.5"/>
<text text-anchor="middle" x="388" y="-435.8" font-family="Times,serif" font-size="14.00">else</text>
</g>
<!-- node10&#45;&gt;node22 -->
<g id="edge22" class="edge">
<title>node10&#45;&gt;node22</title>
<path fill="none" stroke="#8b00ff" d="M388,-494.31C388,-486.29 388,-476.55 388,-467.57"/>
<polygon fill="#8b00ff" stroke="#8b00ff" points="391.5,-467.53 388,-457.53 384.5,-467.53 391.5,-467.53"/>
</g>
<!-- node12 -->
<g id="node13" class="node">
<title>node12</title>
<path fill="#8b00ff" stroke="black" d="M195,-315.5C195,-315.5 225,-315.5 225,-315.5 231,-315.5 237,-321.5 237,-327.5 237,-327.5 237,-372.5 237,-372.5 237,-378.5 231,-384.5 225,-384.5 225,-384.5 195,-384.5 195,-384.5 189,-384.5 183,-378.5 183,-372.5 183,-372.5 183,-327.5 183,-327.5 183,-321.5 189,-315.5 195,-315.5"/>
<text text-anchor="middle" x="210" y="-369.3" font-family="Times,serif" font-size="14.00"> </text>
<polyline fill="none" stroke="black" points="183,-361.5 237,-361.5 "/>
<text text-anchor="middle" x="210" y="-346.3" font-family="Times,serif" font-size="14.00"> </text>
<polyline fill="none" stroke="black" points="183,-338.5 237,-338.5 "/>
<text text-anchor="middle" x="210" y="-323.3" font-family="Times,serif" font-size="14.00"> </text>
</g>
<!-- node11&#45;&gt;node12 -->
<g id="edge12" class="edge">
<title>node11&#45;&gt;node12</title>
<path fill="none" stroke="#8b00ff" d="M293.45,-421.21C279.62,-409.57 261.02,-393.92 244.89,-380.36"/>
<polygon fill="#8b00ff" stroke="#8b00ff" points="247.11,-377.65 237.21,-373.89 242.6,-383.01 247.11,-377.65"/>
</g>
<!-- node19 -->
<g id="node20" class="node">
<title>node19</title>
<path fill="#006400" stroke="black" d="M299,-332C299,-332 329,-332 329,-332 335,-332 341,-338 341,-344 341,-344 341,-356 341,-356 341,-362 335,-368 329,-368 329,-368 299,-368 299,-368 293,-368 287,-362 287,-356 287,-356 287,-344 287,-344 287,-338 293,-332 299,-332"/>
<text text-anchor="middle" x="314" y="-346.3" font-family="Times,serif" font-size="14.00">;</text>
</g>
<!-- node11&#45;&gt;node19 -->
<g id="edge19" class="edge">
<title>node11&#45;&gt;node19</title>
<path fill="none" stroke="#006400" d="M314,-421.21C314,-408.99 314,-392.35 314,-378.34"/>
<polygon fill="#006400" stroke="#006400" points="317.5,-378.25 314,-368.25 310.5,-378.25 317.5,-378.25"/>
</g>
<!-- node13 -->
<g id="node14" class="node">
<title>node13</title>
<path fill="#8b00ff" stroke="black" d="M76.5,-242.5C76.5,-242.5 121.5,-242.5 121.5,-242.5 127.5,-242.5 133.5,-248.5 133.5,-254.5 133.5,-254.5 133.5,-266.5 133.5,-266.5 133.5,-272.5 127.5,-278.5 121.5,-278.5 121.5,-278.5 76.5,-278.5 76.5,-278.5 70.5,-278.5 64.5,-272.5 64.5,-266.5 64.5,-266.5 64.5,-254.5 64.5,-254.5 64.5,-248.5 70.5,-242.5 76.5,-242.5"/>
<text text-anchor="middle" x="99" y="-256.8" font-family="Times,serif" font-size="14.00">node13</text>
</g>
<!-- node12&#45;&gt;node13 -->
<g id="edge13" class="edge">
<title>node12&#45;&gt;node13</title>
<path fill="none" stroke="#8b00ff" d="M182.85,-327.6C166.41,-314.64 145.44,-298.11 128.58,-284.82"/>
<polygon fill="#8b00ff" stroke="#8b00ff" points="130.69,-282.03 120.67,-278.59 126.36,-287.53 130.69,-282.03"/>
</g>
<!-- node16 -->
<g id="node17" class="node">
<title>node16</title>
<path fill="#8b00ff" stroke="black" d="M195,-242.5C195,-242.5 225,-242.5 225,-242.5 231,-242.5 237,-248.5 237,-254.5 237,-254.5 237,-266.5 237,-266.5 237,-272.5 231,-278.5 225,-278.5 225,-278.5 195,-278.5 195,-278.5 189,-278.5 183,-272.5 183,-266.5 183,-266.5 183,-254.5 183,-254.5 183,-248.5 189,-242.5 195,-242.5"/>
<text text-anchor="middle" x="210" y="-256.8" font-family="Times,serif" font-size="14.00">==</text>
</g>
<!-- node12&#45;&gt;node16 -->
<g id="edge16" class="edge">
<title>node12&#45;&gt;node16</title>
<path fill="none" stroke="#8b00ff" d="M210,-315.42C210,-306.61 210,-297.22 210,-288.78"/>
<polygon fill="#8b00ff" stroke="#8b00ff" points="213.5,-288.72 210,-278.72 206.5,-288.72 213.5,-288.72"/>
</g>
<!-- node14 -->
<g id="node15" class="node">
<title>node14</title>
<path fill="#ccff99" stroke="black" d="M12,-169.5C12,-169.5 42,-169.5 42,-169.5 48,-169.5 54,-175.5 54,-181.5 54,-181.5 54,-193.5 54,-193.5 54,-199.5 48,-205.5 42,-205.5 42,-205.5 12,-205.5 12,-205.5 6,-205.5 0,-199.5 0,-193.5 0,-193.5 0,-181.5 0,-181.5 0,-175.5 6,-169.5 12,-169.5"/>
<text text-anchor="middle" x="27" y="-183.8" font-family="Times,serif" font-size="14.00">0</text>
</g>
<!-- node13&#45;&gt;node14 -->
<g id="edge14" class="edge">
<title>node13&#45;&gt;node14</title>
<path fill="none" stroke="#ccff99" d="M81.57,-242.31C72.55,-233.42 61.39,-222.41 51.51,-212.67"/>
<polygon fill="#ccff99" stroke="#ccff99" points="53.85,-210.06 44.27,-205.53 48.93,-215.04 53.85,-210.06"/>
</g>
<!-- node15 -->
<g id="node16" class="node">
<title>node15</title>
<path fill="#00bfff" stroke="black" d="M84,-169.5C84,-169.5 114,-169.5 114,-169.5 120,-169.5 126,-175.5 126,-181.5 126,-181.5 126,-193.5 126,-193.5 126,-199.5 120,-205.5 114,-205.5 114,-205.5 84,-205.5 84,-205.5 78,-205.5 72,-199.5 72,-193.5 72,-193.5 72,-181.5 72,-181.5 72,-175.5 78,-169.5 84,-169.5"/>
<text text-anchor="middle" x="99" y="-183.8" font-family="Times,serif" font-size="14.00">0</text>
</g>
<!-- node13&#45;&gt;node15 -->
<g id="edge15" class="edge">
<title>node13&#45;&gt;node15</title>
<path fill="none" stroke="#00bfff" d="M99,-242.31C99,-234.29 99,-224.55 99,-215.57"/>
<polygon fill="#00bfff" stroke="#00bfff" points="102.5,-215.53 99,-205.53 95.5,-215.53 102.5,-215.53"/>
</g>
<!-- node17 -->
<g id="node18" class="node">
<title>node17</title>
<path fill="#ccff99" stroke="black" d="M156,-169.5C156,-169.5 186,-169.5 186,-169.5 192,-169.5 198,-175.5 198,-181.5 198,-181.5 198,-193.5 198,-193.5 198,-199.5 192,-205.5 186,-205.5 186,-205.5 156,-205.5 156,-205.5 150,-205.5 144,-199.5 144,-193.5 144,-193.5 144,-181.5 144,-181.5 144,-175.5 150,-169.5 156,-169.5"/>
<text text-anchor="middle" x="171" y="-183.8" font-family="Times,serif" font-size="14.00">0</text>
</g>
<!-- node16&#45;&gt;node17 -->
<g id="edge17" class="edge">
<title>node16&#45;&gt;node17</title>
<path fill="none" stroke="#ccff99" d="M200.56,-242.31C195.96,-233.94 190.33,-223.7 185.23,-214.4"/>
<polygon fill="#ccff99" stroke="#ccff99" points="188.24,-212.61 180.35,-205.53 182.1,-215.98 188.24,-212.61"/>
</g>
<!-- node18 -->
<g id="node19" class="node">
<title>node18</title>
<path fill="#00bfff" stroke="black" d="M228,-169.5C228,-169.5 258,-169.5 258,-169.5 264,-169.5 270,-175.5 270,-181.5 270,-181.5 270,-193.5 270,-193.5 270,-199.5 264,-205.5 258,-205.5 258,-205.5 228,-205.5 228,-205.5 222,-205.5 216,-199.5 216,-193.5 216,-193.5 216,-181.5 216,-181.5 216,-175.5 222,-169.5 228,-169.5"/>
<text text-anchor="middle" x="243" y="-183.8" font-family="Times,serif" font-size="14.00">0</text>
</g>
<!-- node16&#45;&gt;node18 -->
<g id="edge18" class="edge">
<title>node16&#45;&gt;node18</title>
<path fill="none" stroke="#00bfff" d="M217.99,-242.31C221.84,-234.03 226.54,-223.91 230.83,-214.69"/>
<polygon fill="#00bfff" stroke="#00bfff" points="234.04,-216.07 235.09,-205.53 227.7,-213.12 234.04,-216.07"/>
</g>
<!-- node20 -->
<g id="node21" class="node">
<title>node20</title>
<path fill="#8b00ff" stroke="black" d="M300,-242.5C300,-242.5 330,-242.5 330,-242.5 336,-242.5 342,-248.5 342,-254.5 342,-254.5 342,-266.5 342,-266.5 342,-272.5 336,-278.5 330,-278.5 330,-278.5 300,-278.5 300,-278.5 294,-278.5 288,-272.5 288,-266.5 288,-266.5 288,-254.5 288,-254.5 288,-248.5 294,-242.5 300,-242.5"/>
<text text-anchor="middle" x="315" y="-256.8" font-family="Times,serif" font-size="14.00">print</text>
</g>
<!-- node19&#45;&gt;node20 -->
<g id="edge20" class="edge">
<title>node19&#45;&gt;node20</title>
<path fill="none" stroke="#8b00ff" d="M314.2,-331.71C314.34,-319.49 314.53,-302.85 314.69,-288.84"/>
<polygon fill="#8b00ff" stroke="#8b00ff" points="318.19,-288.79 314.8,-278.75 311.19,-288.71 318.19,-288.79"/>
</g>
<!-- node21 -->
<g id="node22" class="node">
<title>node21</title>
<path fill="#ff00ff" stroke="black" d="M300,-169.5C300,-169.5 330,-169.5 330,-169.5 336,-169.5 342,-175.5 342,-181.5 342,-181.5 342,-193.5 342,-193.5 342,-199.5 336,-205.5 330,-205.5 330,-205.5 300,-205.5 300,-205.5 294,-205.5 288,-199.5 288,-193.5 288,-193.5 288,-181.5 288,-181.5 288,-175.5 294,-169.5 300,-169.5"/>
<text text-anchor="middle" x="315" y="-183.8" font-family="Times,serif" font-size="14.00">1</text>
</g>
<!-- node20&#45;&gt;node21 -->
<g id="edge21" class="edge">
<title>node20&#45;&gt;node21</title>
<path fill="none" stroke="#ff00ff" d="M315,-242.31C315,-234.29 315,-224.55 315,-215.57"/>
<polygon fill="#ff00ff" stroke="#ff00ff" points="318.5,-215.53 315,-205.53 311.5,-215.53 318.5,-215.53"/>
</g>
<!-- node23 -->
<g id="node24" class="node">
<title>node23</title>
<path fill="#ffffff" stroke="black" d="M371,-332C371,-332 405,-332 405,-332 411,-332 417,-338 417,-344 417,-344 417,-356 417,-356 417,-362 411,-368 405,-368 405,-368 371,-368 371,-368 365,-368 359,-362 359,-356 359,-356 359,-344 359,-344 359,-338 365,-332 371,-332"/>
<text text-anchor="middle" x="388" y="-346.3" font-family="Times,serif" font-size="14.00">op_no</text>
</g>
<!-- node22&#45;&gt;node23 -->
<g id="edge23" class="edge">
<title>node22&#45;&gt;node23</title>
<path fill="none" stroke="#ffffff" d="M388,-421.21C388,-408.99 388,-392.35 388,-378.34"/>
<polygon fill="#ffffff" stroke="#ffffff" points="391.5,-378.25 388,-368.25 384.5,-378.25 391.5,-378.25"/>
</g>
<!-- node24 -->
<g id="node25" class="node">
<title>node24</title>
<path fill="#006400" stroke="black" d="M373,-242.5C373,-242.5 403,-242.5 403,-242.5 409,-242.5 415,-248.5 415,-254.5 415,-254.5 415,-266.5 415,-266.5 415,-272.5 409,-278.5 403,-278.5 403,-278.5 373,-278.5 373,-278.5 367,-278.5 361,-272.5 361,-266.5 361,-266.5 361,-254.5 361,-254.5 361,-248.5 367,-242.5 373,-242.5"/>
<text text-anchor="middle" x="388" y="-256.8" font-family="Times,serif" font-size="14.00">;</text>
</g>
<!-- node23&#45;&gt;node24 -->
<g id="edge24" class="edge">
<title>node23&#45;&gt;node24</title>
<path fill="none" stroke="#006400" d="M388,-331.71C388,-319.49 388,-302.85 388,-288.84"/>
<polygon fill="#006400" stroke="#006400" points="391.5,-288.75 388,-278.75 384.5,-288.75 391.5,-288.75"/>
</g>
<!-- node25 -->
<g id="node26" class="node">
<title>node25</title>
<path fill="#8b00ff" stroke="black" d="M373,-169.5C373,-169.5 403,-169.5 403,-169.5 409,-169.5 415,-175.5 415,-181.5 415,-181.5 415,-193.5 415,-193.5 415,-199.5 409,-205.5 403,-205.5 403,-205.5 373,-205.5 373,-205.5 367,-205.5 361,-199.5 361,-193.5 361,-193.5 361,-181.5 361,-181.5 361,-175.5 367,-169.5 373,-169.5"/>
<text text-anchor="middle" x="388" y="-183.8" font-family="Times,serif" font-size="14.00">=</text>
</g>
<!-- node24&#45;&gt;node25 -->
<g id="edge25" class="edge">
<title>node24&#45;&gt;node25</title>
<path fill="none" stroke="#8b00ff" d="M388,-242.31C388,-234.29 388,-224.55 388,-215.57"/>
<polygon fill="#8b00ff" stroke="#8b00ff" points="391.5,-215.53 388,-205.53 384.5,-215.53 391.5,-215.53"/>
</g>
<!-- node29 -->
<g id="node30" class="node">
<title>node29</title>
<path fill="#006400" stroke="black" d="M454,-169.5C454,-169.5 484,-169.5 484,-169.5 490,-169.5 496,-175.5 496,-181.5 496,-181.5 496,-193.5 496,-193.5 496,-199.5 490,-205.5 484,-205.5 484,-205.5 454,-205.5 454,-205.5 448,-205.5 442,-199.5 442,-193.5 442,-193.5 442,-181.5 442,-181.5 442,-175.5 448,-169.5 454,-169.5"/>
<text text-anchor="middle" x="469" y="-183.8" font-family="Times,serif" font-size="14.00">;</text>
</g>
<!-- node24&#45;&gt;node29 -->
<g id="edge29" class="edge">
<title>node24&#45;&gt;node29</title>
<path fill="none" stroke="#006400" d="M407.61,-242.31C417.86,-233.33 430.56,-222.19 441.75,-212.39"/>
<polygon fill="#006400" stroke="#006400" points="444.36,-214.75 449.57,-205.53 439.75,-209.49 444.36,-214.75"/>
</g>
<!-- node26 -->
<g id="node27" class="node">
<title>node26</title>
<path fill="#ccff99" stroke="black" d="M283,-96.5C283,-96.5 313,-96.5 313,-96.5 319,-96.5 325,-102.5 325,-108.5 325,-108.5 325,-120.5 325,-120.5 325,-126.5 319,-132.5 313,-132.5 313,-132.5 283,-132.5 283,-132.5 277,-132.5 271,-126.5 271,-120.5 271,-120.5 271,-108.5 271,-108.5 271,-102.5 277,-96.5 283,-96.5"/>
<text text-anchor="middle" x="298" y="-110.8" font-family="Times,serif" font-size="14.00">2</text>
</g>
<!-- node25&#45;&gt;node26 -->
<g id="edge26" class="edge">
<title>node25&#45;&gt;node26</title>
<path fill="none" stroke="#ccff99" d="M366.21,-169.31C354.61,-160.16 340.16,-148.76 327.56,-138.82"/>
<polygon fill="#ccff99" stroke="#ccff99" points="329.6,-135.97 319.59,-132.53 325.27,-141.47 329.6,-135.97"/>
</g>
<!-- node27 -->
<g id="node28" class="node">
<title>node27</title>
<ellipse fill="none" stroke="black" cx="388" cy="-114.5" rx="44.69" ry="18"/>
<text text-anchor="middle" x="388" y="-110.8" font-family="Times,serif" font-size="14.00">node27</text>
</g>
<!-- node25&#45;&gt;node27 -->
<g id="edge27" class="edge">
<title>node25&#45;&gt;node27</title>
<path fill="none" stroke="#000000" d="M388,-169.31C388,-161.29 388,-151.55 388,-142.57"/>
<polygon fill="#000000" stroke="#000000" points="391.5,-142.53 388,-132.53 384.5,-142.53 391.5,-142.53"/>
</g>
<!-- node28 -->
<g id="node29" class="node">
<title>node28</title>
<path fill="#ff00ff" stroke="black" d="M373,-23.5C373,-23.5 403,-23.5 403,-23.5 409,-23.5 415,-29.5 415,-35.5 415,-35.5 415,-47.5 415,-47.5 415,-53.5 409,-59.5 403,-59.5 403,-59.5 373,-59.5 373,-59.5 367,-59.5 361,-53.5 361,-47.5 361,-47.5 361,-35.5 361,-35.5 361,-29.5 367,-23.5 373,-23.5"/>
<text text-anchor="middle" x="388" y="-37.8" font-family="Times,serif" font-size="14.00">0</text>
</g>
<!-- node27&#45;&gt;node28 -->
<g id="edge28" class="edge">
<title>node27&#45;&gt;node28</title>
<path fill="none" stroke="#ff00ff" d="M388,-96.31C388,-88.29 388,-78.55 388,-69.57"/>
<polygon fill="#ff00ff" stroke="#ff00ff" points="391.5,-69.53 388,-59.53 384.5,-69.53 391.5,-69.53"/>
</g>
<!-- node30 -->
<g id="node31" class="node">
<title>node30</title>
<path fill="#8b00ff" stroke="black" d="M463,-96.5C463,-96.5 493,-96.5 493,-96.5 499,-96.5 505,-102.5 505,-108.5 505,-108.5 505,-120.5 505,-120.5 505,-126.5 499,-132.5 493,-132.5 493,-132.5 463,-132.5 463,-132.5 457,-132.5 451,-126.5 451,-120.5 451,-120.5 451,-108.5 451,-108.5 451,-102.5 457,-96.5 463,-96.5"/>
<text text-anchor="middle" x="478" y="-110.8" font-family="Times,serif" font-size="14.00">print</text>
</g>
<!-- node29&#45;&gt;node30 -->
<g id="edge30" class="edge">
<title>node29&#45;&gt;node30</title>
<path fill="none" stroke="#8b00ff" d="M471.18,-169.31C472.2,-161.29 473.43,-151.55 474.57,-142.57"/>
<polygon fill="#8b00ff" stroke="#8b00ff" points="478.06,-142.89 475.84,-132.53 471.11,-142.01 478.06,-142.89"/>
</g>
<!-- node31 -->
<g id="node32" class="node">
<title>node31</title>
<path fill="#ff00ff" stroke="black" d="M463,-23.5C463,-23.5 493,-23.5 493,-23.5 499,-23.5 505,-29.5 505,-35.5 505,-35.5 505,-47.5 505,-47.5 505,-53.5 499,-59.5 493,-59.5 493,-59.5 463,-59.5 463,-59.5 457,-59.5 451,-53.5 451,-47.5 451,-47.5 451,-35.5 451,-35.5 451,-29.5 457,-23.5 463,-23.5"/>
<text text-anchor="middle" x="478" y="-37.8" font-family="Times,serif" font-size="14.00">2</text>
</g>
<!-- node30&#45;&gt;node31 -->
<g id="edge31" class="edge">
<title>node30&#45;&gt;node31</title>
<path fill="none" stroke="#ff00ff" d="M478,-96.31C478,-88.29 478,-78.55 478,-69.57"/>
<polygon fill="#ff00ff" stroke="#ff00ff" points="481.5,-69.53 478,-59.53 474.5,-69.53 481.5,-69.53"/>
</g>
<!-- node33 -->
<g id="node34" class="node">
<title>node33</title>
<path fill="#ff0000" stroke="black" d="M483,-713.5C483,-713.5 513,-713.5 513,-713.5 519,-713.5 525,-719.5 525,-725.5 525,-725.5 525,-737.5 525,-737.5 525,-743.5 519,-749.5 513,-749.5 513,-749.5 483,-749.5 483,-749.5 477,-749.5 471,-743.5 471,-737.5 471,-737.5 471,-725.5 471,-725.5 471,-719.5 477,-713.5 483,-713.5"/>
<text text-anchor="middle" x="498" y="-727.8" font-family="Times,serif" font-size="14.00">1</text>
</g>
<!-- node32&#45;&gt;node33 -->
<g id="edge33" class="edge">
<title>node32&#45;&gt;node33</title>
<path fill="none" stroke="#ff0000" d="M498,-786.31C498,-778.29 498,-768.55 498,-759.57"/>
<polygon fill="#ff0000" stroke="#ff0000" points="501.5,-759.53 498,-749.53 494.5,-759.53 501.5,-759.53"/>
</g>
<!-- node60 -->
<g id="node61" class="node">
<title>node60</title>
<path fill="#006400" stroke="black" d="M555,-713.5C555,-713.5 585,-713.5 585,-713.5 591,-713.5 597,-719.5 597,-725.5 597,-725.5 597,-737.5 597,-737.5 597,-743.5 591,-749.5 585,-749.5 585,-749.5 555,-749.5 555,-749.5 549,-749.5 543,-743.5 543,-737.5 543,-737.5 543,-725.5 543,-725.5 543,-719.5 549,-713.5 555,-713.5"/>
<text text-anchor="middle" x="570" y="-727.8" font-family="Times,serif" font-size="14.00">;</text>
</g>
<!-- node32&#45;&gt;node60 -->
<g id="edge60" class="edge">
<title>node32&#45;&gt;node60</title>
<path fill="none" stroke="#006400" d="M515.43,-786.31C524.45,-777.42 535.61,-766.41 545.49,-756.67"/>
<polygon fill="#006400" stroke="#006400" points="548.07,-759.04 552.73,-749.53 543.15,-754.06 548.07,-759.04"/>
</g>
<!-- node34 -->
<g id="node35" class="node">
<title>node34</title>
<path fill="#ff00ff" stroke="black" d="M483,-640.5C483,-640.5 513,-640.5 513,-640.5 519,-640.5 525,-646.5 525,-652.5 525,-652.5 525,-664.5 525,-664.5 525,-670.5 519,-676.5 513,-676.5 513,-676.5 483,-676.5 483,-676.5 477,-676.5 471,-670.5 471,-664.5 471,-664.5 471,-652.5 471,-652.5 471,-646.5 477,-640.5 483,-640.5"/>
<text text-anchor="middle" x="498" y="-654.8" font-family="Times,serif" font-size="14.00">0</text>
</g>
<!-- node33&#45;&gt;node34 -->
<g id="edge34" class="edge">
<title>node33&#45;&gt;node34</title>
<path fill="none" stroke="#ff00ff" d="M498,-713.31C498,-705.29 498,-695.55 498,-686.57"/>
<polygon fill="#ff00ff" stroke="#ff00ff" points="501.5,-686.53 498,-676.53 494.5,-686.53 501.5,-686.53"/>
</g>
<!-- node35 -->
<g id="node36" class="node">
<title>node35</title>
<path fill="#006400" stroke="black" d="M591,-640.5C591,-640.5 621,-640.5 621,-640.5 627,-640.5 633,-646.5 633,-652.5 633,-652.5 633,-664.5 633,-664.5 633,-670.5 627,-676.5 621,-676.5 621,-676.5 591,-676.5 591,-676.5 585,-676.5 579,-670.5 579,-664.5 579,-664.5 579,-652.5 579,-652.5 579,-646.5 585,-640.5 591,-640.5"/>
<text text-anchor="middle" x="606" y="-654.8" font-family="Times,serif" font-size="14.00">;</text>
</g>
<!-- node33&#45;&gt;node35 -->
<g id="edge35" class="edge">
<title>node33&#45;&gt;node35</title>
<path fill="none" stroke="#006400" d="M523.87,-713.49C538.06,-704.17 555.84,-692.47 571.23,-682.36"/>
<polygon fill="#006400" stroke="#006400" points="573.53,-685.03 579.97,-676.61 569.69,-679.18 573.53,-685.03"/>
</g>
<!-- node36 -->
<g id="node37" class="node">
<title>node36</title>
<path fill="#8b00ff" stroke="black" d="M591,-567.5C591,-567.5 621,-567.5 621,-567.5 627,-567.5 633,-573.5 633,-579.5 633,-579.5 633,-591.5 633,-591.5 633,-597.5 627,-603.5 621,-603.5 621,-603.5 591,-603.5 591,-603.5 585,-603.5 579,-597.5 579,-591.5 579,-591.5 579,-579.5 579,-579.5 579,-573.5 585,-567.5 591,-567.5"/>
<text text-anchor="middle" x="606" y="-581.8" font-family="Times,serif" font-size="14.00">if</text>
</g>
<!-- node35&#45;&gt;node36 -->
<g id="edge36" class="edge">
<title>node35&#45;&gt;node36</title>
<path fill="none" stroke="#8b00ff" d="M606,-640.31C606,-632.29 606,-622.55 606,-613.57"/>
<polygon fill="#8b00ff" stroke="#8b00ff" points="609.5,-613.53 606,-603.53 602.5,-613.53 609.5,-613.53"/>
</g>
<!-- node44 -->
<g id="node45" class="node">
<title>node44</title>
<path fill="#006400" stroke="black" d="M667,-567.5C667,-567.5 697,-567.5 697,-567.5 703,-567.5 709,-573.5 709,-579.5 709,-579.5 709,-591.5 709,-591.5 709,-597.5 703,-603.5 697,-603.5 697,-603.5 667,-603.5 667,-603.5 661,-603.5 655,-597.5 655,-591.5 655,-591.5 655,-579.5 655,-579.5 655,-573.5 661,-567.5 667,-567.5"/>
<text text-anchor="middle" x="682" y="-581.8" font-family="Times,serif" font-size="14.00">;</text>
</g>
<!-- node35&#45;&gt;node44 -->
<g id="edge44" class="edge">
<title>node35&#45;&gt;node44</title>
<path fill="none" stroke="#006400" d="M624.4,-640.31C634.01,-631.33 645.93,-620.19 656.43,-610.39"/>
<polygon fill="#006400" stroke="#006400" points="658.85,-612.91 663.77,-603.53 654.08,-607.8 658.85,-612.91"/>
</g>
<!-- node37 -->
<g id="node38" class="node">
<title>node37</title>
<path fill="#ffffff" stroke="black" d="M589,-494.5C589,-494.5 623,-494.5 623,-494.5 629,-494.5 635,-500.5 635,-506.5 635,-506.5 635,-518.5 635,-518.5 635,-524.5 629,-530.5 623,-530.5 623,-530.5 589,-530.5 589,-530.5 583,-530.5 577,-524.5 577,-518.5 577,-518.5 577,-506.5 577,-506.5 577,-500.5 583,-494.5 589,-494.5"/>
<text text-anchor="middle" x="606" y="-508.8" font-family="Times,serif" font-size="14.00">op_no</text>
</g>
<!-- node36&#45;&gt;node37 -->
<g id="edge37" class="edge">
<title>node36&#45;&gt;node37</title>
<path fill="none" stroke="#ffffff" d="M606,-567.31C606,-559.29 606,-549.55 606,-540.57"/>
<polygon fill="#ffffff" stroke="#ffffff" points="609.5,-540.53 606,-530.53 602.5,-540.53 609.5,-540.53"/>
</g>
<!-- node38 -->
<g id="node39" class="node">
<title>node38</title>
<path fill="#8b00ff" stroke="black" d="M519,-421.5C519,-421.5 549,-421.5 549,-421.5 555,-421.5 561,-427.5 561,-433.5 561,-433.5 561,-445.5 561,-445.5 561,-451.5 555,-457.5 549,-457.5 549,-457.5 519,-457.5 519,-457.5 513,-457.5 507,-451.5 507,-445.5 507,-445.5 507,-433.5 507,-433.5 507,-427.5 513,-421.5 519,-421.5"/>
<text text-anchor="middle" x="534" y="-435.8" font-family="Times,serif" font-size="14.00">==</text>
</g>
<!-- node37&#45;&gt;node38 -->
<g id="edge38" class="edge">
<title>node37&#45;&gt;node38</title>
<path fill="none" stroke="#8b00ff" d="M588.57,-494.31C579.55,-485.42 568.39,-474.41 558.51,-464.67"/>
<polygon fill="#8b00ff" stroke="#8b00ff" points="560.85,-462.06 551.27,-457.53 555.93,-467.04 560.85,-462.06"/>
</g>
<!-- node41 -->
<g id="node42" class="node">
<title>node41</title>
<path fill="#006400" stroke="black" d="M593,-421.5C593,-421.5 623,-421.5 623,-421.5 629,-421.5 635,-427.5 635,-433.5 635,-433.5 635,-445.5 635,-445.5 635,-451.5 629,-457.5 623,-457.5 623,-457.5 593,-457.5 593,-457.5 587,-457.5 581,-451.5 581,-445.5 581,-445.5 581,-433.5 581,-433.5 581,-427.5 587,-421.5 593,-421.5"/>
<text text-anchor="middle" x="608" y="-435.8" font-family="Times,serif" font-size="14.00">;</text>
</g>
<!-- node37&#45;&gt;node41 -->
<g id="edge41" class="edge">
<title>node37&#45;&gt;node41</title>
<path fill="none" stroke="#006400" d="M606.48,-494.31C606.71,-486.29 606.98,-476.55 607.24,-467.57"/>
<polygon fill="#006400" stroke="#006400" points="610.74,-467.62 607.52,-457.53 603.74,-467.43 610.74,-467.62"/>
</g>
<!-- node39 -->
<g id="node40" class="node">
<title>node39</title>
<path fill="#ccff99" stroke="black" d="M447,-332C447,-332 477,-332 477,-332 483,-332 489,-338 489,-344 489,-344 489,-356 489,-356 489,-362 483,-368 477,-368 477,-368 447,-368 447,-368 441,-368 435,-362 435,-356 435,-356 435,-344 435,-344 435,-338 441,-332 447,-332"/>
<text text-anchor="middle" x="462" y="-346.3" font-family="Times,serif" font-size="14.00">0</text>
</g>
<!-- node38&#45;&gt;node39 -->
<g id="edge39" class="edge">
<title>node38&#45;&gt;node39</title>
<path fill="none" stroke="#ccff99" d="M519.78,-421.21C509.22,-408.39 494.67,-390.71 482.82,-376.3"/>
<polygon fill="#ccff99" stroke="#ccff99" points="485.25,-373.75 476.2,-368.25 479.85,-378.2 485.25,-373.75"/>
</g>
<!-- node40 -->
<g id="node41" class="node">
<title>node40</title>
<path fill="#00bfff" stroke="black" d="M519,-332C519,-332 549,-332 549,-332 555,-332 561,-338 561,-344 561,-344 561,-356 561,-356 561,-362 555,-368 549,-368 549,-368 519,-368 519,-368 513,-368 507,-362 507,-356 507,-356 507,-344 507,-344 507,-338 513,-332 519,-332"/>
<text text-anchor="middle" x="534" y="-346.3" font-family="Times,serif" font-size="14.00">1</text>
</g>
<!-- node38&#45;&gt;node40 -->
<g id="edge40" class="edge">
<title>node38&#45;&gt;node40</title>
<path fill="none" stroke="#00bfff" d="M534,-421.21C534,-408.99 534,-392.35 534,-378.34"/>
<polygon fill="#00bfff" stroke="#00bfff" points="537.5,-378.25 534,-368.25 530.5,-378.25 537.5,-378.25"/>
</g>
<!-- node42 -->
<g id="node43" class="node">
<title>node42</title>
<path fill="#8b00ff" stroke="black" d="M591,-332C591,-332 629,-332 629,-332 635,-332 641,-338 641,-344 641,-344 641,-356 641,-356 641,-362 635,-368 629,-368 629,-368 591,-368 591,-368 585,-368 579,-362 579,-356 579,-356 579,-344 579,-344 579,-338 585,-332 591,-332"/>
<text text-anchor="middle" x="610" y="-346.3" font-family="Times,serif" font-size="14.00">return</text>
</g>
<!-- node41&#45;&gt;node42 -->
<g id="edge42" class="edge">
<title>node41&#45;&gt;node42</title>
<path fill="none" stroke="#8b00ff" d="M608.4,-421.21C608.67,-408.99 609.05,-392.35 609.38,-378.34"/>
<polygon fill="#8b00ff" stroke="#8b00ff" points="612.88,-378.33 609.61,-368.25 605.88,-378.17 612.88,-378.33"/>
</g>
<!-- node43 -->
<g id="node44" class="node">
<title>node43</title>
<path fill="#ccff99" stroke="black" d="M595,-242.5C595,-242.5 625,-242.5 625,-242.5 631,-242.5 637,-248.5 637,-254.5 637,-254.5 637,-266.5 637,-266.5 637,-272.5 631,-278.5 625,-278.5 625,-278.5 595,-278.5 595,-278.5 589,-278.5 583,-272.5 583,-266.5 583,-266.5 583,-254.5 583,-254.5 583,-248.5 589,-242.5 595,-242.5"/>
<text text-anchor="middle" x="610" y="-256.8" font-family="Times,serif" font-size="14.00">0</text>
</g>
<!-- node42&#45;&gt;node43 -->
<g id="edge43" class="edge">
<title>node42&#45;&gt;node43</title>
<path fill="none" stroke="#ccff99" d="M610,-331.71C610,-319.49 610,-302.85 610,-288.84"/>
<polygon fill="#ccff99" stroke="#ccff99" points="613.5,-288.75 610,-278.75 606.5,-288.75 613.5,-288.75"/>
</g>
<!-- node45 -->
<g id="node46" class="node">
<title>node45</title>
<path fill="#8b00ff" stroke="black" d="M667,-494.5C667,-494.5 697,-494.5 697,-494.5 703,-494.5 709,-500.5 709,-506.5 709,-506.5 709,-518.5 709,-518.5 709,-524.5 703,-530.5 697,-530.5 697,-530.5 667,-530.5 667,-530.5 661,-530.5 655,-524.5 655,-518.5 655,-518.5 655,-506.5 655,-506.5 655,-500.5 661,-494.5 667,-494.5"/>
<text text-anchor="middle" x="682" y="-508.8" font-family="Times,serif" font-size="14.00">=</text>
</g>
<!-- node44&#45;&gt;node45 -->
<g id="edge45" class="edge">
<title>node44&#45;&gt;node45</title>
<path fill="none" stroke="#8b00ff" d="M682,-567.31C682,-559.29 682,-549.55 682,-540.57"/>
<polygon fill="#8b00ff" stroke="#8b00ff" points="685.5,-540.53 682,-530.53 678.5,-540.53 685.5,-540.53"/>
</g>
<!-- node50 -->
<g id="node51" class="node">
<title>node50</title>
<path fill="#006400" stroke="black" d="M834,-494.5C834,-494.5 864,-494.5 864,-494.5 870,-494.5 876,-500.5 876,-506.5 876,-506.5 876,-518.5 876,-518.5 876,-524.5 870,-530.5 864,-530.5 864,-530.5 834,-530.5 834,-530.5 828,-530.5 822,-524.5 822,-518.5 822,-518.5 822,-506.5 822,-506.5 822,-500.5 828,-494.5 834,-494.5"/>
<text text-anchor="middle" x="849" y="-508.8" font-family="Times,serif" font-size="14.00">;</text>
</g>
<!-- node44&#45;&gt;node50 -->
<g id="edge50" class="edge">
<title>node44&#45;&gt;node50</title>
<path fill="none" stroke="#006400" d="M709.2,-572.93C737.35,-560.97 781.46,-542.21 812.59,-528.98"/>
<polygon fill="#006400" stroke="#006400" points="813.98,-532.19 821.81,-525.06 811.24,-525.75 813.98,-532.19"/>
</g>
<!-- node46 -->
<g id="node47" class="node">
<title>node46</title>
<path fill="#ccff99" stroke="black" d="M666,-421.5C666,-421.5 696,-421.5 696,-421.5 702,-421.5 708,-427.5 708,-433.5 708,-433.5 708,-445.5 708,-445.5 708,-451.5 702,-457.5 696,-457.5 696,-457.5 666,-457.5 666,-457.5 660,-457.5 654,-451.5 654,-445.5 654,-445.5 654,-433.5 654,-433.5 654,-427.5 660,-421.5 666,-421.5"/>
<text text-anchor="middle" x="681" y="-435.8" font-family="Times,serif" font-size="14.00">1</text>
</g>
<!-- node45&#45;&gt;node46 -->
<g id="edge46" class="edge">
<title>node45&#45;&gt;node46</title>
<path fill="none" stroke="#ccff99" d="M681.76,-494.31C681.64,-486.29 681.51,-476.55 681.38,-467.57"/>
<polygon fill="#ccff99" stroke="#ccff99" points="684.88,-467.48 681.24,-457.53 677.88,-467.58 684.88,-467.48"/>
</g>
<!-- node47 -->
<g id="node48" class="node">
<title>node47</title>
<path fill="#8b00ff" stroke="black" d="M738,-421.5C738,-421.5 768,-421.5 768,-421.5 774,-421.5 780,-427.5 780,-433.5 780,-433.5 780,-445.5 780,-445.5 780,-451.5 774,-457.5 768,-457.5 768,-457.5 738,-457.5 738,-457.5 732,-457.5 726,-451.5 726,-445.5 726,-445.5 726,-433.5 726,-433.5 726,-427.5 732,-421.5 738,-421.5"/>
<text text-anchor="middle" x="753" y="-435.8" font-family="Times,serif" font-size="14.00">&#45;</text>
</g>
<!-- node45&#45;&gt;node47 -->
<g id="edge47" class="edge">
<title>node45&#45;&gt;node47</title>
<path fill="none" stroke="#8b00ff" d="M699.19,-494.31C708.08,-485.42 719.09,-474.41 728.83,-464.67"/>
<polygon fill="#8b00ff" stroke="#8b00ff" points="731.37,-467.07 735.97,-457.53 726.43,-462.13 731.37,-467.07"/>
</g>
<!-- node48 -->
<g id="node49" class="node">
<title>node48</title>
<path fill="#ccff99" stroke="black" d="M671,-332C671,-332 701,-332 701,-332 707,-332 713,-338 713,-344 713,-344 713,-356 713,-356 713,-362 707,-368 701,-368 701,-368 671,-368 671,-368 665,-368 659,-362 659,-356 659,-356 659,-344 659,-344 659,-338 665,-332 671,-332"/>
<text text-anchor="middle" x="686" y="-346.3" font-family="Times,serif" font-size="14.00">0</text>
</g>
<!-- node47&#45;&gt;node48 -->
<g id="edge48" class="edge">
<title>node47&#45;&gt;node48</title>
<path fill="none" stroke="#ccff99" d="M739.76,-421.21C729.94,-408.39 716.4,-390.71 705.37,-376.3"/>
<polygon fill="#ccff99" stroke="#ccff99" points="708.07,-374.06 699.21,-368.25 702.51,-378.32 708.07,-374.06"/>
</g>
<!-- node49 -->
<g id="node50" class="node">
<title>node49</title>
<path fill="#00bfff" stroke="black" d="M743,-332C743,-332 773,-332 773,-332 779,-332 785,-338 785,-344 785,-344 785,-356 785,-356 785,-362 779,-368 773,-368 773,-368 743,-368 743,-368 737,-368 731,-362 731,-356 731,-356 731,-344 731,-344 731,-338 737,-332 743,-332"/>
<text text-anchor="middle" x="758" y="-346.3" font-family="Times,serif" font-size="14.00">1</text>
</g>
<!-- node47&#45;&gt;node49 -->
<g id="edge49" class="edge">
<title>node47&#45;&gt;node49</title>
<path fill="none" stroke="#00bfff" d="M753.99,-421.21C754.69,-408.99 755.64,-392.35 756.44,-378.34"/>
<polygon fill="#00bfff" stroke="#00bfff" points="759.94,-378.43 757.01,-368.25 752.95,-378.04 759.94,-378.43"/>
</g>
<!-- node51 -->
<g id="node52" class="node">
<title>node51</title>
<path fill="#8b00ff" stroke="black" d="M834,-421.5C834,-421.5 864,-421.5 864,-421.5 870,-421.5 876,-427.5 876,-433.5 876,-433.5 876,-445.5 876,-445.5 876,-451.5 870,-457.5 864,-457.5 864,-457.5 834,-457.5 834,-457.5 828,-457.5 822,-451.5 822,-445.5 822,-445.5 822,-433.5 822,-433.5 822,-427.5 828,-421.5 834,-421.5"/>
<text text-anchor="middle" x="849" y="-435.8" font-family="Times,serif" font-size="14.00">=</text>
</g>
<!-- node50&#45;&gt;node51 -->
<g id="edge51" class="edge">
<title>node50&#45;&gt;node51</title>
<path fill="none" stroke="#8b00ff" d="M849,-494.31C849,-486.29 849,-476.55 849,-467.57"/>
<polygon fill="#8b00ff" stroke="#8b00ff" points="852.5,-467.53 849,-457.53 845.5,-467.53 852.5,-467.53"/>
</g>
<!-- node57 -->
<g id="node58" class="node">
<title>node57</title>
<path fill="#006400" stroke="black" d="M951,-421.5C951,-421.5 981,-421.5 981,-421.5 987,-421.5 993,-427.5 993,-433.5 993,-433.5 993,-445.5 993,-445.5 993,-451.5 987,-457.5 981,-457.5 981,-457.5 951,-457.5 951,-457.5 945,-457.5 939,-451.5 939,-445.5 939,-445.5 939,-433.5 939,-433.5 939,-427.5 945,-421.5 951,-421.5"/>
<text text-anchor="middle" x="966" y="-435.8" font-family="Times,serif" font-size="14.00">;</text>
</g>
<!-- node50&#45;&gt;node57 -->
<g id="edge57" class="edge">
<title>node50&#45;&gt;node57</title>
<path fill="none" stroke="#006400" d="M876.14,-495.03C892.12,-485.33 912.53,-472.95 929.86,-462.43"/>
<polygon fill="#006400" stroke="#006400" points="931.87,-465.3 938.61,-457.12 928.24,-459.32 931.87,-465.3"/>
</g>
<!-- node52 -->
<g id="node53" class="node">
<title>node52</title>
<path fill="#ccff99" stroke="black" d="M815,-332C815,-332 845,-332 845,-332 851,-332 857,-338 857,-344 857,-344 857,-356 857,-356 857,-362 851,-368 845,-368 845,-368 815,-368 815,-368 809,-368 803,-362 803,-356 803,-356 803,-344 803,-344 803,-338 809,-332 815,-332"/>
<text text-anchor="middle" x="830" y="-346.3" font-family="Times,serif" font-size="14.00">0</text>
</g>
<!-- node51&#45;&gt;node52 -->
<g id="edge52" class="edge">
<title>node51&#45;&gt;node52</title>
<path fill="none" stroke="#ccff99" d="M845.25,-421.21C842.59,-408.99 838.98,-392.35 835.94,-378.34"/>
<polygon fill="#ccff99" stroke="#ccff99" points="839.29,-377.28 833.75,-368.25 832.45,-378.77 839.29,-377.28"/>
</g>
<!-- node53 -->
<g id="node54" class="node">
<title>node53</title>
<path fill="#8b00ff" stroke="black" d="M887,-332C887,-332 917,-332 917,-332 923,-332 929,-338 929,-344 929,-344 929,-356 929,-356 929,-362 923,-368 917,-368 917,-368 887,-368 887,-368 881,-368 875,-362 875,-356 875,-356 875,-344 875,-344 875,-338 881,-332 887,-332"/>
<text text-anchor="middle" x="902" y="-346.3" font-family="Times,serif" font-size="14.00">*</text>
</g>
<!-- node51&#45;&gt;node53 -->
<g id="edge53" class="edge">
<title>node51&#45;&gt;node53</title>
<path fill="none" stroke="#8b00ff" d="M859.47,-421.21C867.09,-408.63 877.55,-391.37 886.19,-377.11"/>
<polygon fill="#8b00ff" stroke="#8b00ff" points="889.36,-378.62 891.55,-368.25 883.38,-374.99 889.36,-378.62"/>
</g>
<!-- node54 -->
<g id="node55" class="node">
<title>node54</title>
<path fill="#ccff99" stroke="black" d="M797,-242.5C797,-242.5 827,-242.5 827,-242.5 833,-242.5 839,-248.5 839,-254.5 839,-254.5 839,-266.5 839,-266.5 839,-272.5 833,-278.5 827,-278.5 827,-278.5 797,-278.5 797,-278.5 791,-278.5 785,-272.5 785,-266.5 785,-266.5 785,-254.5 785,-254.5 785,-248.5 791,-242.5 797,-242.5"/>
<text text-anchor="middle" x="812" y="-256.8" font-family="Times,serif" font-size="14.00">0</text>
</g>
<!-- node53&#45;&gt;node54 -->
<g id="edge54" class="edge">
<title>node53&#45;&gt;node54</title>
<path fill="none" stroke="#ccff99" d="M884.22,-331.71C870.78,-318.65 852.16,-300.55 837.19,-285.99"/>
<polygon fill="#ccff99" stroke="#ccff99" points="839.35,-283.21 829.74,-278.75 834.47,-288.23 839.35,-283.21"/>
</g>
<!-- node55 -->
<g id="node56" class="node">
<title>node55</title>
<ellipse fill="none" stroke="black" cx="902" cy="-260.5" rx="44.69" ry="18"/>
<text text-anchor="middle" x="902" y="-256.8" font-family="Times,serif" font-size="14.00">node55</text>
</g>
<!-- node53&#45;&gt;node55 -->
<g id="edge55" class="edge">
<title>node53&#45;&gt;node55</title>
<path fill="none" stroke="#000000" d="M902,-331.71C902,-319.49 902,-302.85 902,-288.84"/>
<polygon fill="#000000" stroke="#000000" points="905.5,-288.75 902,-278.75 898.5,-288.75 905.5,-288.75"/>
</g>
<!-- node56 -->
<g id="node57" class="node">
<title>node56</title>
<path fill="#ff00ff" stroke="black" d="M887,-169.5C887,-169.5 917,-169.5 917,-169.5 923,-169.5 929,-175.5 929,-181.5 929,-181.5 929,-193.5 929,-193.5 929,-199.5 923,-205.5 917,-205.5 917,-205.5 887,-205.5 887,-205.5 881,-205.5 875,-199.5 875,-193.5 875,-193.5 875,-181.5 875,-181.5 875,-175.5 881,-169.5 887,-169.5"/>
<text text-anchor="middle" x="902" y="-183.8" font-family="Times,serif" font-size="14.00">1</text>
</g>
<!-- node55&#45;&gt;node56 -->
<g id="edge56" class="edge">
<title>node55&#45;&gt;node56</title>
<path fill="none" stroke="#ff00ff" d="M902,-242.31C902,-234.29 902,-224.55 902,-215.57"/>
<polygon fill="#ff00ff" stroke="#ff00ff" points="905.5,-215.53 902,-205.53 898.5,-215.53 905.5,-215.53"/>
</g>
<!-- node58 -->
<g id="node59" class="node">
<title>node58</title>
<path fill="#8b00ff" stroke="black" d="M966,-332C966,-332 1004,-332 1004,-332 1010,-332 1016,-338 1016,-344 1016,-344 1016,-356 1016,-356 1016,-362 1010,-368 1004,-368 1004,-368 966,-368 966,-368 960,-368 954,-362 954,-356 954,-356 954,-344 954,-344 954,-338 960,-332 966,-332"/>
<text text-anchor="middle" x="985" y="-346.3" font-family="Times,serif" font-size="14.00">return</text>
</g>
<!-- node57&#45;&gt;node58 -->
<g id="edge58" class="edge">
<title>node57&#45;&gt;node58</title>
<path fill="none" stroke="#8b00ff" d="M969.75,-421.21C972.41,-408.99 976.02,-392.35 979.06,-378.34"/>
<polygon fill="#8b00ff" stroke="#8b00ff" points="982.55,-378.77 981.25,-368.25 975.71,-377.28 982.55,-378.77"/>
</g>
<!-- node59 -->
<g id="node60" class="node">
<title>node59</title>
<path fill="#ccff99" stroke="black" d="M977,-242.5C977,-242.5 1007,-242.5 1007,-242.5 1013,-242.5 1019,-248.5 1019,-254.5 1019,-254.5 1019,-266.5 1019,-266.5 1019,-272.5 1013,-278.5 1007,-278.5 1007,-278.5 977,-278.5 977,-278.5 971,-278.5 965,-272.5 965,-266.5 965,-266.5 965,-254.5 965,-254.5 965,-248.5 971,-242.5 977,-242.5"/>
<text text-anchor="middle" x="992" y="-256.8" font-family="Times,serif" font-size="14.00">0</text>
</g>
<!-- node58&#45;&gt;node59 -->
<g id="edge59" class="edge">
<title>node58&#45;&gt;node59</title>
<path fill="none" stroke="#ccff99" d="M986.38,-331.71C987.36,-319.49 988.69,-302.85 989.81,-288.84"/>
<polygon fill="#ccff99" stroke="#ccff99" points="993.31,-289 990.62,-278.75 986.33,-288.44 993.31,-289"/>
</g>
</g>
</svg>
