<?xml version="1.0" encoding="UTF-8" standalone="no"?>
<!DOCTYPE svg PUBLIC "-//W3C//DTD SVG 1.1//EN"
 "http://www.w3.org/Graphics/SVG/1.1/DTD/svg11.dtd">
<!-- Generated by graphviz version 2.43.0 (0)
 -->
<!-- Title: List Pages: 1 -->
<svg width="1206pt" height="977pt"
 viewBox="0.00 0.00 1206.00 977.00" xmlns="http://www.w3.org/2000/svg" xmlns:xlink="http://www.w3.org/1999/xlink">
<g id="graph0" class="graph" transform="scale(1 1) rotate(0) translate(4 973)">
<title>List</title>
<polygon fill="#696969" stroke="transparent" points="-4,4 -4,-973 1202,-973 1202,4 -4,4"/>
<text text-anchor="middle" x="599" y="-7.8" font-family="Times,serif" font-size="14.00">tree_dump from function main, Tree/./src/main.cpp:14</text>
<!-- node0 -->
<g id="node1" class="node">
<title>node0</title>
<path fill="#006400" stroke="black" d="M549,-932.5C549,-932.5 579,-932.5 579,-932.5 585,-932.5 591,-938.5 591,-944.5 591,-944.5 591,-956.5 591,-956.5 591,-962.5 585,-968.5 579,-968.5 579,-968.5 549,-968.5 549,-968.5 543,-968.5 537,-962.5 537,-956.5 537,-956.5 537,-944.5 537,-944.5 537,-938.5 543,-932.5 549,-932.5"/>
<text text-anchor="middle" x="564" y="-946.8" font-family="Times,serif" font-size="14.00">;</text>
</g>
<!-- node1 -->
<g id="node2" class="node">
<title>node1</title>
<path fill="#ff0000" stroke="black" d="M513,-859.5C513,-859.5 543,-859.5 543,-859.5 549,-859.5 555,-865.5 555,-871.5 555,-871.5 555,-883.5 555,-883.5 555,-889.5 549,-895.5 543,-895.5 543,-895.5 513,-895.5 513,-895.5 507,-895.5 501,-889.5 501,-883.5 501,-883.5 501,-871.5 501,-871.5 501,-865.5 507,-859.5 513,-859.5"/>
<text text-anchor="middle" x="528" y="-873.8" font-family="Times,serif" font-size="14.00">0</text>
</g>
<!-- node0&#45;&gt;node1 -->
<g id="edge1" class="edge">
<title>node0&#45;&gt;node1</title>
<path fill="none" stroke="#ff0000" d="M555.29,-932.31C551.08,-924.03 545.95,-913.91 541.28,-904.69"/>
<polygon fill="#ff0000" stroke="#ff0000" points="544.28,-902.87 536.63,-895.53 538.04,-906.03 544.28,-902.87"/>
</g>
<!-- node40 -->
<g id="node41" class="node">
<title>node40</title>
<path fill="#006400" stroke="black" d="M612,-859.5C612,-859.5 642,-859.5 642,-859.5 648,-859.5 654,-865.5 654,-871.5 654,-871.5 654,-883.5 654,-883.5 654,-889.5 648,-895.5 642,-895.5 642,-895.5 612,-895.5 612,-895.5 606,-895.5 600,-889.5 600,-883.5 600,-883.5 600,-871.5 600,-871.5 600,-865.5 606,-859.5 612,-859.5"/>
<text text-anchor="middle" x="627" y="-873.8" font-family="Times,serif" font-size="14.00">;</text>
</g>
<!-- node0&#45;&gt;node40 -->
<g id="edge40" class="edge">
<title>node0&#45;&gt;node40</title>
<path fill="none" stroke="#006400" d="M579.25,-932.31C586.99,-923.59 596.53,-912.84 605.04,-903.25"/>
<polygon fill="#006400" stroke="#006400" points="607.87,-905.33 611.89,-895.53 602.63,-900.69 607.87,-905.33"/>
</g>
<!-- node2 -->
<g id="node3" class="node">
<title>node2</title>
<path fill="#006400" stroke="black" d="M459,-786.5C459,-786.5 489,-786.5 489,-786.5 495,-786.5 501,-792.5 501,-798.5 501,-798.5 501,-810.5 501,-810.5 501,-816.5 495,-822.5 489,-822.5 489,-822.5 459,-822.5 459,-822.5 453,-822.5 447,-816.5 447,-810.5 447,-810.5 447,-798.5 447,-798.5 447,-792.5 453,-786.5 459,-786.5"/>
<text text-anchor="middle" x="474" y="-800.8" font-family="Times,serif" font-size="14.00">;</text>
</g>
<!-- node1&#45;&gt;node2 -->
<g id="edge2" class="edge">
<title>node1&#45;&gt;node2</title>
<path fill="none" stroke="#006400" d="M514.93,-859.31C508.36,-850.68 500.28,-840.06 493.04,-830.53"/>
<polygon fill="#006400" stroke="#006400" points="495.79,-828.37 486.95,-822.53 490.22,-832.61 495.79,-828.37"/>
</g>
<!-- node3 -->
<g id="node4" class="node">
<title>node3</title>
<path fill="#8b00ff" stroke="black" d="M387,-713.5C387,-713.5 417,-713.5 417,-713.5 423,-713.5 429,-719.5 429,-725.5 429,-725.5 429,-737.5 429,-737.5 429,-743.5 423,-749.5 417,-749.5 417,-749.5 387,-749.5 387,-749.5 381,-749.5 375,-743.5 375,-737.5 375,-737.5 375,-725.5 375,-725.5 375,-719.5 381,-713.5 387,-713.5"/>
<text text-anchor="middle" x="402" y="-727.8" font-family="Times,serif" font-size="14.00">input</text>
</g>
<!-- node2&#45;&gt;node3 -->
<g id="edge3" class="edge">
<title>node2&#45;&gt;node3</title>
<path fill="none" stroke="#8b00ff" d="M456.57,-786.31C447.55,-777.42 436.39,-766.41 426.51,-756.67"/>
<polygon fill="#8b00ff" stroke="#8b00ff" points="428.85,-754.06 419.27,-749.53 423.93,-759.04 428.85,-754.06"/>
</g>
<!-- node5 -->
<g id="node6" class="node">
<title>node5</title>
<path fill="#006400" stroke="black" d="M459,-713.5C459,-713.5 489,-713.5 489,-713.5 495,-713.5 501,-719.5 501,-725.5 501,-725.5 501,-737.5 501,-737.5 501,-743.5 495,-749.5 489,-749.5 489,-749.5 459,-749.5 459,-749.5 453,-749.5 447,-743.5 447,-737.5 447,-737.5 447,-725.5 447,-725.5 447,-719.5 453,-713.5 459,-713.5"/>
<text text-anchor="middle" x="474" y="-727.8" font-family="Times,serif" font-size="14.00">;</text>
</g>
<!-- node2&#45;&gt;node5 -->
<g id="edge5" class="edge">
<title>node2&#45;&gt;node5</title>
<path fill="none" stroke="#006400" d="M474,-786.31C474,-778.29 474,-768.55 474,-759.57"/>
<polygon fill="#006400" stroke="#006400" points="477.5,-759.53 474,-749.53 470.5,-759.53 477.5,-759.53"/>
</g>
<!-- node4 -->
<g id="node5" class="node">
<title>node4</title>
<path fill="#ff00ff" stroke="black" d="M373,-640.5C373,-640.5 403,-640.5 403,-640.5 409,-640.5 415,-646.5 415,-652.5 415,-652.5 415,-664.5 415,-664.5 415,-670.5 409,-676.5 403,-676.5 403,-676.5 373,-676.5 373,-676.5 367,-676.5 361,-670.5 361,-664.5 361,-664.5 361,-652.5 361,-652.5 361,-646.5 367,-640.5 373,-640.5"/>
<text text-anchor="middle" x="388" y="-654.8" font-family="Times,serif" font-size="14.00">1</text>
</g>
<!-- node3&#45;&gt;node4 -->
<g id="edge4" class="edge">
<title>node3&#45;&gt;node4</title>
<path fill="none" stroke="#ff00ff" d="M398.61,-713.31C397.03,-705.29 395.11,-695.55 393.34,-686.57"/>
<polygon fill="#ff00ff" stroke="#ff00ff" points="396.73,-685.66 391.36,-676.53 389.86,-687.02 396.73,-685.66"/>
</g>
<!-- node6 -->
<g id="node7" class="node">
<title>node6</title>
<path fill="#8b00ff" stroke="black" d="M445,-640.5C445,-640.5 475,-640.5 475,-640.5 481,-640.5 487,-646.5 487,-652.5 487,-652.5 487,-664.5 487,-664.5 487,-670.5 481,-676.5 475,-676.5 475,-676.5 445,-676.5 445,-676.5 439,-676.5 433,-670.5 433,-664.5 433,-664.5 433,-652.5 433,-652.5 433,-646.5 439,-640.5 445,-640.5"/>
<text text-anchor="middle" x="460" y="-654.8" font-family="Times,serif" font-size="14.00">=</text>
</g>
<!-- node5&#45;&gt;node6 -->
<g id="edge6" class="edge">
<title>node5&#45;&gt;node6</title>
<path fill="none" stroke="#8b00ff" d="M470.61,-713.31C469.03,-705.29 467.11,-695.55 465.34,-686.57"/>
<polygon fill="#8b00ff" stroke="#8b00ff" points="468.73,-685.66 463.36,-676.53 461.86,-687.02 468.73,-685.66"/>
</g>
<!-- node9 -->
<g id="node10" class="node">
<title>node9</title>
<path fill="#006400" stroke="black" d="M517,-640.5C517,-640.5 547,-640.5 547,-640.5 553,-640.5 559,-646.5 559,-652.5 559,-652.5 559,-664.5 559,-664.5 559,-670.5 553,-676.5 547,-676.5 547,-676.5 517,-676.5 517,-676.5 511,-676.5 505,-670.5 505,-664.5 505,-664.5 505,-652.5 505,-652.5 505,-646.5 511,-640.5 517,-640.5"/>
<text text-anchor="middle" x="532" y="-654.8" font-family="Times,serif" font-size="14.00">;</text>
</g>
<!-- node5&#45;&gt;node9 -->
<g id="edge9" class="edge">
<title>node5&#45;&gt;node9</title>
<path fill="none" stroke="#006400" d="M488.04,-713.31C495.09,-704.68 503.77,-694.06 511.55,-684.53"/>
<polygon fill="#006400" stroke="#006400" points="514.47,-686.49 518.09,-676.53 509.05,-682.06 514.47,-686.49"/>
</g>
<!-- node7 -->
<g id="node8" class="node">
<title>node7</title>
<path fill="#ccff99" stroke="black" d="M373,-567.5C373,-567.5 403,-567.5 403,-567.5 409,-567.5 415,-573.5 415,-579.5 415,-579.5 415,-591.5 415,-591.5 415,-597.5 409,-603.5 403,-603.5 403,-603.5 373,-603.5 373,-603.5 367,-603.5 361,-597.5 361,-591.5 361,-591.5 361,-579.5 361,-579.5 361,-573.5 367,-567.5 373,-567.5"/>
<text text-anchor="middle" x="388" y="-581.8" font-family="Times,serif" font-size="14.00">2</text>
</g>
<!-- node6&#45;&gt;node7 -->
<g id="edge7" class="edge">
<title>node6&#45;&gt;node7</title>
<path fill="none" stroke="#ccff99" d="M442.57,-640.31C433.55,-631.42 422.39,-620.41 412.51,-610.67"/>
<polygon fill="#ccff99" stroke="#ccff99" points="414.85,-608.06 405.27,-603.53 409.93,-613.04 414.85,-608.06"/>
</g>
<!-- node8 -->
<g id="node9" class="node">
<title>node8</title>
<path fill="#00bfff" stroke="black" d="M445,-567.5C445,-567.5 475,-567.5 475,-567.5 481,-567.5 487,-573.5 487,-579.5 487,-579.5 487,-591.5 487,-591.5 487,-597.5 481,-603.5 475,-603.5 475,-603.5 445,-603.5 445,-603.5 439,-603.5 433,-597.5 433,-591.5 433,-591.5 433,-579.5 433,-579.5 433,-573.5 439,-567.5 445,-567.5"/>
<text text-anchor="middle" x="460" y="-581.8" font-family="Times,serif" font-size="14.00">1</text>
</g>
<!-- node6&#45;&gt;node8 -->
<g id="edge8" class="edge">
<title>node6&#45;&gt;node8</title>
<path fill="none" stroke="#00bfff" d="M460,-640.31C460,-632.29 460,-622.55 460,-613.57"/>
<polygon fill="#00bfff" stroke="#00bfff" points="463.5,-613.53 460,-603.53 456.5,-613.53 463.5,-613.53"/>
</g>
<!-- node10 -->
<g id="node11" class="node">
<title>node10</title>
<path fill="#8b00ff" stroke="black" d="M517,-567.5C517,-567.5 547,-567.5 547,-567.5 553,-567.5 559,-573.5 559,-579.5 559,-579.5 559,-591.5 559,-591.5 559,-597.5 553,-603.5 547,-603.5 547,-603.5 517,-603.5 517,-603.5 511,-603.5 505,-597.5 505,-591.5 505,-591.5 505,-579.5 505,-579.5 505,-573.5 511,-567.5 517,-567.5"/>
<text text-anchor="middle" x="532" y="-581.8" font-family="Times,serif" font-size="14.00">if</text>
</g>
<!-- node9&#45;&gt;node10 -->
<g id="edge10" class="edge">
<title>node9&#45;&gt;node10</title>
<path fill="none" stroke="#8b00ff" d="M532,-640.31C532,-632.29 532,-622.55 532,-613.57"/>
<polygon fill="#8b00ff" stroke="#8b00ff" points="535.5,-613.53 532,-603.53 528.5,-613.53 535.5,-613.53"/>
</g>
<!-- node11 -->
<g id="node12" class="node">
<title>node11</title>
<path fill="#ffffff" stroke="black" d="M298,-494.5C298,-494.5 332,-494.5 332,-494.5 338,-494.5 344,-500.5 344,-506.5 344,-506.5 344,-518.5 344,-518.5 344,-524.5 338,-530.5 332,-530.5 332,-530.5 298,-530.5 298,-530.5 292,-530.5 286,-524.5 286,-518.5 286,-518.5 286,-506.5 286,-506.5 286,-500.5 292,-494.5 298,-494.5"/>
<text text-anchor="middle" x="315" y="-508.8" font-family="Times,serif" font-size="14.00">op_no</text>
</g>
<!-- node10&#45;&gt;node11 -->
<g id="edge11" class="edge">
<title>node10&#45;&gt;node11</title>
<path fill="none" stroke="#ffffff" d="M504.69,-570.65C501.79,-569.35 498.85,-568.11 496,-567 448.11,-548.43 391,-532.54 353.92,-523.01"/>
<polygon fill="#ffffff" stroke="#ffffff" points="354.57,-519.57 344.02,-520.5 352.85,-526.35 354.57,-519.57"/>
</g>
<!-- node22 -->
<g id="node23" class="node">
<title>node22</title>
<path fill="#8b00ff" stroke="black" d="M516.5,-494.5C516.5,-494.5 547.5,-494.5 547.5,-494.5 553.5,-494.5 559.5,-500.5 559.5,-506.5 559.5,-506.5 559.5,-518.5 559.5,-518.5 559.5,-524.5 553.5,-530.5 547.5,-530.5 547.5,-530.5 516.5,-530.5 516.5,-530.5 510.5,-530.5 504.5,-524.5 504.5,-518.5 504.5,-518.5 504.5,-506.5 504.5,-506.5 504.5,-500.5 510.5,-494.5 516.5,-494.5"/>
<text text-anchor="middle" x="532" y="-508.8" font-family="Times,serif" font-size="14.00">elseif</text>
</g>
<!-- node10&#45;&gt;node22 -->
<g id="edge22" class="edge">
<title>node10&#45;&gt;node22</title>
<path fill="none" stroke="#8b00ff" d="M532,-567.31C532,-559.29 532,-549.55 532,-540.57"/>
<polygon fill="#8b00ff" stroke="#8b00ff" points="535.5,-540.53 532,-530.53 528.5,-540.53 535.5,-540.53"/>
</g>
<!-- node12 -->
<g id="node13" class="node">
<title>node12</title>
<path fill="#8b00ff" stroke="black" d="M196,-388.5C196,-388.5 226,-388.5 226,-388.5 232,-388.5 238,-394.5 238,-400.5 238,-400.5 238,-445.5 238,-445.5 238,-451.5 232,-457.5 226,-457.5 226,-457.5 196,-457.5 196,-457.5 190,-457.5 184,-451.5 184,-445.5 184,-445.5 184,-400.5 184,-400.5 184,-394.5 190,-388.5 196,-388.5"/>
<text text-anchor="middle" x="211" y="-442.3" font-family="Times,serif" font-size="14.00"> </text>
<polyline fill="none" stroke="black" points="184,-434.5 238,-434.5 "/>
<text text-anchor="middle" x="211" y="-419.3" font-family="Times,serif" font-size="14.00"> </text>
<polyline fill="none" stroke="black" points="184,-411.5 238,-411.5 "/>
<text text-anchor="middle" x="211" y="-396.3" font-family="Times,serif" font-size="14.00"> </text>
</g>
<!-- node11&#45;&gt;node12 -->
<g id="edge12" class="edge">
<title>node11&#45;&gt;node12</title>
<path fill="none" stroke="#8b00ff" d="M294.45,-494.21C280.62,-482.57 262.02,-466.92 245.89,-453.36"/>
<polygon fill="#8b00ff" stroke="#8b00ff" points="248.11,-450.65 238.21,-446.89 243.6,-456.01 248.11,-450.65"/>
</g>
<!-- node19 -->
<g id="node20" class="node">
<title>node19</title>
<path fill="#006400" stroke="black" d="M300,-405C300,-405 330,-405 330,-405 336,-405 342,-411 342,-417 342,-417 342,-429 342,-429 342,-435 336,-441 330,-441 330,-441 300,-441 300,-441 294,-441 288,-435 288,-429 288,-429 288,-417 288,-417 288,-411 294,-405 300,-405"/>
<text text-anchor="middle" x="315" y="-419.3" font-family="Times,serif" font-size="14.00">;</text>
</g>
<!-- node11&#45;&gt;node19 -->
<g id="edge19" class="edge">
<title>node11&#45;&gt;node19</title>
<path fill="none" stroke="#006400" d="M315,-494.21C315,-481.99 315,-465.35 315,-451.34"/>
<polygon fill="#006400" stroke="#006400" points="318.5,-451.25 315,-441.25 311.5,-451.25 318.5,-451.25"/>
</g>
<!-- node13 -->
<g id="node14" class="node">
<title>node13</title>
<path fill="#8b00ff" stroke="black" d="M76.5,-315.5C76.5,-315.5 121.5,-315.5 121.5,-315.5 127.5,-315.5 133.5,-321.5 133.5,-327.5 133.5,-327.5 133.5,-339.5 133.5,-339.5 133.5,-345.5 127.5,-351.5 121.5,-351.5 121.5,-351.5 76.5,-351.5 76.5,-351.5 70.5,-351.5 64.5,-345.5 64.5,-339.5 64.5,-339.5 64.5,-327.5 64.5,-327.5 64.5,-321.5 70.5,-315.5 76.5,-315.5"/>
<text text-anchor="middle" x="99" y="-329.8" font-family="Times,serif" font-size="14.00">node13</text>
</g>
<!-- node12&#45;&gt;node13 -->
<g id="edge13" class="edge">
<title>node12&#45;&gt;node13</title>
<path fill="none" stroke="#8b00ff" d="M183.89,-400.82C167.31,-387.87 146.08,-371.28 129,-357.93"/>
<polygon fill="#8b00ff" stroke="#8b00ff" points="131.02,-355.07 120.98,-351.67 126.71,-360.59 131.02,-355.07"/>
</g>
<!-- node16 -->
<g id="node17" class="node">
<title>node16</title>
<path fill="#8b00ff" stroke="black" d="M196,-315.5C196,-315.5 226,-315.5 226,-315.5 232,-315.5 238,-321.5 238,-327.5 238,-327.5 238,-339.5 238,-339.5 238,-345.5 232,-351.5 226,-351.5 226,-351.5 196,-351.5 196,-351.5 190,-351.5 184,-345.5 184,-339.5 184,-339.5 184,-327.5 184,-327.5 184,-321.5 190,-315.5 196,-315.5"/>
<text text-anchor="middle" x="211" y="-329.8" font-family="Times,serif" font-size="14.00">==</text>
</g>
<!-- node12&#45;&gt;node16 -->
<g id="edge16" class="edge">
<title>node12&#45;&gt;node16</title>
<path fill="none" stroke="#8b00ff" d="M211,-388.42C211,-379.61 211,-370.22 211,-361.78"/>
<polygon fill="#8b00ff" stroke="#8b00ff" points="214.5,-361.72 211,-351.72 207.5,-361.72 214.5,-361.72"/>
</g>
<!-- node14 -->
<g id="node15" class="node">
<title>node14</title>
<path fill="#ccff99" stroke="black" d="M12,-242.5C12,-242.5 42,-242.5 42,-242.5 48,-242.5 54,-248.5 54,-254.5 54,-254.5 54,-266.5 54,-266.5 54,-272.5 48,-278.5 42,-278.5 42,-278.5 12,-278.5 12,-278.5 6,-278.5 0,-272.5 0,-266.5 0,-266.5 0,-254.5 0,-254.5 0,-248.5 6,-242.5 12,-242.5"/>
<text text-anchor="middle" x="27" y="-256.8" font-family="Times,serif" font-size="14.00">1</text>
</g>
<!-- node13&#45;&gt;node14 -->
<g id="edge14" class="edge">
<title>node13&#45;&gt;node14</title>
<path fill="none" stroke="#ccff99" d="M81.57,-315.31C72.55,-306.42 61.39,-295.41 51.51,-285.67"/>
<polygon fill="#ccff99" stroke="#ccff99" points="53.85,-283.06 44.27,-278.53 48.93,-288.04 53.85,-283.06"/>
</g>
<!-- node15 -->
<g id="node16" class="node">
<title>node15</title>
<path fill="#00bfff" stroke="black" d="M84,-242.5C84,-242.5 114,-242.5 114,-242.5 120,-242.5 126,-248.5 126,-254.5 126,-254.5 126,-266.5 126,-266.5 126,-272.5 120,-278.5 114,-278.5 114,-278.5 84,-278.5 84,-278.5 78,-278.5 72,-272.5 72,-266.5 72,-266.5 72,-254.5 72,-254.5 72,-248.5 78,-242.5 84,-242.5"/>
<text text-anchor="middle" x="99" y="-256.8" font-family="Times,serif" font-size="14.00">0</text>
</g>
<!-- node13&#45;&gt;node15 -->
<g id="edge15" class="edge">
<title>node13&#45;&gt;node15</title>
<path fill="none" stroke="#00bfff" d="M99,-315.31C99,-307.29 99,-297.55 99,-288.57"/>
<polygon fill="#00bfff" stroke="#00bfff" points="102.5,-288.53 99,-278.53 95.5,-288.53 102.5,-288.53"/>
</g>
<!-- node17 -->
<g id="node18" class="node">
<title>node17</title>
<path fill="#ccff99" stroke="black" d="M156,-242.5C156,-242.5 186,-242.5 186,-242.5 192,-242.5 198,-248.5 198,-254.5 198,-254.5 198,-266.5 198,-266.5 198,-272.5 192,-278.5 186,-278.5 186,-278.5 156,-278.5 156,-278.5 150,-278.5 144,-272.5 144,-266.5 144,-266.5 144,-254.5 144,-254.5 144,-248.5 150,-242.5 156,-242.5"/>
<text text-anchor="middle" x="171" y="-256.8" font-family="Times,serif" font-size="14.00">1</text>
</g>
<!-- node16&#45;&gt;node17 -->
<g id="edge17" class="edge">
<title>node16&#45;&gt;node17</title>
<path fill="none" stroke="#ccff99" d="M201.32,-315.31C196.6,-306.94 190.83,-296.7 185.59,-287.4"/>
<polygon fill="#ccff99" stroke="#ccff99" points="188.55,-285.52 180.59,-278.53 182.45,-288.96 188.55,-285.52"/>
</g>
<!-- node18 -->
<g id="node19" class="node">
<title>node18</title>
<path fill="#00bfff" stroke="black" d="M228,-242.5C228,-242.5 258,-242.5 258,-242.5 264,-242.5 270,-248.5 270,-254.5 270,-254.5 270,-266.5 270,-266.5 270,-272.5 264,-278.5 258,-278.5 258,-278.5 228,-278.5 228,-278.5 222,-278.5 216,-272.5 216,-266.5 216,-266.5 216,-254.5 216,-254.5 216,-248.5 222,-242.5 228,-242.5"/>
<text text-anchor="middle" x="243" y="-256.8" font-family="Times,serif" font-size="14.00">0</text>
</g>
<!-- node16&#45;&gt;node18 -->
<g id="edge18" class="edge">
<title>node16&#45;&gt;node18</title>
<path fill="none" stroke="#00bfff" d="M218.75,-315.31C222.48,-307.03 227.04,-296.91 231.19,-287.69"/>
<polygon fill="#00bfff" stroke="#00bfff" points="234.41,-289.08 235.33,-278.53 228.03,-286.21 234.41,-289.08"/>
</g>
<!-- node20 -->
<g id="node21" class="node">
<title>node20</title>
<path fill="#8b00ff" stroke="black" d="M300,-315.5C300,-315.5 330,-315.5 330,-315.5 336,-315.5 342,-321.5 342,-327.5 342,-327.5 342,-339.5 342,-339.5 342,-345.5 336,-351.5 330,-351.5 330,-351.5 300,-351.5 300,-351.5 294,-351.5 288,-345.5 288,-339.5 288,-339.5 288,-327.5 288,-327.5 288,-321.5 294,-315.5 300,-315.5"/>
<text text-anchor="middle" x="315" y="-329.8" font-family="Times,serif" font-size="14.00">print</text>
</g>
<!-- node19&#45;&gt;node20 -->
<g id="edge20" class="edge">
<title>node19&#45;&gt;node20</title>
<path fill="none" stroke="#8b00ff" d="M315,-404.71C315,-392.49 315,-375.85 315,-361.84"/>
<polygon fill="#8b00ff" stroke="#8b00ff" points="318.5,-361.75 315,-351.75 311.5,-361.75 318.5,-361.75"/>
</g>
<!-- node21 -->
<g id="node22" class="node">
<title>node21</title>
<path fill="#ff00ff" stroke="black" d="M300,-242.5C300,-242.5 330,-242.5 330,-242.5 336,-242.5 342,-248.5 342,-254.5 342,-254.5 342,-266.5 342,-266.5 342,-272.5 336,-278.5 330,-278.5 330,-278.5 300,-278.5 300,-278.5 294,-278.5 288,-272.5 288,-266.5 288,-266.5 288,-254.5 288,-254.5 288,-248.5 294,-242.5 300,-242.5"/>
<text text-anchor="middle" x="315" y="-256.8" font-family="Times,serif" font-size="14.00">2</text>
</g>
<!-- node20&#45;&gt;node21 -->
<g id="edge21" class="edge">
<title>node20&#45;&gt;node21</title>
<path fill="none" stroke="#ff00ff" d="M315,-315.31C315,-307.29 315,-297.55 315,-288.57"/>
<polygon fill="#ff00ff" stroke="#ff00ff" points="318.5,-288.53 315,-278.53 311.5,-288.53 318.5,-288.53"/>
</g>
<!-- node23 -->
<g id="node24" class="node">
<title>node23</title>
<path fill="#ffffff" stroke="black" d="M478,-405C478,-405 512,-405 512,-405 518,-405 524,-411 524,-417 524,-417 524,-429 524,-429 524,-435 518,-441 512,-441 512,-441 478,-441 478,-441 472,-441 466,-435 466,-429 466,-429 466,-417 466,-417 466,-411 472,-405 478,-405"/>
<text text-anchor="middle" x="495" y="-419.3" font-family="Times,serif" font-size="14.00">op_no</text>
</g>
<!-- node22&#45;&gt;node23 -->
<g id="edge23" class="edge">
<title>node22&#45;&gt;node23</title>
<path fill="none" stroke="#ffffff" d="M524.69,-494.21C519.42,-481.75 512.21,-464.7 506.21,-450.52"/>
<polygon fill="#ffffff" stroke="#ffffff" points="509.41,-449.1 502.29,-441.25 502.97,-451.82 509.41,-449.1"/>
</g>
<!-- node30 -->
<g id="node31" class="node">
<title>node30</title>
<path fill="#8b00ff" stroke="black" d="M554,-405C554,-405 584,-405 584,-405 590,-405 596,-411 596,-417 596,-417 596,-429 596,-429 596,-435 590,-441 584,-441 584,-441 554,-441 554,-441 548,-441 542,-435 542,-429 542,-429 542,-417 542,-417 542,-411 548,-405 554,-405"/>
<text text-anchor="middle" x="569" y="-419.3" font-family="Times,serif" font-size="14.00">else</text>
</g>
<!-- node22&#45;&gt;node30 -->
<g id="edge30" class="edge">
<title>node22&#45;&gt;node30</title>
<path fill="none" stroke="#8b00ff" d="M539.31,-494.21C544.58,-481.75 551.79,-464.7 557.79,-450.52"/>
<polygon fill="#8b00ff" stroke="#8b00ff" points="561.03,-451.82 561.71,-441.25 554.59,-449.1 561.03,-451.82"/>
</g>
<!-- node24 -->
<g id="node25" class="node">
<title>node24</title>
<path fill="#8b00ff" stroke="black" d="M444,-315.5C444,-315.5 474,-315.5 474,-315.5 480,-315.5 486,-321.5 486,-327.5 486,-327.5 486,-339.5 486,-339.5 486,-345.5 480,-351.5 474,-351.5 474,-351.5 444,-351.5 444,-351.5 438,-351.5 432,-345.5 432,-339.5 432,-339.5 432,-327.5 432,-327.5 432,-321.5 438,-315.5 444,-315.5"/>
<text text-anchor="middle" x="459" y="-329.8" font-family="Times,serif" font-size="14.00">==</text>
</g>
<!-- node23&#45;&gt;node24 -->
<g id="edge24" class="edge">
<title>node23&#45;&gt;node24</title>
<path fill="none" stroke="#8b00ff" d="M487.89,-404.71C482.76,-392.25 475.74,-375.2 469.91,-361.02"/>
<polygon fill="#8b00ff" stroke="#8b00ff" points="473.14,-359.67 466.1,-351.75 466.67,-362.33 473.14,-359.67"/>
</g>
<!-- node27 -->
<g id="node28" class="node">
<title>node27</title>
<path fill="#006400" stroke="black" d="M516,-315.5C516,-315.5 546,-315.5 546,-315.5 552,-315.5 558,-321.5 558,-327.5 558,-327.5 558,-339.5 558,-339.5 558,-345.5 552,-351.5 546,-351.5 546,-351.5 516,-351.5 516,-351.5 510,-351.5 504,-345.5 504,-339.5 504,-339.5 504,-327.5 504,-327.5 504,-321.5 510,-315.5 516,-315.5"/>
<text text-anchor="middle" x="531" y="-329.8" font-family="Times,serif" font-size="14.00">;</text>
</g>
<!-- node23&#45;&gt;node27 -->
<g id="edge27" class="edge">
<title>node23&#45;&gt;node27</title>
<path fill="none" stroke="#006400" d="M502.11,-404.71C507.24,-392.25 514.26,-375.2 520.09,-361.02"/>
<polygon fill="#006400" stroke="#006400" points="523.33,-362.33 523.9,-351.75 516.86,-359.67 523.33,-362.33"/>
</g>
<!-- node25 -->
<g id="node26" class="node">
<title>node25</title>
<path fill="#ccff99" stroke="black" d="M372,-242.5C372,-242.5 402,-242.5 402,-242.5 408,-242.5 414,-248.5 414,-254.5 414,-254.5 414,-266.5 414,-266.5 414,-272.5 408,-278.5 402,-278.5 402,-278.5 372,-278.5 372,-278.5 366,-278.5 360,-272.5 360,-266.5 360,-266.5 360,-254.5 360,-254.5 360,-248.5 366,-242.5 372,-242.5"/>
<text text-anchor="middle" x="387" y="-256.8" font-family="Times,serif" font-size="14.00">1</text>
</g>
<!-- node24&#45;&gt;node25 -->
<g id="edge25" class="edge">
<title>node24&#45;&gt;node25</title>
<path fill="none" stroke="#ccff99" d="M441.57,-315.31C432.55,-306.42 421.39,-295.41 411.51,-285.67"/>
<polygon fill="#ccff99" stroke="#ccff99" points="413.85,-283.06 404.27,-278.53 408.93,-288.04 413.85,-283.06"/>
</g>
<!-- node26 -->
<g id="node27" class="node">
<title>node26</title>
<path fill="#00bfff" stroke="black" d="M444,-242.5C444,-242.5 474,-242.5 474,-242.5 480,-242.5 486,-248.5 486,-254.5 486,-254.5 486,-266.5 486,-266.5 486,-272.5 480,-278.5 474,-278.5 474,-278.5 444,-278.5 444,-278.5 438,-278.5 432,-272.5 432,-266.5 432,-266.5 432,-254.5 432,-254.5 432,-248.5 438,-242.5 444,-242.5"/>
<text text-anchor="middle" x="459" y="-256.8" font-family="Times,serif" font-size="14.00">1</text>
</g>
<!-- node24&#45;&gt;node26 -->
<g id="edge26" class="edge">
<title>node24&#45;&gt;node26</title>
<path fill="none" stroke="#00bfff" d="M459,-315.31C459,-307.29 459,-297.55 459,-288.57"/>
<polygon fill="#00bfff" stroke="#00bfff" points="462.5,-288.53 459,-278.53 455.5,-288.53 462.5,-288.53"/>
</g>
<!-- node28 -->
<g id="node29" class="node">
<title>node28</title>
<path fill="#8b00ff" stroke="black" d="M516,-242.5C516,-242.5 546,-242.5 546,-242.5 552,-242.5 558,-248.5 558,-254.5 558,-254.5 558,-266.5 558,-266.5 558,-272.5 552,-278.5 546,-278.5 546,-278.5 516,-278.5 516,-278.5 510,-278.5 504,-272.5 504,-266.5 504,-266.5 504,-254.5 504,-254.5 504,-248.5 510,-242.5 516,-242.5"/>
<text text-anchor="middle" x="531" y="-256.8" font-family="Times,serif" font-size="14.00">print</text>
</g>
<!-- node27&#45;&gt;node28 -->
<g id="edge28" class="edge">
<title>node27&#45;&gt;node28</title>
<path fill="none" stroke="#8b00ff" d="M531,-315.31C531,-307.29 531,-297.55 531,-288.57"/>
<polygon fill="#8b00ff" stroke="#8b00ff" points="534.5,-288.53 531,-278.53 527.5,-288.53 534.5,-288.53"/>
</g>
<!-- node29 -->
<g id="node30" class="node">
<title>node29</title>
<path fill="#ff00ff" stroke="black" d="M516,-169.5C516,-169.5 546,-169.5 546,-169.5 552,-169.5 558,-175.5 558,-181.5 558,-181.5 558,-193.5 558,-193.5 558,-199.5 552,-205.5 546,-205.5 546,-205.5 516,-205.5 516,-205.5 510,-205.5 504,-199.5 504,-193.5 504,-193.5 504,-181.5 504,-181.5 504,-175.5 510,-169.5 516,-169.5"/>
<text text-anchor="middle" x="531" y="-183.8" font-family="Times,serif" font-size="14.00">1</text>
</g>
<!-- node28&#45;&gt;node29 -->
<g id="edge29" class="edge">
<title>node28&#45;&gt;node29</title>
<path fill="none" stroke="#ff00ff" d="M531,-242.31C531,-234.29 531,-224.55 531,-215.57"/>
<polygon fill="#ff00ff" stroke="#ff00ff" points="534.5,-215.53 531,-205.53 527.5,-215.53 534.5,-215.53"/>
</g>
<!-- node31 -->
<g id="node32" class="node">
<title>node31</title>
<path fill="#ffffff" stroke="black" d="M588,-315.5C588,-315.5 622,-315.5 622,-315.5 628,-315.5 634,-321.5 634,-327.5 634,-327.5 634,-339.5 634,-339.5 634,-345.5 628,-351.5 622,-351.5 622,-351.5 588,-351.5 588,-351.5 582,-351.5 576,-345.5 576,-339.5 576,-339.5 576,-327.5 576,-327.5 576,-321.5 582,-315.5 588,-315.5"/>
<text text-anchor="middle" x="605" y="-329.8" font-family="Times,serif" font-size="14.00">op_no</text>
</g>
<!-- node30&#45;&gt;node31 -->
<g id="edge31" class="edge">
<title>node30&#45;&gt;node31</title>
<path fill="none" stroke="#ffffff" d="M576.11,-404.71C581.24,-392.25 588.26,-375.2 594.09,-361.02"/>
<polygon fill="#ffffff" stroke="#ffffff" points="597.33,-362.33 597.9,-351.75 590.86,-359.67 597.33,-362.33"/>
</g>
<!-- node32 -->
<g id="node33" class="node">
<title>node32</title>
<path fill="#006400" stroke="black" d="M590,-242.5C590,-242.5 620,-242.5 620,-242.5 626,-242.5 632,-248.5 632,-254.5 632,-254.5 632,-266.5 632,-266.5 632,-272.5 626,-278.5 620,-278.5 620,-278.5 590,-278.5 590,-278.5 584,-278.5 578,-272.5 578,-266.5 578,-266.5 578,-254.5 578,-254.5 578,-248.5 584,-242.5 590,-242.5"/>
<text text-anchor="middle" x="605" y="-256.8" font-family="Times,serif" font-size="14.00">;</text>
</g>
<!-- node31&#45;&gt;node32 -->
<g id="edge32" class="edge">
<title>node31&#45;&gt;node32</title>
<path fill="none" stroke="#006400" d="M605,-315.31C605,-307.29 605,-297.55 605,-288.57"/>
<polygon fill="#006400" stroke="#006400" points="608.5,-288.53 605,-278.53 601.5,-288.53 608.5,-288.53"/>
</g>
<!-- node33 -->
<g id="node34" class="node">
<title>node33</title>
<path fill="#8b00ff" stroke="black" d="M589,-169.5C589,-169.5 619,-169.5 619,-169.5 625,-169.5 631,-175.5 631,-181.5 631,-181.5 631,-193.5 631,-193.5 631,-199.5 625,-205.5 619,-205.5 619,-205.5 589,-205.5 589,-205.5 583,-205.5 577,-199.5 577,-193.5 577,-193.5 577,-181.5 577,-181.5 577,-175.5 583,-169.5 589,-169.5"/>
<text text-anchor="middle" x="604" y="-183.8" font-family="Times,serif" font-size="14.00">=</text>
</g>
<!-- node32&#45;&gt;node33 -->
<g id="edge33" class="edge">
<title>node32&#45;&gt;node33</title>
<path fill="none" stroke="#8b00ff" d="M604.76,-242.31C604.64,-234.29 604.51,-224.55 604.38,-215.57"/>
<polygon fill="#8b00ff" stroke="#8b00ff" points="607.88,-215.48 604.24,-205.53 600.88,-215.58 607.88,-215.48"/>
</g>
<!-- node37 -->
<g id="node38" class="node">
<title>node37</title>
<path fill="#006400" stroke="black" d="M670,-169.5C670,-169.5 700,-169.5 700,-169.5 706,-169.5 712,-175.5 712,-181.5 712,-181.5 712,-193.5 712,-193.5 712,-199.5 706,-205.5 700,-205.5 700,-205.5 670,-205.5 670,-205.5 664,-205.5 658,-199.5 658,-193.5 658,-193.5 658,-181.5 658,-181.5 658,-175.5 664,-169.5 670,-169.5"/>
<text text-anchor="middle" x="685" y="-183.8" font-family="Times,serif" font-size="14.00">;</text>
</g>
<!-- node32&#45;&gt;node37 -->
<g id="edge37" class="edge">
<title>node32&#45;&gt;node37</title>
<path fill="none" stroke="#006400" d="M624.37,-242.31C634.49,-233.33 647.04,-222.19 658.09,-212.39"/>
<polygon fill="#006400" stroke="#006400" points="660.66,-214.78 665.81,-205.53 656.01,-209.55 660.66,-214.78"/>
</g>
<!-- node34 -->
<g id="node35" class="node">
<title>node34</title>
<path fill="#ccff99" stroke="black" d="M499,-96.5C499,-96.5 529,-96.5 529,-96.5 535,-96.5 541,-102.5 541,-108.5 541,-108.5 541,-120.5 541,-120.5 541,-126.5 535,-132.5 529,-132.5 529,-132.5 499,-132.5 499,-132.5 493,-132.5 487,-126.5 487,-120.5 487,-120.5 487,-108.5 487,-108.5 487,-102.5 493,-96.5 499,-96.5"/>
<text text-anchor="middle" x="514" y="-110.8" font-family="Times,serif" font-size="14.00">3</text>
</g>
<!-- node33&#45;&gt;node34 -->
<g id="edge34" class="edge">
<title>node33&#45;&gt;node34</title>
<path fill="none" stroke="#ccff99" d="M582.21,-169.31C570.61,-160.16 556.16,-148.76 543.56,-138.82"/>
<polygon fill="#ccff99" stroke="#ccff99" points="545.6,-135.97 535.59,-132.53 541.27,-141.47 545.6,-135.97"/>
</g>
<!-- node35 -->
<g id="node36" class="node">
<title>node35</title>
<ellipse fill="none" stroke="black" cx="604" cy="-114.5" rx="44.69" ry="18"/>
<text text-anchor="middle" x="604" y="-110.8" font-family="Times,serif" font-size="14.00">node35</text>
</g>
<!-- node33&#45;&gt;node35 -->
<g id="edge35" class="edge">
<title>node33&#45;&gt;node35</title>
<path fill="none" stroke="#000000" d="M604,-169.31C604,-161.29 604,-151.55 604,-142.57"/>
<polygon fill="#000000" stroke="#000000" points="607.5,-142.53 604,-132.53 600.5,-142.53 607.5,-142.53"/>
</g>
<!-- node36 -->
<g id="node37" class="node">
<title>node36</title>
<path fill="#ff00ff" stroke="black" d="M589,-23.5C589,-23.5 619,-23.5 619,-23.5 625,-23.5 631,-29.5 631,-35.5 631,-35.5 631,-47.5 631,-47.5 631,-53.5 625,-59.5 619,-59.5 619,-59.5 589,-59.5 589,-59.5 583,-59.5 577,-53.5 577,-47.5 577,-47.5 577,-35.5 577,-35.5 577,-29.5 583,-23.5 589,-23.5"/>
<text text-anchor="middle" x="604" y="-37.8" font-family="Times,serif" font-size="14.00">1</text>
</g>
<!-- node35&#45;&gt;node36 -->
<g id="edge36" class="edge">
<title>node35&#45;&gt;node36</title>
<path fill="none" stroke="#ff00ff" d="M604,-96.31C604,-88.29 604,-78.55 604,-69.57"/>
<polygon fill="#ff00ff" stroke="#ff00ff" points="607.5,-69.53 604,-59.53 600.5,-69.53 607.5,-69.53"/>
</g>
<!-- node38 -->
<g id="node39" class="node">
<title>node38</title>
<path fill="#8b00ff" stroke="black" d="M679,-96.5C679,-96.5 709,-96.5 709,-96.5 715,-96.5 721,-102.5 721,-108.5 721,-108.5 721,-120.5 721,-120.5 721,-126.5 715,-132.5 709,-132.5 709,-132.5 679,-132.5 679,-132.5 673,-132.5 667,-126.5 667,-120.5 667,-120.5 667,-108.5 667,-108.5 667,-102.5 673,-96.5 679,-96.5"/>
<text text-anchor="middle" x="694" y="-110.8" font-family="Times,serif" font-size="14.00">print</text>
</g>
<!-- node37&#45;&gt;node38 -->
<g id="edge38" class="edge">
<title>node37&#45;&gt;node38</title>
<path fill="none" stroke="#8b00ff" d="M687.18,-169.31C688.2,-161.29 689.43,-151.55 690.57,-142.57"/>
<polygon fill="#8b00ff" stroke="#8b00ff" points="694.06,-142.89 691.84,-132.53 687.11,-142.01 694.06,-142.89"/>
</g>
<!-- node39 -->
<g id="node40" class="node">
<title>node39</title>
<path fill="#ff00ff" stroke="black" d="M679,-23.5C679,-23.5 709,-23.5 709,-23.5 715,-23.5 721,-29.5 721,-35.5 721,-35.5 721,-47.5 721,-47.5 721,-53.5 715,-59.5 709,-59.5 709,-59.5 679,-59.5 679,-59.5 673,-59.5 667,-53.5 667,-47.5 667,-47.5 667,-35.5 667,-35.5 667,-29.5 673,-23.5 679,-23.5"/>
<text text-anchor="middle" x="694" y="-37.8" font-family="Times,serif" font-size="14.00">3</text>
</g>
<!-- node38&#45;&gt;node39 -->
<g id="edge39" class="edge">
<title>node38&#45;&gt;node39</title>
<path fill="none" stroke="#ff00ff" d="M694,-96.31C694,-88.29 694,-78.55 694,-69.57"/>
<polygon fill="#ff00ff" stroke="#ff00ff" points="697.5,-69.53 694,-59.53 690.5,-69.53 697.5,-69.53"/>
</g>
<!-- node41 -->
<g id="node42" class="node">
<title>node41</title>
<path fill="#ff0000" stroke="black" d="M612,-786.5C612,-786.5 642,-786.5 642,-786.5 648,-786.5 654,-792.5 654,-798.5 654,-798.5 654,-810.5 654,-810.5 654,-816.5 648,-822.5 642,-822.5 642,-822.5 612,-822.5 612,-822.5 606,-822.5 600,-816.5 600,-810.5 600,-810.5 600,-798.5 600,-798.5 600,-792.5 606,-786.5 612,-786.5"/>
<text text-anchor="middle" x="627" y="-800.8" font-family="Times,serif" font-size="14.00">4</text>
</g>
<!-- node40&#45;&gt;node41 -->
<g id="edge41" class="edge">
<title>node40&#45;&gt;node41</title>
<path fill="none" stroke="#ff0000" d="M627,-859.31C627,-851.29 627,-841.55 627,-832.57"/>
<polygon fill="#ff0000" stroke="#ff0000" points="630.5,-832.53 627,-822.53 623.5,-832.53 630.5,-832.53"/>
</g>
<!-- node68 -->
<g id="node69" class="node">
<title>node68</title>
<path fill="#006400" stroke="black" d="M684,-786.5C684,-786.5 714,-786.5 714,-786.5 720,-786.5 726,-792.5 726,-798.5 726,-798.5 726,-810.5 726,-810.5 726,-816.5 720,-822.5 714,-822.5 714,-822.5 684,-822.5 684,-822.5 678,-822.5 672,-816.5 672,-810.5 672,-810.5 672,-798.5 672,-798.5 672,-792.5 678,-786.5 684,-786.5"/>
<text text-anchor="middle" x="699" y="-800.8" font-family="Times,serif" font-size="14.00">;</text>
</g>
<!-- node40&#45;&gt;node68 -->
<g id="edge68" class="edge">
<title>node40&#45;&gt;node68</title>
<path fill="none" stroke="#006400" d="M644.43,-859.31C653.45,-850.42 664.61,-839.41 674.49,-829.67"/>
<polygon fill="#006400" stroke="#006400" points="677.07,-832.04 681.73,-822.53 672.15,-827.06 677.07,-832.04"/>
</g>
<!-- node42 -->
<g id="node43" class="node">
<title>node42</title>
<path fill="#ff00ff" stroke="black" d="M612,-713.5C612,-713.5 642,-713.5 642,-713.5 648,-713.5 654,-719.5 654,-725.5 654,-725.5 654,-737.5 654,-737.5 654,-743.5 648,-749.5 642,-749.5 642,-749.5 612,-749.5 612,-749.5 606,-749.5 600,-743.5 600,-737.5 600,-737.5 600,-725.5 600,-725.5 600,-719.5 606,-713.5 612,-713.5"/>
<text text-anchor="middle" x="627" y="-727.8" font-family="Times,serif" font-size="14.00">1</text>
</g>
<!-- node41&#45;&gt;node42 -->
<g id="edge42" class="edge">
<title>node41&#45;&gt;node42</title>
<path fill="none" stroke="#ff00ff" d="M627,-786.31C627,-778.29 627,-768.55 627,-759.57"/>
<polygon fill="#ff00ff" stroke="#ff00ff" points="630.5,-759.53 627,-749.53 623.5,-759.53 630.5,-759.53"/>
</g>
<!-- node43 -->
<g id="node44" class="node">
<title>node43</title>
<path fill="#006400" stroke="black" d="M735,-713.5C735,-713.5 765,-713.5 765,-713.5 771,-713.5 777,-719.5 777,-725.5 777,-725.5 777,-737.5 777,-737.5 777,-743.5 771,-749.5 765,-749.5 765,-749.5 735,-749.5 735,-749.5 729,-749.5 723,-743.5 723,-737.5 723,-737.5 723,-725.5 723,-725.5 723,-719.5 729,-713.5 735,-713.5"/>
<text text-anchor="middle" x="750" y="-727.8" font-family="Times,serif" font-size="14.00">;</text>
</g>
<!-- node41&#45;&gt;node43 -->
<g id="edge43" class="edge">
<title>node41&#45;&gt;node43</title>
<path fill="none" stroke="#006400" d="M654.3,-787.74C671.89,-777.59 694.97,-764.27 714.05,-753.25"/>
<polygon fill="#006400" stroke="#006400" points="715.87,-756.24 722.78,-748.21 712.37,-750.18 715.87,-756.24"/>
</g>
<!-- node44 -->
<g id="node45" class="node">
<title>node44</title>
<path fill="#8b00ff" stroke="black" d="M735,-640.5C735,-640.5 765,-640.5 765,-640.5 771,-640.5 777,-646.5 777,-652.5 777,-652.5 777,-664.5 777,-664.5 777,-670.5 771,-676.5 765,-676.5 765,-676.5 735,-676.5 735,-676.5 729,-676.5 723,-670.5 723,-664.5 723,-664.5 723,-652.5 723,-652.5 723,-646.5 729,-640.5 735,-640.5"/>
<text text-anchor="middle" x="750" y="-654.8" font-family="Times,serif" font-size="14.00">if</text>
</g>
<!-- node43&#45;&gt;node44 -->
<g id="edge44" class="edge">
<title>node43&#45;&gt;node44</title>
<path fill="none" stroke="#8b00ff" d="M750,-713.31C750,-705.29 750,-695.55 750,-686.57"/>
<polygon fill="#8b00ff" stroke="#8b00ff" points="753.5,-686.53 750,-676.53 746.5,-686.53 753.5,-686.53"/>
</g>
<!-- node52 -->
<g id="node53" class="node">
<title>node52</title>
<path fill="#006400" stroke="black" d="M886,-640.5C886,-640.5 916,-640.5 916,-640.5 922,-640.5 928,-646.5 928,-652.5 928,-652.5 928,-664.5 928,-664.5 928,-670.5 922,-676.5 916,-676.5 916,-676.5 886,-676.5 886,-676.5 880,-676.5 874,-670.5 874,-664.5 874,-664.5 874,-652.5 874,-652.5 874,-646.5 880,-640.5 886,-640.5"/>
<text text-anchor="middle" x="901" y="-654.8" font-family="Times,serif" font-size="14.00">;</text>
</g>
<!-- node43&#45;&gt;node52 -->
<g id="edge52" class="edge">
<title>node43&#45;&gt;node52</title>
<path fill="none" stroke="#006400" d="M777.34,-717.64C801.82,-706.13 837.9,-689.17 864.77,-676.53"/>
<polygon fill="#006400" stroke="#006400" points="866.3,-679.68 873.86,-672.26 863.32,-673.35 866.3,-679.68"/>
</g>
<!-- node45 -->
<g id="node46" class="node">
<title>node45</title>
<path fill="#ffffff" stroke="black" d="M733,-567.5C733,-567.5 767,-567.5 767,-567.5 773,-567.5 779,-573.5 779,-579.5 779,-579.5 779,-591.5 779,-591.5 779,-597.5 773,-603.5 767,-603.5 767,-603.5 733,-603.5 733,-603.5 727,-603.5 721,-597.5 721,-591.5 721,-591.5 721,-579.5 721,-579.5 721,-573.5 727,-567.5 733,-567.5"/>
<text text-anchor="middle" x="750" y="-581.8" font-family="Times,serif" font-size="14.00">op_no</text>
</g>
<!-- node44&#45;&gt;node45 -->
<g id="edge45" class="edge">
<title>node44&#45;&gt;node45</title>
<path fill="none" stroke="#ffffff" d="M750,-640.31C750,-632.29 750,-622.55 750,-613.57"/>
<polygon fill="#ffffff" stroke="#ffffff" points="753.5,-613.53 750,-603.53 746.5,-613.53 753.5,-613.53"/>
</g>
<!-- node46 -->
<g id="node47" class="node">
<title>node46</title>
<path fill="#8b00ff" stroke="black" d="M698,-494.5C698,-494.5 728,-494.5 728,-494.5 734,-494.5 740,-500.5 740,-506.5 740,-506.5 740,-518.5 740,-518.5 740,-524.5 734,-530.5 728,-530.5 728,-530.5 698,-530.5 698,-530.5 692,-530.5 686,-524.5 686,-518.5 686,-518.5 686,-506.5 686,-506.5 686,-500.5 692,-494.5 698,-494.5"/>
<text text-anchor="middle" x="713" y="-508.8" font-family="Times,serif" font-size="14.00">==</text>
</g>
<!-- node45&#45;&gt;node46 -->
<g id="edge46" class="edge">
<title>node45&#45;&gt;node46</title>
<path fill="none" stroke="#8b00ff" d="M741.04,-567.31C736.68,-558.94 731.34,-548.7 726.5,-539.4"/>
<polygon fill="#8b00ff" stroke="#8b00ff" points="729.6,-537.78 721.87,-530.53 723.39,-541.01 729.6,-537.78"/>
</g>
<!-- node49 -->
<g id="node50" class="node">
<title>node49</title>
<path fill="#006400" stroke="black" d="M772,-494.5C772,-494.5 802,-494.5 802,-494.5 808,-494.5 814,-500.5 814,-506.5 814,-506.5 814,-518.5 814,-518.5 814,-524.5 808,-530.5 802,-530.5 802,-530.5 772,-530.5 772,-530.5 766,-530.5 760,-524.5 760,-518.5 760,-518.5 760,-506.5 760,-506.5 760,-500.5 766,-494.5 772,-494.5"/>
<text text-anchor="middle" x="787" y="-508.8" font-family="Times,serif" font-size="14.00">;</text>
</g>
<!-- node45&#45;&gt;node49 -->
<g id="edge49" class="edge">
<title>node45&#45;&gt;node49</title>
<path fill="none" stroke="#006400" d="M758.96,-567.31C763.32,-558.94 768.66,-548.7 773.5,-539.4"/>
<polygon fill="#006400" stroke="#006400" points="776.61,-541.01 778.13,-530.53 770.4,-537.78 776.61,-541.01"/>
</g>
<!-- node47 -->
<g id="node48" class="node">
<title>node47</title>
<path fill="#ccff99" stroke="black" d="M626,-405C626,-405 656,-405 656,-405 662,-405 668,-411 668,-417 668,-417 668,-429 668,-429 668,-435 662,-441 656,-441 656,-441 626,-441 626,-441 620,-441 614,-435 614,-429 614,-429 614,-417 614,-417 614,-411 620,-405 626,-405"/>
<text text-anchor="middle" x="641" y="-419.3" font-family="Times,serif" font-size="14.00">1</text>
</g>
<!-- node46&#45;&gt;node47 -->
<g id="edge47" class="edge">
<title>node46&#45;&gt;node47</title>
<path fill="none" stroke="#ccff99" d="M698.78,-494.21C688.22,-481.39 673.67,-463.71 661.82,-449.3"/>
<polygon fill="#ccff99" stroke="#ccff99" points="664.25,-446.75 655.2,-441.25 658.85,-451.2 664.25,-446.75"/>
</g>
<!-- node48 -->
<g id="node49" class="node">
<title>node48</title>
<path fill="#00bfff" stroke="black" d="M698,-405C698,-405 728,-405 728,-405 734,-405 740,-411 740,-417 740,-417 740,-429 740,-429 740,-435 734,-441 728,-441 728,-441 698,-441 698,-441 692,-441 686,-435 686,-429 686,-429 686,-417 686,-417 686,-411 692,-405 698,-405"/>
<text text-anchor="middle" x="713" y="-419.3" font-family="Times,serif" font-size="14.00">1</text>
</g>
<!-- node46&#45;&gt;node48 -->
<g id="edge48" class="edge">
<title>node46&#45;&gt;node48</title>
<path fill="none" stroke="#00bfff" d="M713,-494.21C713,-481.99 713,-465.35 713,-451.34"/>
<polygon fill="#00bfff" stroke="#00bfff" points="716.5,-451.25 713,-441.25 709.5,-451.25 716.5,-451.25"/>
</g>
<!-- node50 -->
<g id="node51" class="node">
<title>node50</title>
<path fill="#8b00ff" stroke="black" d="M770,-405C770,-405 808,-405 808,-405 814,-405 820,-411 820,-417 820,-417 820,-429 820,-429 820,-435 814,-441 808,-441 808,-441 770,-441 770,-441 764,-441 758,-435 758,-429 758,-429 758,-417 758,-417 758,-411 764,-405 770,-405"/>
<text text-anchor="middle" x="789" y="-419.3" font-family="Times,serif" font-size="14.00">return</text>
</g>
<!-- node49&#45;&gt;node50 -->
<g id="edge50" class="edge">
<title>node49&#45;&gt;node50</title>
<path fill="none" stroke="#8b00ff" d="M787.4,-494.21C787.67,-481.99 788.05,-465.35 788.38,-451.34"/>
<polygon fill="#8b00ff" stroke="#8b00ff" points="791.88,-451.33 788.61,-441.25 784.88,-451.17 791.88,-451.33"/>
</g>
<!-- node51 -->
<g id="node52" class="node">
<title>node51</title>
<path fill="#ccff99" stroke="black" d="M774,-315.5C774,-315.5 804,-315.5 804,-315.5 810,-315.5 816,-321.5 816,-327.5 816,-327.5 816,-339.5 816,-339.5 816,-345.5 810,-351.5 804,-351.5 804,-351.5 774,-351.5 774,-351.5 768,-351.5 762,-345.5 762,-339.5 762,-339.5 762,-327.5 762,-327.5 762,-321.5 768,-315.5 774,-315.5"/>
<text text-anchor="middle" x="789" y="-329.8" font-family="Times,serif" font-size="14.00">1</text>
</g>
<!-- node50&#45;&gt;node51 -->
<g id="edge51" class="edge">
<title>node50&#45;&gt;node51</title>
<path fill="none" stroke="#ccff99" d="M789,-404.71C789,-392.49 789,-375.85 789,-361.84"/>
<polygon fill="#ccff99" stroke="#ccff99" points="792.5,-361.75 789,-351.75 785.5,-361.75 792.5,-361.75"/>
</g>
<!-- node53 -->
<g id="node54" class="node">
<title>node53</title>
<path fill="#8b00ff" stroke="black" d="M886,-567.5C886,-567.5 916,-567.5 916,-567.5 922,-567.5 928,-573.5 928,-579.5 928,-579.5 928,-591.5 928,-591.5 928,-597.5 922,-603.5 916,-603.5 916,-603.5 886,-603.5 886,-603.5 880,-603.5 874,-597.5 874,-591.5 874,-591.5 874,-579.5 874,-579.5 874,-573.5 880,-567.5 886,-567.5"/>
<text text-anchor="middle" x="901" y="-581.8" font-family="Times,serif" font-size="14.00">=</text>
</g>
<!-- node52&#45;&gt;node53 -->
<g id="edge53" class="edge">
<title>node52&#45;&gt;node53</title>
<path fill="none" stroke="#8b00ff" d="M901,-640.31C901,-632.29 901,-622.55 901,-613.57"/>
<polygon fill="#8b00ff" stroke="#8b00ff" points="904.5,-613.53 901,-603.53 897.5,-613.53 904.5,-613.53"/>
</g>
<!-- node58 -->
<g id="node59" class="node">
<title>node58</title>
<path fill="#006400" stroke="black" d="M994,-567.5C994,-567.5 1024,-567.5 1024,-567.5 1030,-567.5 1036,-573.5 1036,-579.5 1036,-579.5 1036,-591.5 1036,-591.5 1036,-597.5 1030,-603.5 1024,-603.5 1024,-603.5 994,-603.5 994,-603.5 988,-603.5 982,-597.5 982,-591.5 982,-591.5 982,-579.5 982,-579.5 982,-573.5 988,-567.5 994,-567.5"/>
<text text-anchor="middle" x="1009" y="-581.8" font-family="Times,serif" font-size="14.00">;</text>
</g>
<!-- node52&#45;&gt;node58 -->
<g id="edge58" class="edge">
<title>node52&#45;&gt;node58</title>
<path fill="none" stroke="#006400" d="M926.87,-640.49C941.06,-631.17 958.84,-619.47 974.23,-609.36"/>
<polygon fill="#006400" stroke="#006400" points="976.53,-612.03 982.97,-603.61 972.69,-606.18 976.53,-612.03"/>
</g>
<!-- node54 -->
<g id="node55" class="node">
<title>node54</title>
<path fill="#ccff99" stroke="black" d="M850,-494.5C850,-494.5 880,-494.5 880,-494.5 886,-494.5 892,-500.5 892,-506.5 892,-506.5 892,-518.5 892,-518.5 892,-524.5 886,-530.5 880,-530.5 880,-530.5 850,-530.5 850,-530.5 844,-530.5 838,-524.5 838,-518.5 838,-518.5 838,-506.5 838,-506.5 838,-500.5 844,-494.5 850,-494.5"/>
<text text-anchor="middle" x="865" y="-508.8" font-family="Times,serif" font-size="14.00">5</text>
</g>
<!-- node53&#45;&gt;node54 -->
<g id="edge54" class="edge">
<title>node53&#45;&gt;node54</title>
<path fill="none" stroke="#ccff99" d="M892.29,-567.31C888.08,-559.03 882.95,-548.91 878.28,-539.69"/>
<polygon fill="#ccff99" stroke="#ccff99" points="881.28,-537.87 873.63,-530.53 875.04,-541.03 881.28,-537.87"/>
</g>
<!-- node55 -->
<g id="node56" class="node">
<title>node55</title>
<path fill="#8b00ff" stroke="black" d="M922,-494.5C922,-494.5 952,-494.5 952,-494.5 958,-494.5 964,-500.5 964,-506.5 964,-506.5 964,-518.5 964,-518.5 964,-524.5 958,-530.5 952,-530.5 952,-530.5 922,-530.5 922,-530.5 916,-530.5 910,-524.5 910,-518.5 910,-518.5 910,-506.5 910,-506.5 910,-500.5 916,-494.5 922,-494.5"/>
<text text-anchor="middle" x="937" y="-508.8" font-family="Times,serif" font-size="14.00">&#45;</text>
</g>
<!-- node53&#45;&gt;node55 -->
<g id="edge55" class="edge">
<title>node53&#45;&gt;node55</title>
<path fill="none" stroke="#8b00ff" d="M909.71,-567.31C913.92,-559.03 919.05,-548.91 923.72,-539.69"/>
<polygon fill="#8b00ff" stroke="#8b00ff" points="926.96,-541.03 928.37,-530.53 920.72,-537.87 926.96,-541.03"/>
</g>
<!-- node56 -->
<g id="node57" class="node">
<title>node56</title>
<path fill="#ccff99" stroke="black" d="M850,-405C850,-405 880,-405 880,-405 886,-405 892,-411 892,-417 892,-417 892,-429 892,-429 892,-435 886,-441 880,-441 880,-441 850,-441 850,-441 844,-441 838,-435 838,-429 838,-429 838,-417 838,-417 838,-411 844,-405 850,-405"/>
<text text-anchor="middle" x="865" y="-419.3" font-family="Times,serif" font-size="14.00">1</text>
</g>
<!-- node55&#45;&gt;node56 -->
<g id="edge56" class="edge">
<title>node55&#45;&gt;node56</title>
<path fill="none" stroke="#ccff99" d="M922.78,-494.21C912.22,-481.39 897.67,-463.71 885.82,-449.3"/>
<polygon fill="#ccff99" stroke="#ccff99" points="888.25,-446.75 879.2,-441.25 882.85,-451.2 888.25,-446.75"/>
</g>
<!-- node57 -->
<g id="node58" class="node">
<title>node57</title>
<path fill="#00bfff" stroke="black" d="M922,-405C922,-405 952,-405 952,-405 958,-405 964,-411 964,-417 964,-417 964,-429 964,-429 964,-435 958,-441 952,-441 952,-441 922,-441 922,-441 916,-441 910,-435 910,-429 910,-429 910,-417 910,-417 910,-411 916,-405 922,-405"/>
<text text-anchor="middle" x="937" y="-419.3" font-family="Times,serif" font-size="14.00">1</text>
</g>
<!-- node55&#45;&gt;node57 -->
<g id="edge57" class="edge">
<title>node55&#45;&gt;node57</title>
<path fill="none" stroke="#00bfff" d="M937,-494.21C937,-481.99 937,-465.35 937,-451.34"/>
<polygon fill="#00bfff" stroke="#00bfff" points="940.5,-451.25 937,-441.25 933.5,-451.25 940.5,-451.25"/>
</g>
<!-- node59 -->
<g id="node60" class="node">
<title>node59</title>
<path fill="#8b00ff" stroke="black" d="M994,-494.5C994,-494.5 1024,-494.5 1024,-494.5 1030,-494.5 1036,-500.5 1036,-506.5 1036,-506.5 1036,-518.5 1036,-518.5 1036,-524.5 1030,-530.5 1024,-530.5 1024,-530.5 994,-530.5 994,-530.5 988,-530.5 982,-524.5 982,-518.5 982,-518.5 982,-506.5 982,-506.5 982,-500.5 988,-494.5 994,-494.5"/>
<text text-anchor="middle" x="1009" y="-508.8" font-family="Times,serif" font-size="14.00">=</text>
</g>
<!-- node58&#45;&gt;node59 -->
<g id="edge59" class="edge">
<title>node58&#45;&gt;node59</title>
<path fill="none" stroke="#8b00ff" d="M1009,-567.31C1009,-559.29 1009,-549.55 1009,-540.57"/>
<polygon fill="#8b00ff" stroke="#8b00ff" points="1012.5,-540.53 1009,-530.53 1005.5,-540.53 1012.5,-540.53"/>
</g>
<!-- node65 -->
<g id="node66" class="node">
<title>node65</title>
<path fill="#006400" stroke="black" d="M1104,-494.5C1104,-494.5 1134,-494.5 1134,-494.5 1140,-494.5 1146,-500.5 1146,-506.5 1146,-506.5 1146,-518.5 1146,-518.5 1146,-524.5 1140,-530.5 1134,-530.5 1134,-530.5 1104,-530.5 1104,-530.5 1098,-530.5 1092,-524.5 1092,-518.5 1092,-518.5 1092,-506.5 1092,-506.5 1092,-500.5 1098,-494.5 1104,-494.5"/>
<text text-anchor="middle" x="1119" y="-508.8" font-family="Times,serif" font-size="14.00">;</text>
</g>
<!-- node58&#45;&gt;node65 -->
<g id="edge65" class="edge">
<title>node58&#45;&gt;node65</title>
<path fill="none" stroke="#006400" d="M1035.35,-567.49C1049.93,-558.08 1068.25,-546.26 1084.02,-536.07"/>
<polygon fill="#006400" stroke="#006400" points="1085.98,-538.98 1092.49,-530.61 1082.19,-533.1 1085.98,-538.98"/>
</g>
<!-- node60 -->
<g id="node61" class="node">
<title>node60</title>
<path fill="#ccff99" stroke="black" d="M994,-405C994,-405 1024,-405 1024,-405 1030,-405 1036,-411 1036,-417 1036,-417 1036,-429 1036,-429 1036,-435 1030,-441 1024,-441 1024,-441 994,-441 994,-441 988,-441 982,-435 982,-429 982,-429 982,-417 982,-417 982,-411 988,-405 994,-405"/>
<text text-anchor="middle" x="1009" y="-419.3" font-family="Times,serif" font-size="14.00">1</text>
</g>
<!-- node59&#45;&gt;node60 -->
<g id="edge60" class="edge">
<title>node59&#45;&gt;node60</title>
<path fill="none" stroke="#ccff99" d="M1009,-494.21C1009,-481.99 1009,-465.35 1009,-451.34"/>
<polygon fill="#ccff99" stroke="#ccff99" points="1012.5,-451.25 1009,-441.25 1005.5,-451.25 1012.5,-451.25"/>
</g>
<!-- node61 -->
<g id="node62" class="node">
<title>node61</title>
<path fill="#8b00ff" stroke="black" d="M1066,-405C1066,-405 1096,-405 1096,-405 1102,-405 1108,-411 1108,-417 1108,-417 1108,-429 1108,-429 1108,-435 1102,-441 1096,-441 1096,-441 1066,-441 1066,-441 1060,-441 1054,-435 1054,-429 1054,-429 1054,-417 1054,-417 1054,-411 1060,-405 1066,-405"/>
<text text-anchor="middle" x="1081" y="-419.3" font-family="Times,serif" font-size="14.00">*</text>
</g>
<!-- node59&#45;&gt;node61 -->
<g id="edge61" class="edge">
<title>node59&#45;&gt;node61</title>
<path fill="none" stroke="#8b00ff" d="M1023.22,-494.21C1033.78,-481.39 1048.33,-463.71 1060.18,-449.3"/>
<polygon fill="#8b00ff" stroke="#8b00ff" points="1063.15,-451.2 1066.8,-441.25 1057.75,-446.75 1063.15,-451.2"/>
</g>
<!-- node62 -->
<g id="node63" class="node">
<title>node62</title>
<path fill="#ccff99" stroke="black" d="M976,-315.5C976,-315.5 1006,-315.5 1006,-315.5 1012,-315.5 1018,-321.5 1018,-327.5 1018,-327.5 1018,-339.5 1018,-339.5 1018,-345.5 1012,-351.5 1006,-351.5 1006,-351.5 976,-351.5 976,-351.5 970,-351.5 964,-345.5 964,-339.5 964,-339.5 964,-327.5 964,-327.5 964,-321.5 970,-315.5 976,-315.5"/>
<text text-anchor="middle" x="991" y="-329.8" font-family="Times,serif" font-size="14.00">1</text>
</g>
<!-- node61&#45;&gt;node62 -->
<g id="edge62" class="edge">
<title>node61&#45;&gt;node62</title>
<path fill="none" stroke="#ccff99" d="M1063.22,-404.71C1049.78,-391.65 1031.16,-373.55 1016.19,-358.99"/>
<polygon fill="#ccff99" stroke="#ccff99" points="1018.35,-356.21 1008.74,-351.75 1013.47,-361.23 1018.35,-356.21"/>
</g>
<!-- node63 -->
<g id="node64" class="node">
<title>node63</title>
<ellipse fill="none" stroke="black" cx="1081" cy="-333.5" rx="44.69" ry="18"/>
<text text-anchor="middle" x="1081" y="-329.8" font-family="Times,serif" font-size="14.00">node63</text>
</g>
<!-- node61&#45;&gt;node63 -->
<g id="edge63" class="edge">
<title>node61&#45;&gt;node63</title>
<path fill="none" stroke="#000000" d="M1081,-404.71C1081,-392.49 1081,-375.85 1081,-361.84"/>
<polygon fill="#000000" stroke="#000000" points="1084.5,-361.75 1081,-351.75 1077.5,-361.75 1084.5,-361.75"/>
</g>
<!-- node64 -->
<g id="node65" class="node">
<title>node64</title>
<path fill="#ff00ff" stroke="black" d="M1066,-242.5C1066,-242.5 1096,-242.5 1096,-242.5 1102,-242.5 1108,-248.5 1108,-254.5 1108,-254.5 1108,-266.5 1108,-266.5 1108,-272.5 1102,-278.5 1096,-278.5 1096,-278.5 1066,-278.5 1066,-278.5 1060,-278.5 1054,-272.5 1054,-266.5 1054,-266.5 1054,-254.5 1054,-254.5 1054,-248.5 1060,-242.5 1066,-242.5"/>
<text text-anchor="middle" x="1081" y="-256.8" font-family="Times,serif" font-size="14.00">5</text>
</g>
<!-- node63&#45;&gt;node64 -->
<g id="edge64" class="edge">
<title>node63&#45;&gt;node64</title>
<path fill="none" stroke="#ff00ff" d="M1081,-315.31C1081,-307.29 1081,-297.55 1081,-288.57"/>
<polygon fill="#ff00ff" stroke="#ff00ff" points="1084.5,-288.53 1081,-278.53 1077.5,-288.53 1084.5,-288.53"/>
</g>
<!-- node66 -->
<g id="node67" class="node">
<title>node66</title>
<path fill="#8b00ff" stroke="black" d="M1145,-405C1145,-405 1183,-405 1183,-405 1189,-405 1195,-411 1195,-417 1195,-417 1195,-429 1195,-429 1195,-435 1189,-441 1183,-441 1183,-441 1145,-441 1145,-441 1139,-441 1133,-435 1133,-429 1133,-429 1133,-417 1133,-417 1133,-411 1139,-405 1145,-405"/>
<text text-anchor="middle" x="1164" y="-419.3" font-family="Times,serif" font-size="14.00">return</text>
</g>
<!-- node65&#45;&gt;node66 -->
<g id="edge66" class="edge">
<title>node65&#45;&gt;node66</title>
<path fill="none" stroke="#8b00ff" d="M1127.89,-494.21C1134.3,-481.75 1143.07,-464.7 1150.36,-450.52"/>
<polygon fill="#8b00ff" stroke="#8b00ff" points="1153.67,-451.74 1155.13,-441.25 1147.44,-448.54 1153.67,-451.74"/>
</g>
<!-- node67 -->
<g id="node68" class="node">
<title>node67</title>
<path fill="#ccff99" stroke="black" d="M1156,-315.5C1156,-315.5 1186,-315.5 1186,-315.5 1192,-315.5 1198,-321.5 1198,-327.5 1198,-327.5 1198,-339.5 1198,-339.5 1198,-345.5 1192,-351.5 1186,-351.5 1186,-351.5 1156,-351.5 1156,-351.5 1150,-351.5 1144,-345.5 1144,-339.5 1144,-339.5 1144,-327.5 1144,-327.5 1144,-321.5 1150,-315.5 1156,-315.5"/>
<text text-anchor="middle" x="1171" y="-329.8" font-family="Times,serif" font-size="14.00">1</text>
</g>
<!-- node66&#45;&gt;node67 -->
<g id="edge67" class="edge">
<title>node66&#45;&gt;node67</title>
<path fill="none" stroke="#ccff99" d="M1165.38,-404.71C1166.36,-392.49 1167.69,-375.85 1168.81,-361.84"/>
<polygon fill="#ccff99" stroke="#ccff99" points="1172.31,-362 1169.62,-351.75 1165.33,-361.44 1172.31,-362"/>
</g>
</g>
</svg>
